  0
SECTION
  2
HEADER
  9
$ACADVER
  1
AC1018
  9
$ACADMAINTVER
 70
     0
  9
$DWGCODEPAGE
  3
ANSI_1252
  9
$INSBASE
 10
0.0
 20
0.0
 30
0.0
  9
$EXTMIN
 10
1.000000000000000E+20
 20
1.000000000000000E+20
 30
1.000000000000000E+20
  9
$EXTMAX
 10
-1.000000000000000E+20
 20
-1.000000000000000E+20
 30
-1.000000000000000E+20
  9
$LIMMIN
 10
0.0
 20
0.0
  9
$LIMMAX
 10
12.0
 20
9.0
  9
$ORTHOMODE
 70
     0
  9
$REGENMODE
 70
     1
  9
$FILLMODE
 70
     1
  9
$QTEXTMODE
 70
     0
  9
$MIRRTEXT
 70
     1
  9
$LTSCALE
 40
1.0
  9
$ATTMODE
 70
     1
  9
$TEXTSIZE
 40
0.2
  9
$TRACEWID
 40
0.05
  9
$TEXTSTYLE
  7
Standard
  9
$CLAYER
  8
0
  9
$CELTYPE
  6
ByLayer
  9
$CECOLOR
 62
   256
  9
$CELTSCALE
 40
1.0
  9
$DISPSILH
 70
     0
  9
$DIMSCALE
 40
1.0
  9
$DIMASZ
 40
0.18
  9
$DIMEXO
 40
0.0625
  9
$DIMDLI
 40
0.38
  9
$DIMRND
 40
0.0
  9
$DIMDLE
 40
0.0
  9
$DIMEXE
 40
0.18
  9
$DIMTP
 40
0.0
  9
$DIMTM
 40
0.0
  9
$DIMTXT
 40
0.18
  9
$DIMCEN
 40
0.09
  9
$DIMTSZ
 40
0.0
  9
$DIMTOL
 70
     0
  9
$DIMLIM
 70
     0
  9
$DIMTIH
 70
     1
  9
$DIMTOH
 70
     1
  9
$DIMSE1
 70
     0
  9
$DIMSE2
 70
     0
  9
$DIMTAD
 70
     0
  9
$DIMZIN
 70
     0
  9
$DIMBLK
  1

  9
$DIMASO
 70
     1
  9
$DIMSHO
 70
     1
  9
$DIMPOST
  1

  9
$DIMAPOST
  1

  9
$DIMALT
 70
     0
  9
$DIMALTD
 70
     2
  9
$DIMALTF
 40
25.4
  9
$DIMLFAC
 40
1.0
  9
$DIMTOFL
 70
     0
  9
$DIMTVP
 40
0.0
  9
$DIMTIX
 70
     0
  9
$DIMSOXD
 70
     0
  9
$DIMSAH
 70
     0
  9
$DIMBLK1
  1

  9
$DIMBLK2
  1

  9
$DIMSTYLE
  2
Standard
  9
$DIMCLRD
 70
     0
  9
$DIMCLRE
 70
     0
  9
$DIMCLRT
 70
     0
  9
$DIMTFAC
 40
1.0
  9
$DIMGAP
 40
0.09
  9
$DIMJUST
 70
     0
  9
$DIMSD1
 70
     0
  9
$DIMSD2
 70
     0
  9
$DIMTOLJ
 70
     1
  9
$DIMTZIN
 70
     0
  9
$DIMALTZ
 70
     0
  9
$DIMALTTZ
 70
     0
  9
$DIMUPT
 70
     0
  9
$DIMDEC
 70
     4
  9
$DIMTDEC
 70
     4
  9
$DIMALTU
 70
     2
  9
$DIMALTTD
 70
     2
  9
$DIMTXSTY
  7
Standard
  9
$DIMAUNIT
 70
     0
  9
$DIMADEC
 70
     0
  9
$DIMALTRND
 40
0.0
  9
$DIMAZIN
 70
     0
  9
$DIMDSEP
 70
    46
  9
$DIMATFIT
 70
     3
  9
$DIMFRAC
 70
     0
  9
$DIMLDRBLK
  1

  9
$DIMLUNIT
 70
     2
  9
$DIMLWD
 70
    -2
  9
$DIMLWE
 70
    -2
  9
$DIMTMOVE
 70
     0
  9
$LUNITS
 70
     2
  9
$LUPREC
 70
     4
  9
$SKETCHINC
 40
0.1
  9
$FILLETRAD
 40
0.5
  9
$AUNITS
 70
     0
  9
$AUPREC
 70
     0
  9
$MENU
  1
.
  9
$ELEVATION
 40
0.0
  9
$PELEVATION
 40
0.0
  9
$THICKNESS
 40
0.0
  9
$LIMCHECK
 70
     0
  9
$CHAMFERA
 40
0.5
  9
$CHAMFERB
 40
0.5
  9
$CHAMFERC
 40
1.0
  9
$CHAMFERD
 40
0.0
  9
$SKPOLY
 70
     0
  9
$TDCREATE
 40
2456237.572706424
  9
$TDUCREATE
 40
2456237.031039757
  9
$TDUPDATE
 40
2456237.572706435
  9
$TDUUPDATE
 40
2456237.031039768
  9
$TDINDWG
 40
0.0000000116
  9
$TDUSRTIMER
 40
0.0000000116
  9
$USRTIMER
 70
     1
  9
$ANGBASE
 50
0.0
  9
$ANGDIR
 70
     0
  9
$PDMODE
 70
     0
  9
$PDSIZE
 40
0.0
  9
$PLINEWID
 40
0.0
  9
$SPLFRAME
 70
     0
  9
$SPLINETYPE
 70
     6
  9
$SPLINESEGS
 70
     8
  9
$HANDSEED
  5
95
  9
$SURFTAB1
 70
     6
  9
$SURFTAB2
 70
     6
  9
$SURFTYPE
 70
     6
  9
$SURFU
 70
     6
  9
$SURFV
 70
     6
  9
$UCSBASE
  2

  9
$UCSNAME
  2

  9
$UCSORG
 10
0.0
 20
0.0
 30
0.0
  9
$UCSXDIR
 10
1.0
 20
0.0
 30
0.0
  9
$UCSYDIR
 10
0.0
 20
1.0
 30
0.0
  9
$UCSORTHOREF
  2

  9
$UCSORTHOVIEW
 70
     0
  9
$UCSORGTOP
 10
0.0
 20
0.0
 30
0.0
  9
$UCSORGBOTTOM
 10
0.0
 20
0.0
 30
0.0
  9
$UCSORGLEFT
 10
0.0
 20
0.0
 30
0.0
  9
$UCSORGRIGHT
 10
0.0
 20
0.0
 30
0.0
  9
$UCSORGFRONT
 10
0.0
 20
0.0
 30
0.0
  9
$UCSORGBACK
 10
0.0
 20
0.0
 30
0.0
  9
$PUCSBASE
  2

  9
$PUCSNAME
  2

  9
$PUCSORG
 10
0.0
 20
0.0
 30
0.0
  9
$PUCSXDIR
 10
1.0
 20
0.0
 30
0.0
  9
$PUCSYDIR
 10
0.0
 20
1.0
 30
0.0
  9
$PUCSORTHOREF
  2

  9
$PUCSORTHOVIEW
 70
     0
  9
$PUCSORGTOP
 10
0.0
 20
0.0
 30
0.0
  9
$PUCSORGBOTTOM
 10
0.0
 20
0.0
 30
0.0
  9
$PUCSORGLEFT
 10
0.0
 20
0.0
 30
0.0
  9
$PUCSORGRIGHT
 10
0.0
 20
0.0
 30
0.0
  9
$PUCSORGFRONT
 10
0.0
 20
0.0
 30
0.0
  9
$PUCSORGBACK
 10
0.0
 20
0.0
 30
0.0
  9
$USERI1
 70
     0
  9
$USERI2
 70
     0
  9
$USERI3
 70
     0
  9
$USERI4
 70
     0
  9
$USERI5
 70
     0
  9
$USERR1
 40
0.0
  9
$USERR2
 40
0.0
  9
$USERR3
 40
0.0
  9
$USERR4
 40
0.0
  9
$USERR5
 40
0.0
  9
$WORLDVIEW
 70
     1
  9
$SHADEDGE
 70
     3
  9
$SHADEDIF
 70
    70
  9
$TILEMODE
 70
     1
  9
$MAXACTVP
 70
    64
  9
$PINSBASE
 10
0.0
 20
0.0
 30
0.0
  9
$PLIMCHECK
 70
     0
  9
$PEXTMIN
 10
1.000000000000000E+20
 20
1.000000000000000E+20
 30
1.000000000000000E+20
  9
$PEXTMAX
 10
-1.000000000000000E+20
 20
-1.000000000000000E+20
 30
-1.000000000000000E+20
  9
$PLIMMIN
 10
0.0
 20
0.0
  9
$PLIMMAX
 10
12.0
 20
9.0
  9
$UNITMODE
 70
     0
  9
$VISRETAIN
 70
     1
  9
$PLINEGEN
 70
     0
  9
$PSLTSCALE
 70
     1
  9
$TREEDEPTH
 70
  3020
  9
$CMLSTYLE
  2
Standard
  9
$CMLJUST
 70
     0
  9
$CMLSCALE
 40
1.0
  9
$PROXYGRAPHICS
 70
     1
  9
$MEASUREMENT
 70
     0
  9
$CELWEIGHT
370
    -1
  9
$ENDCAPS
280
     0
  9
$JOINSTYLE
280
     0
  9
$LWDISPLAY
290
     1
  9
$INSUNITS
 70
     1
  9
$HYPERLINKBASE
  1

  9
$STYLESHEET
  1

  9
$XEDIT
290
     1
  9
$CEPSNTYPE
380
     0
  9
$PSTYLEMODE
290
     1
  9
$FINGERPRINTGUID
  2
{D9FDD5B0-7396-407A-B0E6-01430D3BA861}
  9
$VERSIONGUID
  2
{FAEB1C32-E019-11D5-929B-00C0DF256EC4}
  9
$EXTNAMES
290
     1
  9
$PSVPSCALE
 40
0.0
  9
$OLESTARTUP
290
     0
  9
$SORTENTS
280
   127
  9
$INDEXCTL
280
     0
  9
$HIDETEXT
280
     1
  9
$XCLIPFRAME
290
     0
  9
$HALOGAP
280
     0
  9
$OBSCOLOR
 70
   257
  9
$OBSLTYPE
280
     0
  9
$INTERSECTIONDISPLAY
280
     0
  9
$INTERSECTIONCOLOR
 70
   257
  9
$DIMASSOC
280
     2
  9
$PROJECTNAME
  1

  0
ENDSEC
  0
SECTION
  2
CLASSES
  0
CLASS
  1
ACDBDICTIONARYWDFLT
  2
AcDbDictionaryWithDefault
  3
ObjectDBX Classes
 90
        0
 91
        3
280
     0
281
     0
  0
CLASS
  1
VISUALSTYLE
  2
AcDbVisualStyle
  3
ObjectDBX Classes
 90
     4095
 91
        3
280
     0
281
     0
  0
ENDSEC
  0
SECTION
  2
TABLES
  0
TABLE
  2
VPORT
  5
8
330
0
100
AcDbSymbolTable
 70
     1
  0
VPORT
  5
29
330
8
100
AcDbSymbolTableRecord
100
AcDbViewportTableRecord
  2
*Active
 70
     0
 10
0.0
 20
0.0
 11
1.0
 21
1.0
 12
0.0
 22
0.0
 13
0.0
 23
0.0
 14
0.5
 24
0.5
 15
0.5
 25
0.5
 16
0.0
 26
0.0
 36
1.0
 17
1236.988405723739
 27
-604.4941099562984
 37
0.0
 40
1200.000310301129
 41
1.999999712908783
 42
50.0
 43
0.0
 44
0.0
 50
0.0
 51
0.0
 71
     0
 72
   100
 73
     1
 74
     3
 75
     0
 76
     0
 77
     0
 78
     0
281
     0
 65
     1
110
0.0
120
0.0
130
0.0
111
1.0
121
0.0
131
0.0
112
0.0
122
1.0
132
0.0
 79
     0
146
0.0
  0
ENDTAB
  0
TABLE
  2
LTYPE
  5
5
330
0
100
AcDbSymbolTable
 70
     1
  0
LTYPE
  5
14
330
5
100
AcDbSymbolTableRecord
100
AcDbLinetypeTableRecord
  2
ByBlock
 70
     0
  3

 72
    65
 73
     0
 40
0.0
  0
LTYPE
  5
15
330
5
100
AcDbSymbolTableRecord
100
AcDbLinetypeTableRecord
  2
ByLayer
 70
     0
  3

 72
    65
 73
     0
 40
0.0
  0
LTYPE
  5
16
330
5
100
AcDbSymbolTableRecord
100
AcDbLinetypeTableRecord
  2
Continuous
 70
     0
  3
Solid line
 72
    65
 73
     0
 40
0.0
  0
ENDTAB
  0
TABLE
  2
LAYER
  5
2
330
0
100
AcDbSymbolTable
 70
     8
  0
LAYER
  5
10
330
2
100
AcDbSymbolTableRecord
100
AcDbLayerTableRecord
  2
0
 70
     0
 62
     7
  6
Continuous
370
    -3
390
F
  0
LAYER
  5
3B
330
2
100
AcDbSymbolTableRecord
100
AcDbLayerTableRecord
  2
full strips
 70
     0
 62
     7
  6
Continuous
370
    -3
390
F
  0
LAYER
  5
3C
330
2
100
AcDbSymbolTableRecord
100
AcDbLayerTableRecord
  2
sides
 70
     0
 62
     7
  6
Continuous
370
    -3
390
F
  0
LAYER
  5
3D
330
2
100
AcDbSymbolTableRecord
100
AcDbLayerTableRecord
  2
drill holes 1800
 70
     0
 62
     7
  6
Continuous
370
    -3
390
F
  0
LAYER
  5
8C
330
2
100
AcDbSymbolTableRecord
100
AcDbLayerTableRecord
  2
drill holes 1200
 70
     0
 62
     7
  6
Continuous
370
    -3
390
F
  0
LAYER
  5
8D
330
2
100
AcDbSymbolTableRecord
100
AcDbLayerTableRecord
  2
full outline and jig
 70
     0
 62
     7
  6
Continuous
370
    -3
390
F
  0
LAYER
  5
8E
330
2
100
AcDbSymbolTableRecord
100
AcDbLayerTableRecord
  2
1200 outline
 70
     0
 62
     7
  6
Continuous
370
    -3
390
F
  0
LAYER
  5
8F
330
2
100
AcDbSymbolTableRecord
100
AcDbLayerTableRecord
  2
1800 outline
 70
     0
 62
     7
  6
Continuous
370
    -3
390
F
  0
ENDTAB
  0
TABLE
  2
STYLE
  5
3
330
0
100
AcDbSymbolTable
 70
     1
  0
STYLE
  5
11
330
3
100
AcDbSymbolTableRecord
100
AcDbTextStyleTableRecord
  2
Standard
 70
     0
 40
0.0
 41
1.0
 50
0.0
 71
     0
 42
0.2
  3
txt
  4

  0
ENDTAB
  0
TABLE
  2
VIEW
  5
6
330
0
100
AcDbSymbolTable
 70
     0
  0
ENDTAB
  0
TABLE
  2
UCS
  5
7
330
0
100
AcDbSymbolTable
 70
     0
  0
ENDTAB
  0
TABLE
  2
APPID
  5
9
330
0
100
AcDbSymbolTable
 70
     1
  0
APPID
  5
12
330
9
100
AcDbSymbolTableRecord
100
AcDbRegAppTableRecord
  2
ACAD
 70
     0
  0
ENDTAB
  0
TABLE
  2
DIMSTYLE
  5
A
330
0
100
AcDbSymbolTable
 70
     1
100
AcDbDimStyleTable
  0
DIMSTYLE
105
27
330
A
100
AcDbSymbolTableRecord
100
AcDbDimStyleTableRecord
  2
Standard
 70
     0
340
11
  0
ENDTAB
  0
TABLE
  2
BLOCK_RECORD
  5
1
330
0
100
AcDbSymbolTable
 70
     2
  0
BLOCK_RECORD
  5
1F
330
1
100
AcDbSymbolTableRecord
100
AcDbBlockTableRecord
  2
*Model_Space
340
22
  0
BLOCK_RECORD
  5
1B
330
1
100
AcDbSymbolTableRecord
100
AcDbBlockTableRecord
  2
*Paper_Space
340
1E
  0
BLOCK_RECORD
  5
23
330
1
100
AcDbSymbolTableRecord
100
AcDbBlockTableRecord
  2
*Paper_Space0
340
26
  0
BLOCK_RECORD
  5
90
330
1
100
AcDbSymbolTableRecord
100
AcDbBlockTableRecord
  2
block 2
340
0
102
{BLKREFS
331
91
102
}
  0
ENDTAB
  0
ENDSEC
  0
SECTION
  2
BLOCKS
  0
BLOCK
  5
20
330
1F
100
AcDbEntity
  8
0
100
AcDbBlockBegin
  2
*Model_Space
 70
     0
 71
     0
 10
0.0
 20
0.0
 30
0.0
  3
*Model_Space
  1

  0
ENDBLK
  5
21
330
1F
100
AcDbEntity
  8
0
100
AcDbBlockEnd
  0
BLOCK
  5
1C
330
1B
100
AcDbEntity
 67
     1
  8
0
100
AcDbBlockBegin
  2
*Paper_Space
 70
     0
 71
     0
 10
0.0
 20
0.0
 30
0.0
  3
*Paper_Space
  1

  0
ENDBLK
  5
1D
330
1B
100
AcDbEntity
 67
     1
  8
0
100
AcDbBlockEnd
  0
BLOCK
  5
24
330
23
100
AcDbEntity
  8
0
100
AcDbBlockBegin
  2
*Paper_Space0
 70
     0
 71
     0
 10
0.0
 20
0.0
 30
0.0
  3
*Paper_Space0
  1

  0
ENDBLK
  5
25
330
23
100
AcDbEntity
  8
0
100
AcDbBlockEnd
  0
BLOCK
  5
92
330
90
100
AcDbEntity
  8
0
100
AcDbBlockBegin
  2
block 2
 70
     0
 71
     0
 10
0.0
 20
0.0
 30
0.0
  3
block 2
  1

  0
ENDBLK
  5
93
330
90
100
AcDbEntity
  8
0
100
AcDbBlockEnd
  0
ENDSEC
  0
SECTION
  2
ENTITIES
  0
POLYLINE
  5
3E
330
1F
100
AcDbEntity
  8
drill holes 1800
 62
   250
370
    25
100
AcDb2dPolyline
 66
     1
 10
0.0
 20
0.0
 30
0.0
  0
VERTEX
  5
3F
330
3E
100
AcDbEntity
  8
drill holes 1800
 62
   250
370
    25
100
AcDbVertex
100
AcDb2dVertex
 10
199.359752011792
 20
-679.7366317745103
 30
0.0
  0
VERTEX
  5
40
330
3E
100
AcDbEntity
  8
drill holes 1800
 62
   250
370
    25
100
AcDbVertex
100
AcDb2dVertex
 10
1997.17352923161
 20
-679.7366317745103
 30
0.0
  0
VERTEX
  5
41
330
3E
100
AcDbEntity
  8
drill holes 1800
 62
   250
370
    25
100
AcDbVertex
100
AcDb2dVertex
 10
1997.172840212512
 20
-1079.736677789962
 30
0.0
  0
VERTEX
  5
42
330
3E
100
AcDbEntity
  8
drill holes 1800
 62
   250
370
    25
100
AcDbVertex
100
AcDb2dVertex
 10
319.1143716650131
 20
-1079.73702229951
 30
0.0
  0
VERTEX
  5
43
330
3E
100
AcDbEntity
  8
drill holes 1800
 62
   250
370
    25
100
AcDbVertex
100
AcDb2dVertex
 10
199.359752011792
 20
-679.7366317745103
 30
0.0
  0
SEQEND
  5
44
330
3E
100
AcDbEntity
  8
drill holes 1800
370
    25
  0
POLYLINE
  5
45
330
1F
100
AcDbEntity
  8
drill holes 1800
 62
   250
370
    25
100
AcDb2dPolyline
 66
     1
 10
0.0
 20
0.0
 30
0.0
  0
VERTEX
  5
46
330
45
100
AcDbEntity
  8
drill holes 1800
 62
   250
370
    25
100
AcDbVertex
100
AcDb2dVertex
 10
500.1196884600395
 20
-1089.762939180684
 30
0.0
  0
VERTEX
  5
47
330
45
100
AcDbEntity
  8
drill holes 1800
 62
   250
370
    25
100
AcDbVertex
100
AcDb2dVertex
 10
475.1200085617756
 20
-1089.762939180684
 30
0.0
  0
VERTEX
  5
48
330
45
100
AcDbEntity
  8
drill holes 1800
 62
   250
370
    25
100
AcDbVertex
100
AcDb2dVertex
 10
475.1200085617756
 20
-669.7630803447121
 30
0.0
  0
VERTEX
  5
49
330
45
100
AcDbEntity
  8
drill holes 1800
 62
   250
370
    25
100
AcDbVertex
100
AcDb2dVertex
 10
500.1196884600395
 20
-669.7630803447121
 30
0.0
  0
VERTEX
  5
4A
330
45
100
AcDbEntity
  8
drill holes 1800
 62
   250
370
    25
100
AcDbVertex
100
AcDb2dVertex
 10
500.1196884600395
 20
-1089.762939180684
 30
0.0
  0
SEQEND
  5
4B
330
45
100
AcDbEntity
  8
drill holes 1800
370
    25
  0
SPLINE
  5
4C
330
1F
100
AcDbEntity
  8
drill holes 1800
 62
   250
370
    25
100
AcDbSpline
210
0.0
220
0.0
230
1.0
 70
    11
 71
     3
 72
    17
 73
    13
 74
     0
 42
0.0000000001
 43
0.0000000001
 40
0.0
 40
0.0
 40
0.0
 40
0.0
 40
1.0
 40
1.0
 40
1.0
 40
2.0
 40
2.0
 40
2.0
 40
3.0
 40
3.0
 40
3.0
 40
4.0
 40
4.0
 40
4.0
 40
4.0
 10
493.3871106079901
 20
-721.1763073283865
 30
0.0
 10
493.3869383532158
 20
-723.9372068502657
 30
0.0
 10
491.1484875616747
 20
-726.175829896581
 30
0.0
 10
488.3870712754727
 20
-726.175829896581
 30
0.0
 10
485.6254827344964
 20
-726.175829896581
 30
0.0
 10
483.3868596881811
 20
-723.9375513598143
 30
0.0
 10
483.3870319429553
 20
-721.175962818838
 30
0.0
 10
483.3868596881811
 20
-718.4147187874103
 30
0.0
 10
485.6256549892707
 20
-716.1760957410949
 30
0.0
 10
488.3868990206984
 20
-716.1760957410949
 30
0.0
 10
491.1483153069004
 20
-716.1760957410949
 30
0.0
 10
493.3869383532158
 20
-718.4147187874103
 30
0.0
 10
493.3871106079901
 20
-721.1763073283865
 30
0.0
  0
SPLINE
  5
4D
330
1F
100
AcDbEntity
  8
drill holes 1800
 62
   250
370
    25
100
AcDbSpline
210
0.0
220
0.0
230
1.0
 70
    11
 71
     3
 72
    17
 73
    13
 74
     0
 42
0.0000000001
 43
0.0000000001
 40
0.0
 40
0.0
 40
0.0
 40
0.0
 40
1.0
 40
1.0
 40
1.0
 40
2.0
 40
2.0
 40
2.0
 40
3.0
 40
3.0
 40
3.0
 40
4.0
 40
4.0
 40
4.0
 40
4.0
 10
493.3865938436672
 20
-865.0510740024873
 30
0.0
 10
493.3867660984415
 20
-862.289485461511
 30
0.0
 10
491.1481430521262
 20
-860.0508624151956
 30
0.0
 10
488.3865545111499
 20
-860.0512069247442
 30
0.0
 10
485.6251382249479
 20
-860.0508624151956
 30
0.0
 10
483.3866874334068
 20
-862.289485461511
 30
0.0
 10
483.3865151786326
 20
-865.0510740024873
 30
0.0
 10
483.3866874334068
 20
-867.8123180339151
 30
0.0
 10
485.6254827344964
 20
-870.0512855897789
 30
0.0
 10
488.3865545111499
 20
-870.0509410802304
 30
0.0
 10
491.1479707973519
 20
-870.0509410802304
 30
0.0
 10
493.3867660984415
 20
-867.8126625434635
 30
0.0
 10
493.3865938436672
 20
-865.0510740024873
 30
0.0
  0
SPLINE
  5
4E
330
1F
100
AcDbEntity
  8
drill holes 1800
 62
   250
370
    25
100
AcDbSpline
210
0.0
220
0.0
230
1.0
 70
    11
 71
     3
 72
    17
 73
    13
 74
     0
 42
0.0000000001
 43
0.0000000001
 40
0.0
 40
0.0
 40
0.0
 40
0.0
 40
1.0
 40
1.0
 40
1.0
 40
2.0
 40
2.0
 40
2.0
 40
3.0
 40
3.0
 40
3.0
 40
4.0
 40
4.0
 40
4.0
 40
4.0
 10
493.3865938436672
 20
-1018.035362158686
 30
0.0
 10
493.3867660984415
 20
-1020.796261680565
 30
0.0
 10
491.1479707973519
 20
-1023.035229236429
 30
0.0
 10
488.3865545111499
 20
-1023.03488472688
 30
0.0
 10
485.6253104797221
 20
-1023.03488472688
 30
0.0
 10
483.3866874334068
 20
-1020.796606190113
 30
0.0
 10
483.3865151786326
 20
-1018.035362158686
 30
0.0
 10
483.3866874334068
 20
-1015.273773617709
 30
0.0
 10
485.6251382249479
 20
-1013.035150571394
 30
0.0
 10
488.3867267659242
 20
-1013.034806061846
 30
0.0
 10
491.1481430521262
 20
-1013.035150571394
 30
0.0
 10
493.3867660984415
 20
-1015.273773617709
 30
0.0
 10
493.3865938436672
 20
-1018.035362158686
 30
0.0
  0
POLYLINE
  5
4F
330
1F
100
AcDbEntity
  8
drill holes 1800
 62
   250
370
    25
100
AcDb2dPolyline
 66
     1
 10
0.0
 20
0.0
 30
0.0
  0
VERTEX
  5
50
330
4F
100
AcDbEntity
  8
drill holes 1800
 62
   250
370
    25
100
AcDbVertex
100
AcDb2dVertex
 10
1100.000040415104
 20
-1089.856645777883
 30
0.0
  0
VERTEX
  5
51
330
4F
100
AcDbEntity
  8
drill holes 1800
 62
   250
370
    25
100
AcDbVertex
100
AcDb2dVertex
 10
1075.000016007292
 20
-1089.85733479698
 30
0.0
  0
VERTEX
  5
52
330
4F
100
AcDbEntity
  8
drill holes 1800
 62
   250
370
    25
100
AcDbVertex
100
AcDb2dVertex
 10
1075.000016007292
 20
-669.8571314514594
 30
0.0
  0
VERTEX
  5
53
330
4F
100
AcDbEntity
  8
drill holes 1800
 62
   250
370
    25
100
AcDbVertex
100
AcDb2dVertex
 10
1099.999695905556
 20
-669.8574759610079
 30
0.0
  0
VERTEX
  5
54
330
4F
100
AcDbEntity
  8
drill holes 1800
 62
   250
370
    25
100
AcDbVertex
100
AcDb2dVertex
 10
1100.000040415104
 20
-1089.856645777883
 30
0.0
  0
SEQEND
  5
55
330
4F
100
AcDbEntity
  8
drill holes 1800
370
    25
  0
SPLINE
  5
56
330
1F
100
AcDbEntity
  8
drill holes 1800
 62
   250
370
    25
100
AcDbSpline
210
0.0
220
0.0
230
1.0
 70
    11
 71
     3
 72
    17
 73
    13
 74
     0
 42
0.0000000001
 43
0.0000000001
 40
0.0
 40
0.0
 40
0.0
 40
0.0
 40
1.0
 40
1.0
 40
1.0
 40
2.0
 40
2.0
 40
2.0
 40
3.0
 40
3.0
 40
3.0
 40
4.0
 40
4.0
 40
4.0
 40
4.0
 10
1093.267290308281
 20
-721.2700139255853
 30
0.0
 10
1093.267290308281
 20
-724.0316024665616
 30
0.0
 10
1091.028495007191
 20
-726.2702255128769
 30
0.0
 10
1088.266906466215
 20
-726.2698810033284
 30
0.0
 10
1085.505662434787
 20
-726.2698810033284
 30
0.0
 10
1083.266867133697
 20
-724.0316024665616
 30
0.0
 10
1083.267211643246
 20
-721.2700139255853
 30
0.0
 10
1083.267039388471
 20
-718.508425384609
 30
0.0
 10
1085.505662434787
 20
-716.2704913573907
 30
0.0
 10
1088.267078720989
 20
-716.2701468478422
 30
0.0
 10
1091.028667261965
 20
-716.2704913573907
 30
0.0
 10
1093.266945798732
 20
-718.5087698941576
 30
0.0
 10
1093.267290308281
 20
-721.2700139255853
 30
0.0
  0
SPLINE
  5
57
330
1F
100
AcDbEntity
  8
drill holes 1800
 62
   250
370
    25
100
AcDbSpline
210
0.0
220
0.0
230
1.0
 70
    11
 71
     3
 72
    17
 73
    13
 74
     0
 42
0.0000000001
 43
0.0000000001
 40
0.0
 40
0.0
 40
0.0
 40
0.0
 40
1.0
 40
1.0
 40
1.0
 40
2.0
 40
2.0
 40
2.0
 40
3.0
 40
3.0
 40
3.0
 40
4.0
 40
4.0
 40
4.0
 40
4.0
 10
1093.266773543958
 20
-865.1451251092346
 30
0.0
 10
1093.266773543958
 20
-862.3835365682584
 30
0.0
 10
1091.028150497642
 20
-860.1452580314915
 30
0.0
 10
1088.26673421144
 20
-860.1452580314915
 30
0.0
 10
1085.505317925238
 20
-860.1452580314915
 30
0.0
 10
1083.266694878923
 20
-862.3835365682584
 30
0.0
 10
1083.266867133697
 20
-865.1447805996861
 30
0.0
 10
1083.266867133697
 20
-867.9067136502109
 30
0.0
 10
1085.505490180013
 20
-870.1449921869777
 30
0.0
 10
1088.26673421144
 20
-870.1449921869777
 30
0.0
 10
1091.028150497642
 20
-870.1449921869777
 30
0.0
 10
1093.266945798732
 20
-867.9063691406624
 30
0.0
 10
1093.266773543958
 20
-865.1451251092346
 30
0.0
  0
SPLINE
  5
58
330
1F
100
AcDbEntity
  8
drill holes 1800
 62
   250
370
    25
100
AcDbSpline
210
0.0
220
0.0
230
1.0
 70
    11
 71
     3
 72
    17
 73
    13
 74
     0
 42
0.0000000001
 43
0.0000000001
 40
0.0
 40
0.0
 40
0.0
 40
0.0
 40
1.0
 40
1.0
 40
1.0
 40
2.0
 40
2.0
 40
2.0
 40
3.0
 40
3.0
 40
3.0
 40
4.0
 40
4.0
 40
4.0
 40
4.0
 10
1093.266945798732
 20
-1018.129068755884
 30
0.0
 10
1093.266601289183
 20
-1020.890657296861
 30
0.0
 10
1091.028150497642
 20
-1023.129280343176
 30
0.0
 10
1088.266906466215
 20
-1023.129280343176
 30
0.0
 10
1085.505490180013
 20
-1023.129280343176
 30
0.0
 10
1083.266867133697
 20
-1020.890657296861
 30
0.0
 10
1083.266522624149
 20
-1018.129413265433
 30
0.0
 10
1083.266867133697
 20
-1015.368169234005
 30
0.0
 10
1085.505490180013
 20
-1013.129201678141
 30
0.0
 10
1088.26673421144
 20
-1013.128857168593
 30
0.0
 10
1091.027978242868
 20
-1013.12954618769
 30
0.0
 10
1093.266945798732
 20
-1015.367824724457
 30
0.0
 10
1093.266945798732
 20
-1018.129068755884
 30
0.0
  0
POLYLINE
  5
59
330
1F
100
AcDbEntity
  8
drill holes 1800
 62
   250
370
    25
100
AcDb2dPolyline
 66
     1
 10
0.0
 20
0.0
 30
0.0
  0
VERTEX
  5
5A
330
59
100
AcDbEntity
  8
drill holes 1800
 62
   250
370
    25
100
AcDbVertex
100
AcDb2dVertex
 10
1702.118670906936
 20
-1089.830463052195
 30
0.0
  0
VERTEX
  5
5B
330
59
100
AcDbEntity
  8
drill holes 1800
 62
   250
370
    25
100
AcDbVertex
100
AcDb2dVertex
 10
1677.118991008672
 20
-1089.830463052195
 30
0.0
  0
VERTEX
  5
5C
330
59
100
AcDbEntity
  8
drill holes 1800
 62
   250
370
    25
100
AcDbVertex
100
AcDb2dVertex
 10
1677.118991008672
 20
-669.8306042162229
 30
0.0
  0
VERTEX
  5
5D
330
59
100
AcDbEntity
  8
drill holes 1800
 62
   250
370
    25
100
AcDbVertex
100
AcDb2dVertex
 10
1702.118326397387
 20
-669.8302597066744
 30
0.0
  0
VERTEX
  5
5E
330
59
100
AcDbEntity
  8
drill holes 1800
 62
   250
370
    25
100
AcDbVertex
100
AcDb2dVertex
 10
1702.118670906936
 20
-1089.830463052195
 30
0.0
  0
SEQEND
  5
5F
330
59
100
AcDbEntity
  8
drill holes 1800
370
    25
  0
SPLINE
  5
60
330
1F
100
AcDbEntity
  8
drill holes 1800
 62
   250
370
    25
100
AcDbSpline
210
0.0
220
0.0
230
1.0
 70
    11
 71
     3
 72
    17
 73
    13
 74
     0
 42
0.0000000001
 43
0.0000000001
 40
0.0
 40
0.0
 40
0.0
 40
0.0
 40
1.0
 40
1.0
 40
1.0
 40
2.0
 40
2.0
 40
2.0
 40
3.0
 40
3.0
 40
3.0
 40
4.0
 40
4.0
 40
4.0
 40
4.0
 10
1695.386265309661
 20
-721.2434866903488
 30
0.0
 10
1695.385231781015
 20
-724.0047307217766
 30
0.0
 10
1693.147642263345
 20
-726.243353768092
 30
0.0
 10
1690.38570921282
 20
-726.243353768092
 30
0.0
 10
1687.624120671844
 20
-726.243353768092
 30
0.0
 10
1685.385842135077
 20
-724.0047307217766
 30
0.0
 10
1685.385842135077
 20
-721.2431421808003
 30
0.0
 10
1685.385497625529
 20
-718.4815536398241
 30
0.0
 10
1687.624465181393
 20
-716.2436196126058
 30
0.0
 10
1690.38570921282
 20
-716.2436196126058
 30
0.0
 10
1693.147297753797
 20
-716.2432751030573
 30
0.0
 10
1695.386265309661
 20
-718.4818981493726
 30
0.0
 10
1695.386265309661
 20
-721.2434866903488
 30
0.0
  0
SPLINE
  5
61
330
1F
100
AcDbEntity
  8
drill holes 1800
 62
   250
370
    25
100
AcDbSpline
210
0.0
220
0.0
230
1.0
 70
    11
 71
     3
 72
    17
 73
    13
 74
     0
 42
0.0000000001
 43
0.0000000001
 40
0.0
 40
0.0
 40
0.0
 40
0.0
 40
1.0
 40
1.0
 40
1.0
 40
2.0
 40
2.0
 40
2.0
 40
3.0
 40
3.0
 40
3.0
 40
4.0
 40
4.0
 40
4.0
 40
4.0
 10
1695.385576290563
 20
-865.1179088549011
 30
0.0
 10
1695.385576290563
 20
-862.3570093330219
 30
0.0
 10
1693.146953244248
 20
-860.1183862867066
 30
0.0
 10
1690.386053722369
 20
-860.1183862867066
 30
0.0
 10
1687.624465181393
 20
-860.1183862867066
 30
0.0
 10
1685.38515311598
 20
-862.3570093330219
 30
0.0
 10
1685.385497625529
 20
-865.1182533644496
 30
0.0
 10
1685.38515311598
 20
-867.8794973958774
 30
0.0
 10
1687.624465181393
 20
-870.1184649517412
 30
0.0
 10
1690.38570921282
 20
-870.1181204421928
 30
0.0
 10
1693.1466087347
 20
-870.1181204421928
 30
0.0
 10
1695.385576290563
 20
-867.8798419054259
 30
0.0
 10
1695.385576290563
 20
-865.1179088549011
 30
0.0
  0
SPLINE
  5
62
330
1F
100
AcDbEntity
  8
drill holes 1800
 62
   250
370
    25
100
AcDbSpline
210
0.0
220
0.0
230
1.0
 70
    11
 71
     3
 72
    17
 73
    13
 74
     0
 42
0.0000000001
 43
0.0000000001
 40
0.0
 40
0.0
 40
0.0
 40
0.0
 40
1.0
 40
1.0
 40
1.0
 40
2.0
 40
2.0
 40
2.0
 40
3.0
 40
3.0
 40
3.0
 40
4.0
 40
4.0
 40
4.0
 40
4.0
 10
1695.385231781015
 20
-1018.102541520648
 30
0.0
 10
1695.385231781015
 20
-1020.863785552076
 30
0.0
 10
1693.146953244248
 20
-1023.102408598391
 30
0.0
 10
1690.386053722369
 20
-1023.102408598391
 30
0.0
 10
1687.624465181393
 20
-1023.102408598391
 30
0.0
 10
1685.38515311598
 20
-1020.863785552076
 30
0.0
 10
1685.38515311598
 20
-1018.102541520648
 30
0.0
 10
1685.385842135077
 20
-1015.340952979672
 30
0.0
 10
1687.624120671844
 20
-1013.102674442905
 30
0.0
 10
1690.38570921282
 20
-1013.102329933356
 30
0.0
 10
1693.1466087347
 20
-1013.101985423808
 30
0.0
 10
1695.385576290563
 20
-1015.340952979672
 30
0.0
 10
1695.385231781015
 20
-1018.102541520648
 30
0.0
  0
POLYLINE
  5
63
330
1F
100
AcDbEntity
  8
drill holes 1800
 62
   250
370
    25
100
AcDb2dPolyline
 66
     1
 10
0.0
 20
0.0
 30
0.0
  0
VERTEX
  5
64
330
63
100
AcDbEntity
  8
drill holes 1800
 62
   250
370
    25
100
AcDbVertex
100
AcDb2dVertex
 10
199.359752011792
 20
-609.9264226448274
 30
0.0
  0
VERTEX
  5
65
330
63
100
AcDbEntity
  8
drill holes 1800
 62
   250
370
    25
100
AcDbVertex
100
AcDb2dVertex
 10
1997.17352923161
 20
-609.9264226448274
 30
0.0
  0
VERTEX
  5
66
330
63
100
AcDbEntity
  8
drill holes 1800
 62
   250
370
    25
100
AcDbVertex
100
AcDb2dVertex
 10
1997.172840212512
 20
-209.9263766293761
 30
0.0
  0
VERTEX
  5
67
330
63
100
AcDbEntity
  8
drill holes 1800
 62
   250
370
    25
100
AcDbVertex
100
AcDb2dVertex
 10
319.1143716650131
 20
-209.9260321198275
 30
0.0
  0
VERTEX
  5
68
330
63
100
AcDbEntity
  8
drill holes 1800
 62
   250
370
    25
100
AcDbVertex
100
AcDb2dVertex
 10
199.359752011792
 20
-609.9264226448274
 30
0.0
  0
SEQEND
  5
69
330
63
100
AcDbEntity
  8
drill holes 1800
370
    25
  0
POLYLINE
  5
6A
330
1F
100
AcDbEntity
  8
drill holes 1800
 62
   250
370
    25
100
AcDb2dPolyline
 66
     1
 10
0.0
 20
0.0
 30
0.0
  0
VERTEX
  5
6B
330
6A
100
AcDbEntity
  8
drill holes 1800
 62
   250
370
    25
100
AcDbVertex
100
AcDb2dVertex
 10
500.1196884600395
 20
-199.9001152386535
 30
0.0
  0
VERTEX
  5
6C
330
6A
100
AcDbEntity
  8
drill holes 1800
 62
   250
370
    25
100
AcDbVertex
100
AcDb2dVertex
 10
475.1200085617756
 20
-199.9001152386535
 30
0.0
  0
VERTEX
  5
6D
330
6A
100
AcDbEntity
  8
drill holes 1800
 62
   250
370
    25
100
AcDbVertex
100
AcDb2dVertex
 10
475.1200085617756
 20
-619.9001463294
 30
0.0
  0
VERTEX
  5
6E
330
6A
100
AcDbEntity
  8
drill holes 1800
 62
   250
370
    25
100
AcDbVertex
100
AcDb2dVertex
 10
500.1196884600395
 20
-619.9001463294
 30
0.0
  0
VERTEX
  5
6F
330
6A
100
AcDbEntity
  8
drill holes 1800
 62
   250
370
    25
100
AcDbVertex
100
AcDb2dVertex
 10
500.1196884600395
 20
-199.9001152386535
 30
0.0
  0
SEQEND
  5
70
330
6A
100
AcDbEntity
  8
drill holes 1800
370
    25
  0
SPLINE
  5
71
330
1F
100
AcDbEntity
  8
drill holes 1800
 62
   250
370
    25
100
AcDbSpline
210
0.0
220
0.0
230
1.0
 70
    11
 71
     3
 72
    17
 73
    13
 74
     0
 42
0.0000000001
 43
0.0000000001
 40
0.0
 40
0.0
 40
0.0
 40
0.0
 40
1.0
 40
1.0
 40
1.0
 40
2.0
 40
2.0
 40
2.0
 40
3.0
 40
3.0
 40
3.0
 40
4.0
 40
4.0
 40
4.0
 40
4.0
 10
493.3871106079901
 20
-568.4867470909512
 30
0.0
 10
493.3869383532158
 20
-565.725847569072
 30
0.0
 10
491.1484875616747
 20
-563.4872245227567
 30
0.0
 10
488.3870712754727
 20
-563.4872245227567
 30
0.0
 10
485.6254827344964
 20
-563.4872245227567
 30
0.0
 10
483.3868596881811
 20
-565.7255030595235
 30
0.0
 10
483.3870319429553
 20
-568.4870916004998
 30
0.0
 10
483.3868596881811
 20
-571.2483356319275
 30
0.0
 10
485.6256549892707
 20
-573.4869586782429
 30
0.0
 10
488.3868990206984
 20
-573.4869586782429
 30
0.0
 10
491.1483153069004
 20
-573.4869586782429
 30
0.0
 10
493.3869383532158
 20
-571.2483356319275
 30
0.0
 10
493.3871106079901
 20
-568.4867470909512
 30
0.0
  0
SPLINE
  5
72
330
1F
100
AcDbEntity
  8
drill holes 1800
 62
   250
370
    25
100
AcDbSpline
210
0.0
220
0.0
230
1.0
 70
    11
 71
     3
 72
    17
 73
    13
 74
     0
 42
0.0000000001
 43
0.0000000001
 40
0.0
 40
0.0
 40
0.0
 40
0.0
 40
1.0
 40
1.0
 40
1.0
 40
2.0
 40
2.0
 40
2.0
 40
3.0
 40
3.0
 40
3.0
 40
4.0
 40
4.0
 40
4.0
 40
4.0
 10
493.3865938436672
 20
-424.6119804168505
 30
0.0
 10
493.3867660984415
 20
-427.3735689578268
 30
0.0
 10
491.1481430521262
 20
-429.6121920041421
 30
0.0
 10
488.3865545111499
 20
-429.6118474945936
 30
0.0
 10
485.6251382249479
 20
-429.6121920041421
 30
0.0
 10
483.3866874334068
 20
-427.3735689578268
 30
0.0
 10
483.3865151786326
 20
-424.6119804168505
 30
0.0
 10
483.3866874334068
 20
-421.8507363854227
 30
0.0
 10
485.6254827344964
 20
-419.6117688295589
 30
0.0
 10
488.3865545111499
 20
-419.6121133391074
 30
0.0
 10
491.1479707973519
 20
-419.6121133391074
 30
0.0
 10
493.3867660984415
 20
-421.8503918758742
 30
0.0
 10
493.3865938436672
 20
-424.6119804168505
 30
0.0
  0
SPLINE
  5
73
330
1F
100
AcDbEntity
  8
drill holes 1800
 62
   250
370
    25
100
AcDbSpline
210
0.0
220
0.0
230
1.0
 70
    11
 71
     3
 72
    17
 73
    13
 74
     0
 42
0.0000000001
 43
0.0000000001
 40
0.0
 40
0.0
 40
0.0
 40
0.0
 40
1.0
 40
1.0
 40
1.0
 40
2.0
 40
2.0
 40
2.0
 40
3.0
 40
3.0
 40
3.0
 40
4.0
 40
4.0
 40
4.0
 40
4.0
 10
493.3865938436672
 20
-271.6276922606521
 30
0.0
 10
493.3867660984415
 20
-268.8667927387729
 30
0.0
 10
491.1479707973519
 20
-266.627825182909
 30
0.0
 10
488.3865545111499
 20
-266.6281696924576
 30
0.0
 10
485.6253104797221
 20
-266.6281696924576
 30
0.0
 10
483.3866874334068
 20
-268.8664482292244
 30
0.0
 10
483.3865151786326
 20
-271.6276922606521
 30
0.0
 10
483.3866874334068
 20
-274.3892808016284
 30
0.0
 10
485.6251382249479
 20
-276.6279038479437
 30
0.0
 10
488.3867267659242
 20
-276.6282483574923
 30
0.0
 10
491.1481430521262
 20
-276.6279038479437
 30
0.0
 10
493.3867660984415
 20
-274.3892808016284
 30
0.0
 10
493.3865938436672
 20
-271.6276922606521
 30
0.0
  0
POLYLINE
  5
74
330
1F
100
AcDbEntity
  8
drill holes 1800
 62
   250
370
    25
100
AcDb2dPolyline
 66
     1
 10
0.0
 20
0.0
 30
0.0
  0
VERTEX
  5
75
330
74
100
AcDbEntity
  8
drill holes 1800
 62
   250
370
    25
100
AcDbVertex
100
AcDb2dVertex
 10
1100.000040415104
 20
-199.8064086414547
 30
0.0
  0
VERTEX
  5
76
330
74
100
AcDbEntity
  8
drill holes 1800
 62
   250
370
    25
100
AcDbVertex
100
AcDb2dVertex
 10
1075.000016007292
 20
-199.8057196223576
 30
0.0
  0
VERTEX
  5
77
330
74
100
AcDbEntity
  8
drill holes 1800
 62
   250
370
    25
100
AcDbVertex
100
AcDb2dVertex
 10
1075.000016007292
 20
-619.8057507131042
 30
0.0
  0
VERTEX
  5
78
330
74
100
AcDbEntity
  8
drill holes 1800
 62
   250
370
    25
100
AcDbVertex
100
AcDb2dVertex
 10
1099.999695905556
 20
-619.8057507131042
 30
0.0
  0
VERTEX
  5
79
330
74
100
AcDbEntity
  8
drill holes 1800
 62
   250
370
    25
100
AcDbVertex
100
AcDb2dVertex
 10
1100.000040415104
 20
-199.8064086414547
 30
0.0
  0
SEQEND
  5
7A
330
74
100
AcDbEntity
  8
drill holes 1800
370
    25
  0
SPLINE
  5
7B
330
1F
100
AcDbEntity
  8
drill holes 1800
 62
   250
370
    25
100
AcDbSpline
210
0.0
220
0.0
230
1.0
 70
    11
 71
     3
 72
    17
 73
    13
 74
     0
 42
0.0000000001
 43
0.0000000001
 40
0.0
 40
0.0
 40
0.0
 40
0.0
 40
1.0
 40
1.0
 40
1.0
 40
2.0
 40
2.0
 40
2.0
 40
3.0
 40
3.0
 40
3.0
 40
4.0
 40
4.0
 40
4.0
 40
4.0
 10
1093.267290308281
 20
-568.3930404937524
 30
0.0
 10
1093.267290308281
 20
-565.6314519527762
 30
0.0
 10
1091.028495007191
 20
-563.3928289064609
 30
0.0
 10
1088.266906466215
 20
-563.3931734160094
 30
0.0
 10
1085.505662434787
 20
-563.3931734160094
 30
0.0
 10
1083.266867133697
 20
-565.6314519527762
 30
0.0
 10
1083.267211643246
 20
-568.3930404937524
 30
0.0
 10
1083.267039388471
 20
-571.1546290347287
 30
0.0
 10
1085.505662434787
 20
-573.392563061947
 30
0.0
 10
1088.267078720989
 20
-573.3929075714956
 30
0.0
 10
1091.028667261965
 20
-573.392563061947
 30
0.0
 10
1093.266945798732
 20
-571.1542845251802
 30
0.0
 10
1093.267290308281
 20
-568.3930404937524
 30
0.0
  0
SPLINE
  5
7C
330
1F
100
AcDbEntity
  8
drill holes 1800
 62
   250
370
    25
100
AcDbSpline
210
0.0
220
0.0
230
1.0
 70
    11
 71
     3
 72
    17
 73
    13
 74
     0
 42
0.0000000001
 43
0.0000000001
 40
0.0
 40
0.0
 40
0.0
 40
0.0
 40
1.0
 40
1.0
 40
1.0
 40
2.0
 40
2.0
 40
2.0
 40
3.0
 40
3.0
 40
3.0
 40
4.0
 40
4.0
 40
4.0
 40
4.0
 10
1093.266773543958
 20
-424.5179293101032
 30
0.0
 10
1093.266773543958
 20
-427.2795178510794
 30
0.0
 10
1091.028150497642
 20
-429.5177963878463
 30
0.0
 10
1088.26673421144
 20
-429.5177963878463
 30
0.0
 10
1085.505317925238
 20
-429.5177963878463
 30
0.0
 10
1083.266694878923
 20
-427.2795178510794
 30
0.0
 10
1083.266867133697
 20
-424.5182738196517
 30
0.0
 10
1083.266867133697
 20
-421.7563407691269
 30
0.0
 10
1085.505490180013
 20
-419.5180622323601
 30
0.0
 10
1088.26673421144
 20
-419.5180622323601
 30
0.0
 10
1091.028150497642
 20
-419.5180622323601
 30
0.0
 10
1093.266945798732
 20
-421.7566852786754
 30
0.0
 10
1093.266773543958
 20
-424.5179293101032
 30
0.0
  0
SPLINE
  5
7D
330
1F
100
AcDbEntity
  8
drill holes 1800
 62
   250
370
    25
100
AcDbSpline
210
0.0
220
0.0
230
1.0
 70
    11
 71
     3
 72
    17
 73
    13
 74
     0
 42
0.0000000001
 43
0.0000000001
 40
0.0
 40
0.0
 40
0.0
 40
0.0
 40
1.0
 40
1.0
 40
1.0
 40
2.0
 40
2.0
 40
2.0
 40
3.0
 40
3.0
 40
3.0
 40
4.0
 40
4.0
 40
4.0
 40
4.0
 10
1093.266945798732
 20
-271.5339856634533
 30
0.0
 10
1093.266601289183
 20
-268.7723971224771
 30
0.0
 10
1091.028150497642
 20
-266.5337740761617
 30
0.0
 10
1088.266906466215
 20
-266.5337740761617
 30
0.0
 10
1085.505490180013
 20
-266.5337740761617
 30
0.0
 10
1083.266867133697
 20
-268.7723971224771
 30
0.0
 10
1083.266522624149
 20
-271.5336411539048
 30
0.0
 10
1083.266867133697
 20
-274.2948851853325
 30
0.0
 10
1085.505490180013
 20
-276.5338527411964
 30
0.0
 10
1088.26673421144
 20
-276.5341972507449
 30
0.0
 10
1091.027978242868
 20
-276.5335082316479
 30
0.0
 10
1093.266945798732
 20
-274.2952296948811
 30
0.0
 10
1093.266945798732
 20
-271.5339856634533
 30
0.0
  0
POLYLINE
  5
7E
330
1F
100
AcDbEntity
  8
drill holes 1800
 62
   250
370
    25
100
AcDb2dPolyline
 66
     1
 10
0.0
 20
0.0
 30
0.0
  0
VERTEX
  5
7F
330
7E
100
AcDbEntity
  8
drill holes 1800
 62
   250
370
    25
100
AcDbVertex
100
AcDb2dVertex
 10
1702.118670906936
 20
-199.8327636219168
 30
0.0
  0
VERTEX
  5
80
330
7E
100
AcDbEntity
  8
drill holes 1800
 62
   250
370
    25
100
AcDbVertex
100
AcDb2dVertex
 10
1677.118991008672
 20
-199.8327636219168
 30
0.0
  0
VERTEX
  5
81
330
7E
100
AcDbEntity
  8
drill holes 1800
 62
   250
370
    25
100
AcDbVertex
100
AcDb2dVertex
 10
1677.118991008672
 20
-619.8326224578891
 30
0.0
  0
VERTEX
  5
82
330
7E
100
AcDbEntity
  8
drill holes 1800
 62
   250
370
    25
100
AcDbVertex
100
AcDb2dVertex
 10
1702.118326397387
 20
-619.8326224578891
 30
0.0
  0
VERTEX
  5
83
330
7E
100
AcDbEntity
  8
drill holes 1800
 62
   250
370
    25
100
AcDbVertex
100
AcDb2dVertex
 10
1702.118670906936
 20
-199.8327636219168
 30
0.0
  0
SEQEND
  5
84
330
7E
100
AcDbEntity
  8
drill holes 1800
370
    25
  0
SPLINE
  5
85
330
1F
100
AcDbEntity
  8
drill holes 1800
 62
   250
370
    25
100
AcDbSpline
210
0.0
220
0.0
230
1.0
 70
    11
 71
     3
 72
    17
 73
    13
 74
     0
 42
0.0000000001
 43
0.0000000001
 40
0.0
 40
0.0
 40
0.0
 40
0.0
 40
1.0
 40
1.0
 40
1.0
 40
2.0
 40
2.0
 40
2.0
 40
3.0
 40
3.0
 40
3.0
 40
4.0
 40
4.0
 40
4.0
 40
4.0
 10
1695.386265309661
 20
-568.4195677289889
 30
0.0
 10
1695.385231781015
 20
-565.6583236975612
 30
0.0
 10
1693.147642263345
 20
-563.4197006512458
 30
0.0
 10
1690.38570921282
 20
-563.4197006512458
 30
0.0
 10
1687.624120671844
 20
-563.4197006512458
 30
0.0
 10
1685.385842135077
 20
-565.6583236975612
 30
0.0
 10
1685.385842135077
 20
-568.4199122385374
 30
0.0
 10
1685.385497625529
 20
-571.1815007795137
 30
0.0
 10
1687.624465181393
 20
-573.4194348067319
 30
0.0
 10
1690.38570921282
 20
-573.4194348067319
 30
0.0
 10
1693.147297753797
 20
-573.4197793162805
 30
0.0
 10
1695.386265309661
 20
-571.1811562699652
 30
0.0
 10
1695.386265309661
 20
-568.4195677289889
 30
0.0
  0
SPLINE
  5
86
330
1F
100
AcDbEntity
  8
drill holes 1800
 62
   250
370
    25
100
AcDbSpline
210
0.0
220
0.0
230
1.0
 70
    11
 71
     3
 72
    17
 73
    13
 74
     0
 42
0.0000000001
 43
0.0000000001
 40
0.0
 40
0.0
 40
0.0
 40
0.0
 40
1.0
 40
1.0
 40
1.0
 40
2.0
 40
2.0
 40
2.0
 40
3.0
 40
3.0
 40
3.0
 40
4.0
 40
4.0
 40
4.0
 40
4.0
 10
1695.385576290563
 20
-424.5451455644367
 30
0.0
 10
1695.385576290563
 20
-427.3060450863159
 30
0.0
 10
1693.146953244248
 20
-429.5446681326312
 30
0.0
 10
1690.386053722369
 20
-429.5446681326312
 30
0.0
 10
1687.624465181393
 20
-429.5446681326312
 30
0.0
 10
1685.38515311598
 20
-427.3060450863159
 30
0.0
 10
1685.385497625529
 20
-424.5448010548881
 30
0.0
 10
1685.38515311598
 20
-421.7835570234604
 30
0.0
 10
1687.624465181393
 20
-419.5445894675965
 30
0.0
 10
1690.38570921282
 20
-419.544933977145
 30
0.0
 10
1693.1466087347
 20
-419.544933977145
 30
0.0
 10
1695.385576290563
 20
-421.7832125139118
 30
0.0
 10
1695.385576290563
 20
-424.5451455644367
 30
0.0
  0
SPLINE
  5
87
330
1F
100
AcDbEntity
  8
drill holes 1800
 62
   250
370
    25
100
AcDbSpline
210
0.0
220
0.0
230
1.0
 70
    11
 71
     3
 72
    17
 73
    13
 74
     0
 42
0.0000000001
 43
0.0000000001
 40
0.0
 40
0.0
 40
0.0
 40
0.0
 40
1.0
 40
1.0
 40
1.0
 40
2.0
 40
2.0
 40
2.0
 40
3.0
 40
3.0
 40
3.0
 40
4.0
 40
4.0
 40
4.0
 40
4.0
 10
1695.385231781015
 20
-271.5605128986898
 30
0.0
 10
1695.385231781015
 20
-268.799268867262
 30
0.0
 10
1693.146953244248
 20
-266.5606458209467
 30
0.0
 10
1690.386053722369
 20
-266.5606458209467
 30
0.0
 10
1687.624465181393
 20
-266.5606458209467
 30
0.0
 10
1685.38515311598
 20
-268.799268867262
 30
0.0
 10
1685.38515311598
 20
-271.5605128986898
 30
0.0
 10
1685.385842135077
 20
-274.322101439666
 30
0.0
 10
1687.624120671844
 20
-276.5603799764328
 30
0.0
 10
1690.38570921282
 20
-276.5607244859814
 30
0.0
 10
1693.1466087347
 20
-276.5610689955299
 30
0.0
 10
1695.385576290563
 20
-274.322101439666
 30
0.0
 10
1695.385231781015
 20
-271.5605128986898
 30
0.0
  0
POLYLINE
  5
88
330
1F
100
AcDbEntity
  8
drill holes 1800
 62
   250
370
    25
100
AcDb2dPolyline
 66
     1
 10
0.0
 20
0.0
 30
0.0
  0
VERTEX
  5
89
330
88
100
AcDbEntity
  8
drill holes 1800
 62
   250
370
    25
100
AcDbVertex
100
AcDb2dVertex
 10
168.2667317287667
 20
-644.6404105376247
 30
0.0
  0
VERTEX
  5
8A
330
88
100
AcDbEntity
  8
drill holes 1800
 62
   250
370
    25
100
AcDbVertex
100
AcDb2dVertex
 10
2018.266815359149
 20
-644.6404105376247
 30
0.0
  0
SEQEND
  5
8B
330
88
100
AcDbEntity
  8
drill holes 1800
370
    25
  0
INSERT
  5
91
330
1F
100
AcDbEntity
  8
1800 outline
100
AcDbBlockReference
  2
block 2
 10
0.0
 20
0.0
 30
0.0
  0
ENDSEC
  0
SECTION
  2
OBJECTS
  0
DICTIONARY
  5
C
330
0
100
AcDbDictionary
281
     1
  3
ACAD_GROUP
350
D
  3
ACAD_LAYOUT
350
1A
  3
ACAD_MLINESTYLE
350
17
  3
ACAD_PLOTSETTINGS
350
19
  3
ACAD_PLOTSTYLENAME
350
E
  3
ACAD_TABLESTYLE
350
94
  3
ACAD_VISUALSTYLE
350
2A
  0
DICTIONARY
  5
D
102
{ACAD_REACTORS
330
C
102
}
330
C
100
AcDbDictionary
281
     1
  0
DICTIONARY
  5
1A
102
{ACAD_REACTORS
330
C
102
}
330
C
100
AcDbDictionary
281
     1
  3
Layout1
350
1E
  3
Layout2
350
26
  3
Model
350
22
  0
DICTIONARY
  5
17
102
{ACAD_REACTORS
330
C
102
}
330
C
100
AcDbDictionary
281
     1
  3
Standard
350
18
  0
DICTIONARY
  5
19
102
{ACAD_REACTORS
330
C
102
}
330
C
100
AcDbDictionary
281
     1
  0
ACDBDICTIONARYWDFLT
  5
E
102
{ACAD_REACTORS
330
C
102
}
330
C
100
AcDbDictionary
281
     1
  3
Normal
350
F
100
AcDbDictionaryWithDefault
340
F
  0
DICTIONARY
  5
94
102
{ACAD_REACTORS
330
C
102
}
330
C
100
AcDbDictionary
281
     1
  0
DICTIONARY
  5
2A
102
{ACAD_REACTORS
330
C
102
}
330
C
100
AcDbDictionary
281
     1
  3
2dWireframe
350
2F
  3
3D Hidden
350
31
  3
3dWireframe
350
30
  3
Basic
350
32
  3
Brighten
350
36
  3
ColorChange
350
3A
  3
Conceptual
350
34
  3
Dim
350
35
  3
Facepattern
350
39
  3
Flat
350
2B
  3
FlatWithEdges
350
2C
  3
Gouraud
350
2D
  3
GouraudWithEdges
350
2E
  3
Linepattern
350
38
  3
Realistic
350
33
  3
Thicken
350
37
  0
LAYOUT
  5
1E
102
{ACAD_REACTORS
330
1A
102
}
330
1A
100
AcDbPlotSettings
  1

  2
none_device
  4

  6

 40
0.0
 41
0.0
 42
0.0
 43
0.0
 44
0.0
 45
0.0
 46
0.0
 47
0.0
 48
0.0
 49
0.0
140
0.0
141
0.0
142
1.0
143
1.0
 70
   688
 72
     0
 73
     0
 74
     5
  7

 75
    16
 76
     0
 77
     2
 78
   300
147
1.0
148
0.0
149
0.0
100
AcDbLayout
  1
Layout1
 70
     1
 71
     1
 10
0.0
 20
0.0
 11
12.0
 21
9.0
 12
0.0
 22
0.0
 32
0.0
 14
1.000000000000000E+20
 24
1.000000000000000E+20
 34
1.000000000000000E+20
 15
-1.000000000000000E+20
 25
-1.000000000000000E+20
 35
-1.000000000000000E+20
146
0.0
 13
0.0
 23
0.0
 33
0.0
 16
1.0
 26
0.0
 36
0.0
 17
0.0
 27
1.0
 37
0.0
 76
     0
330
1B
  0
LAYOUT
  5
26
102
{ACAD_REACTORS
330
1A
102
}
330
1A
100
AcDbPlotSettings
  1

  2
none_device
  4

  6

 40
0.0
 41
0.0
 42
0.0
 43
0.0
 44
0.0
 45
0.0
 46
0.0
 47
0.0
 48
0.0
 49
0.0
140
0.0
141
0.0
142
1.0
143
1.0
 70
   688
 72
     0
 73
     0
 74
     5
  7

 75
    16
 76
     0
 77
     2
 78
   300
147
1.0
148
0.0
149
0.0
100
AcDbLayout
  1
Layout2
 70
     1
 71
     2
 10
0.0
 20
0.0
 11
0.0
 21
0.0
 12
0.0
 22
0.0
 32
0.0
 14
0.0
 24
0.0
 34
0.0
 15
0.0
 25
0.0
 35
0.0
146
0.0
 13
0.0
 23
0.0
 33
0.0
 16
1.0
 26
0.0
 36
0.0
 17
0.0
 27
1.0
 37
0.0
 76
     0
330
23
  0
LAYOUT
  5
22
102
{ACAD_REACTORS
330
1A
102
}
330
1A
100
AcDbPlotSettings
  1

  2
none_device
  4

  6

 40
0.0
 41
0.0
 42
0.0
 43
0.0
 44
0.0
 45
0.0
 46
0.0
 47
0.0
 48
0.0
 49
0.0
140
0.0
141
0.0
142
1.0
143
1.0
 70
  1712
 72
     0
 73
     0
 74
     0
  7

 75
     0
 76
     0
 77
     2
 78
   300
147
1.0
148
0.0
149
0.0
100
AcDbLayout
  1
Model
 70
     1
 71
     0
 10
0.0
 20
0.0
 11
12.0
 21
9.0
 12
0.0
 22
0.0
 32
0.0
 14
1.000000000000000E+20
 24
1.000000000000000E+20
 34
1.000000000000000E+20
 15
-1.000000000000000E+20
 25
-1.000000000000000E+20
 35
-1.000000000000000E+20
146
0.0
 13
0.0
 23
0.0
 33
0.0
 16
1.0
 26
0.0
 36
0.0
 17
0.0
 27
1.0
 37
0.0
 76
     0
330
1F
331
29
  0
MLINESTYLE
  5
18
102
{ACAD_REACTORS
330
17
102
}
330
17
100
AcDbMlineStyle
  2
Standard
 70
     0
  3

 62
   256
 51
90.0
 52
90.0
 71
     2
 49
0.5
 62
   256
  6
BYLAYER
 49
-0.5
 62
   256
  6
BYLAYER
  0
ACDBPLACEHOLDER
  5
F
102
{ACAD_REACTORS
330
E
102
}
330
E
  0
VISUALSTYLE
  5
2F
102
{ACAD_REACTORS
330
2A
102
}
330
2A
100
AcDbVisualStyle
  2
2dWireframe
 70
     4
 71
     0
 72
     2
 73
     0
 90
        0
 40
-0.6
 41
-30.0
 62
     5
 63
     7
421
 16777215
 74
     1
 91
        4
 64
     7
 65
   257
 75
     1
175
     1
 42
1.0
 92
        0
 66
   257
 43
1.0
 76
     1
 77
     6
 78
     2
 67
     7
 79
     5
170
     0
171
     0
290
     0
174
     0
 93
        1
 44
0.0
173
     0
291
     0
 45
0.0
1001
ACAD
1000
AcDbSavedByObjectVersion
1070
     0
  0
VISUALSTYLE
  5
31
102
{ACAD_REACTORS
330
2A
102
}
330
2A
100
AcDbVisualStyle
  2
3D Hidden
 70
     6
 71
     1
 72
     2
 73
     2
 90
        0
 40
-0.6
 41
-30.0
 62
     5
 63
     7
421
 16777215
 74
     2
 91
        2
 64
     7
 65
   257
 75
     2
175
     1
 42
40.0
 92
        0
 66
   257
 43
1.0
 76
     1
 77
     6
 78
     2
 67
     7
 79
     3
170
     0
171
     0
290
     0
174
     0
 93
        1
 44
0.0
173
     0
291
     0
 45
0.0
1001
ACAD
1000
AcDbSavedByObjectVersion
1070
     0
  0
VISUALSTYLE
  5
30
102
{ACAD_REACTORS
330
2A
102
}
330
2A
100
AcDbVisualStyle
  2
3dWireframe
 70
     5
 71
     0
 72
     2
 73
     0
 90
        0
 40
-0.6
 41
-30.0
 62
     5
 63
     7
421
 16777215
 74
     1
 91
        4
 64
     7
 65
   257
 75
     1
175
     1
 42
1.0
 92
        0
 66
   257
 43
1.0
 76
     1
 77
     6
 78
     2
 67
     7
 79
     5
170
     0
171
     0
290
     0
174
     0
 93
        1
 44
0.0
173
     0
291
     0
 45
0.0
1001
ACAD
1000
AcDbSavedByObjectVersion
1070
     0
  0
VISUALSTYLE
  5
32
102
{ACAD_REACTORS
330
2A
102
}
330
2A
100
AcDbVisualStyle
  2
Basic
 70
     7
 71
     1
 72
     0
 73
     1
 90
        0
 40
-0.6
 41
-30.0
 62
     5
 63
     7
421
 16777215
 74
     0
 91
        4
 64
     7
 65
   257
 75
     1
175
     1
 42
1.0
 92
        8
 66
     7
 43
1.0
 76
     1
 77
     6
 78
     2
 67
     7
 79
     5
170
     0
171
     0
290
     0
174
     0
 93
        1
 44
0.0
173
     0
291
     1
 45
0.0
1001
ACAD
1000
AcDbSavedByObjectVersion
1070
     0
  0
VISUALSTYLE
  5
36
102
{ACAD_REACTORS
330
2A
102
}
330
2A
100
AcDbVisualStyle
  2
Brighten
 70
    12
 71
     2
 72
     2
 73
     0
 90
        0
 40
-0.6
 41
-30.0
 62
     5
 63
     7
421
 16777215
 74
     1
 91
        4
 64
     7
 65
   257
 75
     1
175
     1
 42
1.0
 92
        8
 66
     7
 43
1.0
 76
     1
 77
     6
 78
     2
 67
     7
 79
     5
170
     0
171
     0
290
     0
174
     0
 93
        1
 44
50.0
173
     0
291
     1
 45
0.0
1001
ACAD
1000
AcDbSavedByObjectVersion
1070
     0
  0
VISUALSTYLE
  5
3A
102
{ACAD_REACTORS
330
2A
102
}
330
2A
100
AcDbVisualStyle
  2
ColorChange
 70
    16
 71
     2
 72
     2
 73
     3
 90
        0
 40
-0.6
 41
-30.0
 62
     5
 63
     8
421
  8421504
 74
     1
 91
        4
 64
     7
 65
   257
 75
     1
175
     1
 42
1.0
 92
        8
 66
     8
424
  8421504
 43
1.0
 76
     1
 77
     6
 78
     2
 67
     7
 79
     5
170
     0
171
     0
290
     0
174
     0
 93
        1
 44
0.0
173
     0
291
     1
 45
0.0
1001
ACAD
1000
AcDbSavedByObjectVersion
1070
     0
  0
VISUALSTYLE
  5
34
102
{ACAD_REACTORS
330
2A
102
}
330
2A
100
AcDbVisualStyle
  2
Conceptual
 70
     9
 71
     3
 72
     2
 73
     0
 90
        0
 40
-0.6
 41
-30.0
 62
     5
 63
     7
421
 16777215
 74
     2
 91
        2
 64
     7
 65
   257
 75
     1
175
     1
 42
40.0
 92
        8
 66
     7
 43
1.0
 76
     1
 77
     6
 78
     2
 67
     7
 79
     3
170
     0
171
     0
290
     0
174
     0
 93
        1
 44
0.0
173
     0
291
     0
 45
0.0
1001
ACAD
1000
AcDbSavedByObjectVersion
1070
     0
  0
VISUALSTYLE
  5
35
102
{ACAD_REACTORS
330
2A
102
}
330
2A
100
AcDbVisualStyle
  2
Dim
 70
    11
 71
     2
 72
     2
 73
     0
 90
        0
 40
-0.6
 41
-30.0
 62
     5
 63
     7
421
 16777215
 74
     1
 91
        4
 64
     7
 65
   257
 75
     1
175
     1
 42
1.0
 92
        8
 66
     7
 43
1.0
 76
     1
 77
     6
 78
     2
 67
     7
 79
     5
170
     0
171
     0
290
     0
174
     0
 93
        1
 44
-50.0
173
     0
291
     1
 45
0.0
1001
ACAD
1000
AcDbSavedByObjectVersion
1070
     0
  0
VISUALSTYLE
  5
39
102
{ACAD_REACTORS
330
2A
102
}
330
2A
100
AcDbVisualStyle
  2
Facepattern
 70
    15
 71
     2
 72
     2
 73
     0
 90
        0
 40
-0.6
 41
-30.0
 62
     5
 63
     7
421
 16777215
 74
     1
 91
        4
 64
     7
 65
   257
 75
     1
175
     1
 42
1.0
 92
        8
 66
     7
 43
1.0
 76
     1
 77
     6
 78
     2
 67
     7
 79
     5
170
     0
171
     0
290
     0
174
     0
 93
        1
 44
0.0
173
     0
291
     1
 45
0.0
1001
ACAD
1000
AcDbSavedByObjectVersion
1070
     0
  0
VISUALSTYLE
  5
2B
102
{ACAD_REACTORS
330
2A
102
}
330
2A
100
AcDbVisualStyle
  2
Flat
 70
     0
 71
     2
 72
     1
 73
     1
 90
        2
 40
-0.6
 41
30.0
 62
     5
 63
     7
421
 16777215
 74
     0
 91
        4
 64
     7
 65
   257
 75
     1
175
     1
 42
1.0
 92
        8
 66
     7
 43
1.0
 76
     1
 77
     6
 78
     2
 67
     7
 79
     5
170
     0
171
     0
290
     0
174
     0
 93
       13
 44
0.0
173
     0
291
     1
 45
0.0
1001
ACAD
1000
AcDbSavedByObjectVersion
1070
     0
  0
VISUALSTYLE
  5
2C
102
{ACAD_REACTORS
330
2A
102
}
330
2A
100
AcDbVisualStyle
  2
FlatWithEdges
 70
     1
 71
     2
 72
     1
 73
     1
 90
        2
 40
-0.6
 41
30.0
 62
     5
 63
     7
421
 16777215
 74
     1
 91
        4
 64
     7
 65
   257
 75
     1
175
     1
 42
1.0
 92
        0
 66
   257
 43
1.0
 76
     1
 77
     6
 78
     2
 67
     7
 79
     5
170
     0
171
     0
290
     0
174
     0
 93
       13
 44
0.0
173
     0
291
     1
 45
0.0
1001
ACAD
1000
AcDbSavedByObjectVersion
1070
     0
  0
VISUALSTYLE
  5
2D
102
{ACAD_REACTORS
330
2A
102
}
330
2A
100
AcDbVisualStyle
  2
Gouraud
 70
     2
 71
     2
 72
     2
 73
     1
 90
        2
 40
-0.6
 41
30.0
 62
     5
 63
     7
421
 16777215
 74
     0
 91
        4
 64
     7
 65
   257
 75
     1
175
     1
 42
1.0
 92
        0
 66
     7
 43
1.0
 76
     1
 77
     6
 78
     2
 67
     7
 79
     5
170
     0
171
     0
290
     0
174
     0
 93
       13
 44
0.0
173
     0
291
     1
 45
0.0
1001
ACAD
1000
AcDbSavedByObjectVersion
1070
     0
  0
VISUALSTYLE
  5
2E
102
{ACAD_REACTORS
330
2A
102
}
330
2A
100
AcDbVisualStyle
  2
GouraudWithEdges
 70
     3
 71
     2
 72
     2
 73
     1
 90
        2
 40
-0.6
 41
30.0
 62
     5
 63
     7
421
 16777215
 74
     1
 91
        4
 64
     7
 65
   257
 75
     1
175
     1
 42
1.0
 92
        0
 66
   257
 43
1.0
 76
     1
 77
     6
 78
     2
 67
     7
 79
     5
170
     0
171
     0
290
     0
174
     0
 93
       13
 44
0.0
173
     0
291
     1
 45
0.0
1001
ACAD
1000
AcDbSavedByObjectVersion
1070
     0
  0
VISUALSTYLE
  5
38
102
{ACAD_REACTORS
330
2A
102
}
330
2A
100
AcDbVisualStyle
  2
Linepattern
 70
    14
 71
     2
 72
     2
 73
     0
 90
        0
 40
-0.6
 41
-30.0
 62
     5
 63
     7
421
 16777215
 74
     1
 91
        4
 64
     7
 65
   257
 75
     7
175
     7
 42
1.0
 92
        8
 66
     7
 43
1.0
 76
     1
 77
     6
 78
     2
 67
     7
 79
     5
170
     0
171
     0
290
     0
174
     0
 93
        1
 44
0.0
173
     0
291
     1
 45
0.0
1001
ACAD
1000
AcDbSavedByObjectVersion
1070
     0
  0
VISUALSTYLE
  5
33
102
{ACAD_REACTORS
330
2A
102
}
330
2A
100
AcDbVisualStyle
  2
Realistic
 70
     8
 71
     2
 72
     2
 73
     0
 90
        0
 40
-0.6
 41
-30.0
 62
     5
 63
     7
421
 16777215
 74
     1
 91
        0
 64
     7
 65
   257
 75
     1
175
     1
 42
1.0
 92
        8
 66
     8
424
  7895160
 43
1.0
 76
     1
 77
     6
 78
     2
 67
     7
 79
     5
170
     0
171
     0
290
     0
174
     0
 93
       13
 44
0.0
173
     0
291
     0
 45
0.0
1001
ACAD
1000
AcDbSavedByObjectVersion
1070
     0
  0
VISUALSTYLE
  5
37
102
{ACAD_REACTORS
330
2A
102
}
330
2A
100
AcDbVisualStyle
  2
Thicken
 70
    13
 71
     2
 72
     2
 73
     0
 90
        0
 40
-0.6
 41
-30.0
 62
     5
 63
     7
421
 16777215
 74
     1
 91
        4
 64
     7
 65
   257
 75
     1
175
     1
 42
1.0
 92
       12
 66
     7
 43
1.0
 76
     1
 77
     6
 78
     2
 67
     7
 79
     5
170
     0
171
     0
290
     0
174
     0
 93
        1
 44
0.0
173
     0
291
     1
 45
0.0
1001
ACAD
1000
AcDbSavedByObjectVersion
1070
     0
  0
ENDSEC
  0
EOF
