  0
SECTION
  2
HEADER
  9
$ACADVER
  1
AC1018
  9
$ACADMAINTVER
 70
     0
  9
$DWGCODEPAGE
  3
ANSI_1252
  9
$INSBASE
 10
0.0
 20
0.0
 30
0.0
  9
$EXTMIN
 10
1.000000000000000E+20
 20
1.000000000000000E+20
 30
1.000000000000000E+20
  9
$EXTMAX
 10
-1.000000000000000E+20
 20
-1.000000000000000E+20
 30
-1.000000000000000E+20
  9
$LIMMIN
 10
0.0
 20
0.0
  9
$LIMMAX
 10
12.0
 20
9.0
  9
$ORTHOMODE
 70
     0
  9
$REGENMODE
 70
     1
  9
$FILLMODE
 70
     1
  9
$QTEXTMODE
 70
     0
  9
$MIRRTEXT
 70
     1
  9
$LTSCALE
 40
1.0
  9
$ATTMODE
 70
     1
  9
$TEXTSIZE
 40
0.2
  9
$TRACEWID
 40
0.05
  9
$TEXTSTYLE
  7
Standard
  9
$CLAYER
  8
0
  9
$CELTYPE
  6
ByLayer
  9
$CECOLOR
 62
   256
  9
$CELTSCALE
 40
1.0
  9
$DISPSILH
 70
     0
  9
$DIMSCALE
 40
1.0
  9
$DIMASZ
 40
0.18
  9
$DIMEXO
 40
0.0625
  9
$DIMDLI
 40
0.38
  9
$DIMRND
 40
0.0
  9
$DIMDLE
 40
0.0
  9
$DIMEXE
 40
0.18
  9
$DIMTP
 40
0.0
  9
$DIMTM
 40
0.0
  9
$DIMTXT
 40
0.18
  9
$DIMCEN
 40
0.09
  9
$DIMTSZ
 40
0.0
  9
$DIMTOL
 70
     0
  9
$DIMLIM
 70
     0
  9
$DIMTIH
 70
     1
  9
$DIMTOH
 70
     1
  9
$DIMSE1
 70
     0
  9
$DIMSE2
 70
     0
  9
$DIMTAD
 70
     0
  9
$DIMZIN
 70
     0
  9
$DIMBLK
  1

  9
$DIMASO
 70
     1
  9
$DIMSHO
 70
     1
  9
$DIMPOST
  1

  9
$DIMAPOST
  1

  9
$DIMALT
 70
     0
  9
$DIMALTD
 70
     2
  9
$DIMALTF
 40
25.4
  9
$DIMLFAC
 40
1.0
  9
$DIMTOFL
 70
     0
  9
$DIMTVP
 40
0.0
  9
$DIMTIX
 70
     0
  9
$DIMSOXD
 70
     0
  9
$DIMSAH
 70
     0
  9
$DIMBLK1
  1

  9
$DIMBLK2
  1

  9
$DIMSTYLE
  2
Standard
  9
$DIMCLRD
 70
     0
  9
$DIMCLRE
 70
     0
  9
$DIMCLRT
 70
     0
  9
$DIMTFAC
 40
1.0
  9
$DIMGAP
 40
0.09
  9
$DIMJUST
 70
     0
  9
$DIMSD1
 70
     0
  9
$DIMSD2
 70
     0
  9
$DIMTOLJ
 70
     1
  9
$DIMTZIN
 70
     0
  9
$DIMALTZ
 70
     0
  9
$DIMALTTZ
 70
     0
  9
$DIMUPT
 70
     0
  9
$DIMDEC
 70
     4
  9
$DIMTDEC
 70
     4
  9
$DIMALTU
 70
     2
  9
$DIMALTTD
 70
     2
  9
$DIMTXSTY
  7
Standard
  9
$DIMAUNIT
 70
     0
  9
$DIMADEC
 70
     0
  9
$DIMALTRND
 40
0.0
  9
$DIMAZIN
 70
     0
  9
$DIMDSEP
 70
    46
  9
$DIMATFIT
 70
     3
  9
$DIMFRAC
 70
     0
  9
$DIMLDRBLK
  1

  9
$DIMLUNIT
 70
     2
  9
$DIMLWD
 70
    -2
  9
$DIMLWE
 70
    -2
  9
$DIMTMOVE
 70
     0
  9
$LUNITS
 70
     2
  9
$LUPREC
 70
     4
  9
$SKETCHINC
 40
0.1
  9
$FILLETRAD
 40
0.5
  9
$AUNITS
 70
     0
  9
$AUPREC
 70
     0
  9
$MENU
  1
.
  9
$ELEVATION
 40
0.0
  9
$PELEVATION
 40
0.0
  9
$THICKNESS
 40
0.0
  9
$LIMCHECK
 70
     0
  9
$CHAMFERA
 40
0.5
  9
$CHAMFERB
 40
0.5
  9
$CHAMFERC
 40
1.0
  9
$CHAMFERD
 40
0.0
  9
$SKPOLY
 70
     0
  9
$TDCREATE
 40
2456228.669205486
  9
$TDUCREATE
 40
2456228.127538819
  9
$TDUPDATE
 40
2456228.669205497
  9
$TDUUPDATE
 40
2456228.127538831
  9
$TDINDWG
 40
0.0000000116
  9
$TDUSRTIMER
 40
0.0000000116
  9
$USRTIMER
 70
     1
  9
$ANGBASE
 50
0.0
  9
$ANGDIR
 70
     0
  9
$PDMODE
 70
     0
  9
$PDSIZE
 40
0.0
  9
$PLINEWID
 40
0.0
  9
$SPLFRAME
 70
     0
  9
$SPLINETYPE
 70
     6
  9
$SPLINESEGS
 70
     8
  9
$HANDSEED
  5
86
  9
$SURFTAB1
 70
     6
  9
$SURFTAB2
 70
     6
  9
$SURFTYPE
 70
     6
  9
$SURFU
 70
     6
  9
$SURFV
 70
     6
  9
$UCSBASE
  2

  9
$UCSNAME
  2

  9
$UCSORG
 10
0.0
 20
0.0
 30
0.0
  9
$UCSXDIR
 10
1.0
 20
0.0
 30
0.0
  9
$UCSYDIR
 10
0.0
 20
1.0
 30
0.0
  9
$UCSORTHOREF
  2

  9
$UCSORTHOVIEW
 70
     0
  9
$UCSORGTOP
 10
0.0
 20
0.0
 30
0.0
  9
$UCSORGBOTTOM
 10
0.0
 20
0.0
 30
0.0
  9
$UCSORGLEFT
 10
0.0
 20
0.0
 30
0.0
  9
$UCSORGRIGHT
 10
0.0
 20
0.0
 30
0.0
  9
$UCSORGFRONT
 10
0.0
 20
0.0
 30
0.0
  9
$UCSORGBACK
 10
0.0
 20
0.0
 30
0.0
  9
$PUCSBASE
  2

  9
$PUCSNAME
  2

  9
$PUCSORG
 10
0.0
 20
0.0
 30
0.0
  9
$PUCSXDIR
 10
1.0
 20
0.0
 30
0.0
  9
$PUCSYDIR
 10
0.0
 20
1.0
 30
0.0
  9
$PUCSORTHOREF
  2

  9
$PUCSORTHOVIEW
 70
     0
  9
$PUCSORGTOP
 10
0.0
 20
0.0
 30
0.0
  9
$PUCSORGBOTTOM
 10
0.0
 20
0.0
 30
0.0
  9
$PUCSORGLEFT
 10
0.0
 20
0.0
 30
0.0
  9
$PUCSORGRIGHT
 10
0.0
 20
0.0
 30
0.0
  9
$PUCSORGFRONT
 10
0.0
 20
0.0
 30
0.0
  9
$PUCSORGBACK
 10
0.0
 20
0.0
 30
0.0
  9
$USERI1
 70
     0
  9
$USERI2
 70
     0
  9
$USERI3
 70
     0
  9
$USERI4
 70
     0
  9
$USERI5
 70
     0
  9
$USERR1
 40
0.0
  9
$USERR2
 40
0.0
  9
$USERR3
 40
0.0
  9
$USERR4
 40
0.0
  9
$USERR5
 40
0.0
  9
$WORLDVIEW
 70
     1
  9
$SHADEDGE
 70
     3
  9
$SHADEDIF
 70
    70
  9
$TILEMODE
 70
     1
  9
$MAXACTVP
 70
    64
  9
$PINSBASE
 10
0.0
 20
0.0
 30
0.0
  9
$PLIMCHECK
 70
     0
  9
$PEXTMIN
 10
1.000000000000000E+20
 20
1.000000000000000E+20
 30
1.000000000000000E+20
  9
$PEXTMAX
 10
-1.000000000000000E+20
 20
-1.000000000000000E+20
 30
-1.000000000000000E+20
  9
$PLIMMIN
 10
0.0
 20
0.0
  9
$PLIMMAX
 10
12.0
 20
9.0
  9
$UNITMODE
 70
     0
  9
$VISRETAIN
 70
     1
  9
$PLINEGEN
 70
     0
  9
$PSLTSCALE
 70
     1
  9
$TREEDEPTH
 70
  3020
  9
$CMLSTYLE
  2
Standard
  9
$CMLJUST
 70
     0
  9
$CMLSCALE
 40
1.0
  9
$PROXYGRAPHICS
 70
     1
  9
$MEASUREMENT
 70
     0
  9
$CELWEIGHT
370
    -1
  9
$ENDCAPS
280
     0
  9
$JOINSTYLE
280
     0
  9
$LWDISPLAY
290
     1
  9
$INSUNITS
 70
     1
  9
$HYPERLINKBASE
  1

  9
$STYLESHEET
  1

  9
$XEDIT
290
     1
  9
$CEPSNTYPE
380
     0
  9
$PSTYLEMODE
290
     1
  9
$FINGERPRINTGUID
  2
{54D563B9-4713-4F33-B251-3B87BCD06C8D}
  9
$VERSIONGUID
  2
{FAEB1C32-E019-11D5-929B-00C0DF256EC4}
  9
$EXTNAMES
290
     1
  9
$PSVPSCALE
 40
0.0
  9
$OLESTARTUP
290
     0
  9
$SORTENTS
280
   127
  9
$INDEXCTL
280
     0
  9
$HIDETEXT
280
     1
  9
$XCLIPFRAME
290
     0
  9
$HALOGAP
280
     0
  9
$OBSCOLOR
 70
   257
  9
$OBSLTYPE
280
     0
  9
$INTERSECTIONDISPLAY
280
     0
  9
$INTERSECTIONCOLOR
 70
   257
  9
$DIMASSOC
280
     2
  9
$PROJECTNAME
  1

  0
ENDSEC
  0
SECTION
  2
CLASSES
  0
CLASS
  1
ACDBDICTIONARYWDFLT
  2
AcDbDictionaryWithDefault
  3
ObjectDBX Classes
 90
        0
 91
        3
280
     0
281
     0
  0
CLASS
  1
VISUALSTYLE
  2
AcDbVisualStyle
  3
ObjectDBX Classes
 90
     4095
 91
        3
280
     0
281
     0
  0
ENDSEC
  0
SECTION
  2
TABLES
  0
TABLE
  2
VPORT
  5
8
330
0
100
AcDbSymbolTable
 70
     1
  0
VPORT
  5
29
330
8
100
AcDbSymbolTableRecord
100
AcDbViewportTableRecord
  2
*Active
 70
     0
 10
0.0
 20
0.0
 11
1.0
 21
1.0
 12
0.0
 22
0.0
 13
0.0
 23
0.0
 14
0.5
 24
0.5
 15
0.5
 25
0.5
 16
0.0
 26
0.0
 36
1.0
 17
1236.988405723739
 27
-604.4941099562984
 37
0.0
 40
1200.000310301129
 41
1.999999712908783
 42
50.0
 43
0.0
 44
0.0
 50
0.0
 51
0.0
 71
     0
 72
   100
 73
     1
 74
     3
 75
     0
 76
     0
 77
     0
 78
     0
281
     0
 65
     1
110
0.0
120
0.0
130
0.0
111
1.0
121
0.0
131
0.0
112
0.0
122
1.0
132
0.0
 79
     0
146
0.0
  0
ENDTAB
  0
TABLE
  2
LTYPE
  5
5
330
0
100
AcDbSymbolTable
 70
     1
  0
LTYPE
  5
14
330
5
100
AcDbSymbolTableRecord
100
AcDbLinetypeTableRecord
  2
ByBlock
 70
     0
  3

 72
    65
 73
     0
 40
0.0
  0
LTYPE
  5
15
330
5
100
AcDbSymbolTableRecord
100
AcDbLinetypeTableRecord
  2
ByLayer
 70
     0
  3

 72
    65
 73
     0
 40
0.0
  0
LTYPE
  5
16
330
5
100
AcDbSymbolTableRecord
100
AcDbLinetypeTableRecord
  2
Continuous
 70
     0
  3
Solid line
 72
    65
 73
     0
 40
0.0
  0
ENDTAB
  0
TABLE
  2
LAYER
  5
2
330
0
100
AcDbSymbolTable
 70
     4
  0
LAYER
  5
10
330
2
100
AcDbSymbolTableRecord
100
AcDbLayerTableRecord
  2
0
 70
     0
 62
     7
  6
Continuous
370
    -3
390
F
  0
LAYER
  5
3B
330
2
100
AcDbSymbolTableRecord
100
AcDbLayerTableRecord
  2
drill holes 1200
 70
     0
 62
     7
  6
Continuous
370
    -3
390
F
  0
LAYER
  5
3C
330
2
100
AcDbSymbolTableRecord
100
AcDbLayerTableRecord
  2
1200s saligna
 70
     0
 62
     7
  6
Continuous
370
    -3
390
F
  0
LAYER
  5
3D
330
2
100
AcDbSymbolTableRecord
100
AcDbLayerTableRecord
  2
1200s tas
 70
     0
 62
     7
  6
Continuous
370
    -3
390
F
  0
ENDTAB
  0
TABLE
  2
STYLE
  5
3
330
0
100
AcDbSymbolTable
 70
     1
  0
STYLE
  5
11
330
3
100
AcDbSymbolTableRecord
100
AcDbTextStyleTableRecord
  2
Standard
 70
     0
 40
0.0
 41
1.0
 50
0.0
 71
     0
 42
0.2
  3
txt
  4

  0
ENDTAB
  0
TABLE
  2
VIEW
  5
6
330
0
100
AcDbSymbolTable
 70
     0
  0
ENDTAB
  0
TABLE
  2
UCS
  5
7
330
0
100
AcDbSymbolTable
 70
     0
  0
ENDTAB
  0
TABLE
  2
APPID
  5
9
330
0
100
AcDbSymbolTable
 70
     1
  0
APPID
  5
12
330
9
100
AcDbSymbolTableRecord
100
AcDbRegAppTableRecord
  2
ACAD
 70
     0
  0
ENDTAB
  0
TABLE
  2
DIMSTYLE
  5
A
330
0
100
AcDbSymbolTable
 70
     1
100
AcDbDimStyleTable
  0
DIMSTYLE
105
27
330
A
100
AcDbSymbolTableRecord
100
AcDbDimStyleTableRecord
  2
Standard
 70
     0
340
11
  0
ENDTAB
  0
TABLE
  2
BLOCK_RECORD
  5
1
330
0
100
AcDbSymbolTable
 70
     1
  0
BLOCK_RECORD
  5
1F
330
1
100
AcDbSymbolTableRecord
100
AcDbBlockTableRecord
  2
*Model_Space
340
22
  0
BLOCK_RECORD
  5
1B
330
1
100
AcDbSymbolTableRecord
100
AcDbBlockTableRecord
  2
*Paper_Space
340
1E
  0
BLOCK_RECORD
  5
23
330
1
100
AcDbSymbolTableRecord
100
AcDbBlockTableRecord
  2
*Paper_Space0
340
26
  0
ENDTAB
  0
ENDSEC
  0
SECTION
  2
BLOCKS
  0
BLOCK
  5
20
330
1F
100
AcDbEntity
  8
0
100
AcDbBlockBegin
  2
*Model_Space
 70
     0
 71
     0
 10
0.0
 20
0.0
 30
0.0
  3
*Model_Space
  1

  0
ENDBLK
  5
21
330
1F
100
AcDbEntity
  8
0
100
AcDbBlockEnd
  0
BLOCK
  5
1C
330
1B
100
AcDbEntity
 67
     1
  8
0
100
AcDbBlockBegin
  2
*Paper_Space
 70
     0
 71
     0
 10
0.0
 20
0.0
 30
0.0
  3
*Paper_Space
  1

  0
ENDBLK
  5
1D
330
1B
100
AcDbEntity
 67
     1
  8
0
100
AcDbBlockEnd
  0
BLOCK
  5
24
330
23
100
AcDbEntity
  8
0
100
AcDbBlockBegin
  2
*Paper_Space0
 70
     0
 71
     0
 10
0.0
 20
0.0
 30
0.0
  3
*Paper_Space0
  1

  0
ENDBLK
  5
25
330
23
100
AcDbEntity
  8
0
100
AcDbBlockEnd
  0
ENDSEC
  0
SECTION
  2
ENTITIES
  0
POLYLINE
  5
3E
330
1F
100
AcDbEntity
  8
1200s tas
 62
   250
370
    25
100
AcDb2dPolyline
 66
     1
 10
0.0
 20
0.0
 30
0.0
  0
VERTEX
  5
3F
330
3E
100
AcDbEntity
  8
1200s tas
 62
   250
370
    25
100
AcDbVertex
100
AcDb2dVertex
 10
2408.311568950874
 20
-632.930186473712
 30
0.0
  0
VERTEX
  5
40
330
3E
100
AcDbEntity
  8
1200s tas
 62
   250
370
    25
100
AcDbVertex
100
AcDb2dVertex
 10
578.7398680193776
 20
-640.5121526176498
 30
0.0
  0
SEQEND
  5
41
330
3E
100
AcDbEntity
  8
1200s tas
370
    25
  0
POLYLINE
  5
42
330
1F
100
AcDbEntity
  8
1200s tas
 62
   250
370
    25
100
AcDb2dPolyline
 66
     1
 10
0.0
 20
0.0
 30
0.0
  0
VERTEX
  5
43
330
42
100
AcDbEntity
  8
1200s tas
 62
   250
370
    25
100
AcDbVertex
100
AcDb2dVertex
 10
578.7398680193776
 20
-555.5121729839518
 30
0.0
  0
VERTEX
  5
44
330
42
100
AcDbEntity
  8
1200s tas
 62
   250
370
    25
100
AcDbVertex
100
AcDb2dVertex
 10
2408.311568950874
 20
-563.0655448353621
 30
0.0
  0
SEQEND
  5
45
330
42
100
AcDbEntity
  8
1200s tas
370
    25
  0
POLYLINE
  5
46
330
1F
100
AcDbEntity
  8
1200s tas
 62
   250
370
    25
100
AcDb2dPolyline
 66
     1
 10
0.0
 20
0.0
 30
0.0
  0
VERTEX
  5
47
330
46
100
AcDbEntity
  8
1200s tas
 62
   250
370
    25
100
AcDbVertex
100
AcDb2dVertex
 10
2408.311568950874
 20
-489.436619615054
 30
0.0
  0
VERTEX
  5
48
330
46
100
AcDbEntity
  8
1200s tas
 62
   250
370
    25
100
AcDbVertex
100
AcDb2dVertex
 10
578.3164657842403
 20
-460.2873222048067
 30
0.0
  0
SEQEND
  5
49
330
46
100
AcDbEntity
  8
1200s tas
370
    25
  0
POLYLINE
  5
4A
330
1F
100
AcDbEntity
  8
1200s tas
 62
   250
370
    25
100
AcDb2dPolyline
 66
     1
 10
0.0
 20
0.0
 30
0.0
  0
VERTEX
  5
4B
330
4A
100
AcDbEntity
  8
1200s tas
 62
   250
370
    25
100
AcDbVertex
100
AcDb2dVertex
 10
580.0224770685361
 20
-375.3047403033092
 30
0.0
  0
VERTEX
  5
4C
330
4A
100
AcDbEntity
  8
1200s tas
 62
   250
370
    25
100
AcDbVertex
100
AcDb2dVertex
 10
2408.311568950874
 20
-419.5573363208919
 30
0.0
  0
SEQEND
  5
4D
330
4A
100
AcDbEntity
  8
1200s tas
370
    25
  0
POLYLINE
  5
4E
330
1F
100
AcDbEntity
  8
1200s tas
 62
   250
370
    25
100
AcDb2dPolyline
 66
     1
 10
0.0
 20
0.0
 30
0.0
  0
VERTEX
  5
4F
330
4E
100
AcDbEntity
  8
1200s tas
 62
   250
370
    25
100
AcDbVertex
100
AcDb2dVertex
 10
2408.311568950874
 20
-776.4618216374818
 30
0.0
  0
VERTEX
  5
50
330
4E
100
AcDbEntity
  8
1200s tas
 62
   250
370
    25
100
AcDbVertex
100
AcDb2dVertex
 10
580.0228215780846
 20
-820.7430119475921
 30
0.0
  0
SEQEND
  5
51
330
4E
100
AcDbEntity
  8
1200s tas
370
    25
  0
POLYLINE
  5
52
330
1F
100
AcDbEntity
  8
1200s tas
 62
   250
370
    25
100
AcDb2dPolyline
 66
     1
 10
0.0
 20
0.0
 30
0.0
  0
VERTEX
  5
53
330
52
100
AcDbEntity
  8
1200s tas
 62
   250
370
    25
100
AcDbVertex
100
AcDb2dVertex
 10
578.3168102937889
 20
-735.7600855365462
 30
0.0
  0
VERTEX
  5
54
330
52
100
AcDbEntity
  8
1200s tas
 62
   250
370
    25
100
AcDbVertex
100
AcDb2dVertex
 10
2408.311568950874
 20
-706.5825383433197
 30
0.0
  0
SEQEND
  5
55
330
52
100
AcDbEntity
  8
1200s tas
370
    25
  0
POLYLINE
  5
56
330
1F
100
AcDbEntity
  8
1200s tas
 62
   250
370
    25
100
AcDb2dPolyline
 66
     1
 10
0.0
 20
0.0
 30
0.0
  0
VERTEX
  5
57
330
56
100
AcDbEntity
  8
1200s tas
 62
   250
370
    25
100
AcDbVertex
100
AcDb2dVertex
 10
2408.316047575005
 20
-354.697040384416
 30
0.0
  0
VERTEX
  5
58
330
56
100
AcDbEntity
  8
1200s tas
 62
   250
370
    25
100
AcDbVertex
100
AcDb2dVertex
 10
578.5011229022498
 20
-288.797875904363
 30
0.0
  0
SEQEND
  5
59
330
56
100
AcDbEntity
  8
1200s tas
370
    25
  0
POLYLINE
  5
5A
330
1F
100
AcDbEntity
  8
1200s tas
 62
   250
370
    25
100
AcDb2dPolyline
 66
     1
 10
0.0
 20
0.0
 30
0.0
  0
VERTEX
  5
5B
330
5A
100
AcDbEntity
  8
1200s tas
 62
   250
370
    25
100
AcDbVertex
100
AcDb2dVertex
 10
581.9124564517441
 20
-203.8666259255959
 30
0.0
  0
VERTEX
  5
5C
330
5A
100
AcDbEntity
  8
1200s tas
 62
   250
370
    25
100
AcDbVertex
100
AcDb2dVertex
 10
2408.311568950874
 20
-284.7762436896567
 30
0.0
  0
SEQEND
  5
5D
330
5A
100
AcDbEntity
  8
1200s tas
370
    25
  0
POLYLINE
  5
5E
330
1F
100
AcDbEntity
  8
1200s tas
 62
   250
370
    25
100
AcDb2dPolyline
 66
     1
 10
0.0
 20
0.0
 30
0.0
  0
VERTEX
  5
5F
330
5E
100
AcDbEntity
  8
1200s tas
 62
   250
370
    25
100
AcDbVertex
100
AcDb2dVertex
 10
2408.311568950874
 20
-881.2568031651025
 30
0.0
  0
VERTEX
  5
60
330
5E
100
AcDbEntity
  8
1200s tas
 62
   250
370
    25
100
AcDbVertex
100
AcDb2dVertex
 10
581.9131454708412
 20
-962.1944984573681
 30
0.0
  0
SEQEND
  5
61
330
5E
100
AcDbEntity
  8
1200s tas
370
    25
  0
POLYLINE
  5
62
330
1F
100
AcDbEntity
  8
1200s tas
 62
   250
370
    25
100
AcDb2dPolyline
 66
     1
 10
0.0
 20
0.0
 30
0.0
  0
VERTEX
  5
63
330
62
100
AcDbEntity
  8
1200s tas
 62
   250
370
    25
100
AcDbVertex
100
AcDb2dVertex
 10
578.5021564308953
 20
-907.2493595822154
 30
0.0
  0
VERTEX
  5
64
330
62
100
AcDbEntity
  8
1200s tas
 62
   250
370
    25
100
AcDbVertex
100
AcDb2dVertex
 10
2408.311568950874
 20
-841.3219453191834
 30
0.0
  0
SEQEND
  5
65
330
62
100
AcDbEntity
  8
1200s tas
370
    25
  0
POLYLINE
  5
66
330
1F
100
AcDbEntity
  8
1200s tas
 62
   250
370
    25
100
AcDb2dPolyline
 66
     1
 10
0.0
 20
0.0
 30
0.0
  0
VERTEX
  5
67
330
66
100
AcDbEntity
  8
1200s tas
 62
   250
370
    25
100
AcDbVertex
100
AcDb2dVertex
 10
578.7398680193776
 20
-661.6791637885733
 30
0.0
  0
VERTEX
  5
68
330
66
100
AcDbEntity
  8
1200s tas
 62
   250
370
    25
100
AcDbVertex
100
AcDb2dVertex
 10
2408.311568950874
 20
-654.0971976446355
 30
0.0
  0
SEQEND
  5
69
330
66
100
AcDbEntity
  8
1200s tas
370
    25
  0
POLYLINE
  5
6A
330
1F
100
AcDbEntity
  8
1200s tas
 62
   250
370
    25
100
AcDb2dPolyline
 66
     1
 10
0.0
 20
0.0
 30
0.0
  0
VERTEX
  5
6B
330
6A
100
AcDbEntity
  8
1200s tas
 62
   250
370
    25
100
AcDbVertex
100
AcDb2dVertex
 10
2408.311568950874
 20
-541.8988781739871
 30
0.0
  0
VERTEX
  5
6C
330
6A
100
AcDbEntity
  8
1200s tas
 62
   250
370
    25
100
AcDbVertex
100
AcDb2dVertex
 10
578.7398680193776
 20
-534.3455063225769
 30
0.0
  0
SEQEND
  5
6D
330
6A
100
AcDbEntity
  8
1200s tas
370
    25
  0
POLYLINE
  5
6E
330
1F
100
AcDbEntity
  8
1200s tas
 62
   250
370
    25
100
AcDb2dPolyline
 66
     1
 10
0.0
 20
0.0
 30
0.0
  0
VERTEX
  5
6F
330
6E
100
AcDbEntity
  8
1200s tas
 62
   250
370
    25
100
AcDbVertex
100
AcDb2dVertex
 10
580.0228215780846
 20
-841.909678608967
 30
0.0
  0
VERTEX
  5
70
330
6E
100
AcDbEntity
  8
1200s tas
 62
   250
370
    25
100
AcDbVertex
100
AcDb2dVertex
 10
2408.311568950874
 20
-797.6284882988568
 30
0.0
  0
SEQEND
  5
71
330
6E
100
AcDbEntity
  8
1200s tas
370
    25
  0
POLYLINE
  5
72
330
1F
100
AcDbEntity
  8
1200s tas
 62
   250
370
    25
100
AcDb2dPolyline
 66
     1
 10
0.0
 20
0.0
 30
0.0
  0
VERTEX
  5
73
330
72
100
AcDbEntity
  8
1200s tas
 62
   250
370
    25
100
AcDbVertex
100
AcDb2dVertex
 10
2408.307090326743
 20
-398.390669659517
 30
0.0
  0
VERTEX
  5
74
330
72
100
AcDbEntity
  8
1200s tas
 62
   250
370
    25
100
AcDbVertex
100
AcDb2dVertex
 10
580.0179984444053
 20
-354.1380736419342
 30
0.0
  0
SEQEND
  5
75
330
72
100
AcDbEntity
  8
1200s tas
370
    25
  0
SPLINE
  5
76
330
1F
100
AcDbEntity
  8
1200s tas
 62
   250
370
    25
100
AcDbSpline
210
0.0
220
0.0
230
1.0
 70
    11
 71
     3
 72
    17
 73
    13
 74
     0
 42
0.0000000001
 43
0.0000000001
 40
0.0
 40
0.0
 40
0.0
 40
0.0
 40
1.0
 40
1.0
 40
1.0
 40
2.0
 40
2.0
 40
2.0
 40
3.0
 40
3.0
 40
3.0
 40
4.0
 40
4.0
 40
4.0
 40
4.0
 10
893.5020505578746
 20
-258.6960095924441
 30
0.0
 10
893.5020505578746
 20
-261.4574258786461
 30
0.0
 10
891.2634275115591
 20
-263.6958766701871
 30
0.0
 10
888.5020112253571
 20
-263.6958766701871
 30
0.0
 10
885.7405949391551
 20
-263.6958766701871
 30
0.0
 10
883.5019718928398
 20
-261.4574258786461
 30
0.0
 10
883.5019718928398
 20
-258.6960095924441
 30
0.0
 10
883.5019718928398
 20
-255.934593306242
 30
0.0
 10
885.7405949391551
 20
-253.696142514701
 30
0.0
 10
888.5020112253571
 20
-253.696142514701
 30
0.0
 10
891.2634275115591
 20
-253.696142514701
 30
0.0
 10
893.5020505578746
 20
-255.934593306242
 30
0.0
 10
893.5020505578746
 20
-258.6960095924441
 30
0.0
  0
SPLINE
  5
77
330
1F
100
AcDbEntity
  8
1200s tas
 62
   250
370
    25
100
AcDbSpline
210
0.0
220
0.0
230
1.0
 70
    11
 71
     3
 72
    17
 73
    13
 74
     0
 42
0.0000000001
 43
0.0000000001
 40
0.0
 40
0.0
 40
0.0
 40
0.0
 40
1.0
 40
1.0
 40
1.0
 40
2.0
 40
2.0
 40
2.0
 40
3.0
 40
3.0
 40
3.0
 40
4.0
 40
4.0
 40
4.0
 40
4.0
 10
893.5020505578746
 20
-921.5582191706521
 30
0.0
 10
893.5020505578746
 20
-918.7973196487729
 30
0.0
 10
891.2634275115591
 20
-916.5586966024576
 30
0.0
 10
888.5020112253571
 20
-916.5586966024576
 30
0.0
 10
885.7405949391551
 20
-916.5586966024576
 30
0.0
 10
883.5019718928398
 20
-918.7973196487729
 30
0.0
 10
883.5019718928398
 20
-921.5582191706521
 30
0.0
 10
883.5019718928398
 20
-924.3198077116284
 30
0.0
 10
885.7405949391551
 20
-926.5584307579438
 30
0.0
 10
888.5020112253571
 20
-926.5584307579438
 30
0.0
 10
891.2634275115591
 20
-926.5584307579438
 30
0.0
 10
893.5020505578746
 20
-924.3198077116284
 30
0.0
 10
893.5020505578746
 20
-921.5582191706521
 30
0.0
  0
SPLINE
  5
78
330
1F
100
AcDbEntity
  8
1200s tas
 62
   250
370
    25
100
AcDbSpline
210
0.0
220
0.0
230
1.0
 70
    11
 71
     3
 72
    17
 73
    13
 74
     0
 42
0.0000000001
 43
0.0000000001
 40
0.0
 40
0.0
 40
0.0
 40
0.0
 40
1.0
 40
1.0
 40
1.0
 40
2.0
 40
2.0
 40
2.0
 40
3.0
 40
3.0
 40
3.0
 40
4.0
 40
4.0
 40
4.0
 40
4.0
 10
893.501706048326
 20
-772.039008053518
 30
0.0
 10
893.501706048326
 20
-774.8005965944943
 30
0.0
 10
891.2630830020106
 20
-777.0392196408096
 30
0.0
 10
888.5016667158086
 20
-777.0392196408096
 30
0.0
 10
885.7402504296066
 20
-777.0392196408096
 30
0.0
 10
883.5016273832913
 20
-774.8005965944943
 30
0.0
 10
883.5016273832913
 20
-772.039008053518
 30
0.0
 10
883.5016273832913
 20
-769.2777640220903
 30
0.0
 10
885.7402504296066
 20
-767.039140975775
 30
0.0
 10
888.5016667158086
 20
-767.039140975775
 30
0.0
 10
891.2630830020106
 20
-767.039140975775
 30
0.0
 10
893.501706048326
 20
-769.2777640220903
 30
0.0
 10
893.501706048326
 20
-772.039008053518
 30
0.0
  0
SPLINE
  5
79
330
1F
100
AcDbEntity
  8
1200s tas
 62
   250
370
    25
100
AcDbSpline
210
0.0
220
0.0
230
1.0
 70
    11
 71
     3
 72
    17
 73
    13
 74
     0
 42
0.0000000001
 43
0.0000000001
 40
0.0
 40
0.0
 40
0.0
 40
0.0
 40
1.0
 40
1.0
 40
1.0
 40
2.0
 40
2.0
 40
2.0
 40
3.0
 40
3.0
 40
3.0
 40
4.0
 40
4.0
 40
4.0
 40
4.0
 10
893.501706048326
 20
-423.7376151826941
 30
0.0
 10
893.501706048326
 20
-420.9761988964921
 30
0.0
 10
891.2630830020106
 20
-418.737748104951
 30
0.0
 10
888.5016667158086
 20
-418.737748104951
 30
0.0
 10
885.7402504296066
 20
-418.737748104951
 30
0.0
 10
883.5016273832913
 20
-420.9761988964921
 30
0.0
 10
883.5016273832913
 20
-423.7376151826941
 30
0.0
 10
883.5016273832913
 20
-426.4990314688961
 30
0.0
 10
885.7402504296066
 20
-428.7376545152114
 30
0.0
 10
888.5016667158086
 20
-428.7376545152114
 30
0.0
 10
891.2630830020106
 20
-428.7376545152114
 30
0.0
 10
893.501706048326
 20
-426.4990314688961
 30
0.0
 10
893.501706048326
 20
-423.7376151826941
 30
0.0
  0
SPLINE
  5
7A
330
1F
100
AcDbEntity
  8
1200s tas
 62
   250
370
    25
100
AcDbSpline
210
0.0
220
0.0
230
1.0
 70
    11
 71
     3
 72
    17
 73
    13
 74
     0
 42
0.0000000001
 43
0.0000000001
 40
0.0
 40
0.0
 40
0.0
 40
0.0
 40
1.0
 40
1.0
 40
1.0
 40
2.0
 40
2.0
 40
2.0
 40
3.0
 40
3.0
 40
3.0
 40
4.0
 40
4.0
 40
4.0
 40
4.0
 10
893.501706048326
 20
-597.8885700002675
 30
0.0
 10
893.501706048326
 20
-600.6498140316952
 30
0.0
 10
891.2630830020106
 20
-602.8884370780106
 30
0.0
 10
888.5016667158086
 20
-602.8884370780106
 30
0.0
 10
885.7402504296066
 20
-602.8884370780106
 30
0.0
 10
883.5016273832913
 20
-600.6498140316952
 30
0.0
 10
883.5016273832913
 20
-597.8885700002675
 30
0.0
 10
883.5016273832913
 20
-595.1269814592912
 30
0.0
 10
885.7402504296066
 20
-592.8883584129759
 30
0.0
 10
888.5016667158086
 20
-592.8883584129759
 30
0.0
 10
891.2630830020106
 20
-592.8883584129759
 30
0.0
 10
893.501706048326
 20
-595.1269814592912
 30
0.0
 10
893.501706048326
 20
-597.8885700002675
 30
0.0
  0
SPLINE
  5
7B
330
1F
100
AcDbEntity
  8
1200s tas
 62
   250
370
    25
100
AcDbSpline
210
0.0
220
0.0
230
1.0
 70
    11
 71
     3
 72
    17
 73
    13
 74
     0
 42
0.0000000001
 43
0.0000000001
 40
0.0
 40
0.0
 40
0.0
 40
0.0
 40
1.0
 40
1.0
 40
1.0
 40
2.0
 40
2.0
 40
2.0
 40
3.0
 40
3.0
 40
3.0
 40
4.0
 40
4.0
 40
4.0
 40
4.0
 10
1493.501947326277
 20
-597.8882254907189
 30
0.0
 10
1493.501947326277
 20
-595.1269814592912
 30
0.0
 10
1491.263324279962
 20
-592.8883584129759
 30
0.0
 10
1488.501735738986
 20
-592.8883584129759
 30
0.0
 10
1485.740147198009
 20
-592.8883584129759
 30
0.0
 10
1483.501524151694
 20
-595.1269814592912
 30
0.0
 10
1483.501524151694
 20
-597.8882254907189
 30
0.0
 10
1483.501524151694
 20
-600.6498140316952
 30
0.0
 10
1485.740147198009
 20
-602.8884370780106
 30
0.0
 10
1488.501735738986
 20
-602.8884370780106
 30
0.0
 10
1491.263324279962
 20
-602.8884370780106
 30
0.0
 10
1493.501947326277
 20
-600.6498140316952
 30
0.0
 10
1493.501947326277
 20
-597.8882254907189
 30
0.0
  0
SPLINE
  5
7C
330
1F
100
AcDbEntity
  8
1200s tas
 62
   250
370
    25
100
AcDbSpline
210
0.0
220
0.0
230
1.0
 70
    11
 71
     3
 72
    17
 73
    13
 74
     0
 42
0.0000000001
 43
0.0000000001
 40
0.0
 40
0.0
 40
0.0
 40
0.0
 40
1.0
 40
1.0
 40
1.0
 40
2.0
 40
2.0
 40
2.0
 40
3.0
 40
3.0
 40
3.0
 40
4.0
 40
4.0
 40
4.0
 40
4.0
 10
1493.501947326277
 20
-436.0149019634789
 30
0.0
 10
1493.501947326277
 20
-433.2536579320512
 30
0.0
 10
1491.263324279962
 20
-431.0150348857359
 30
0.0
 10
1488.501735738986
 20
-431.0150348857359
 30
0.0
 10
1485.740147198009
 20
-431.0150348857359
 30
0.0
 10
1483.501524151694
 20
-433.2536579320512
 30
0.0
 10
1483.501524151694
 20
-436.0149019634789
 30
0.0
 10
1483.501524151694
 20
-438.7764905044552
 30
0.0
 10
1485.740147198009
 20
-441.0151135507705
 30
0.0
 10
1488.501735738986
 20
-441.0151135507705
 30
0.0
 10
1491.263324279962
 20
-441.0151135507705
 30
0.0
 10
1493.501947326277
 20
-438.7764905044552
 30
0.0
 10
1493.501947326277
 20
-436.0149019634789
 30
0.0
  0
SPLINE
  5
7D
330
1F
100
AcDbEntity
  8
1200s tas
 62
   250
370
    25
100
AcDbSpline
210
0.0
220
0.0
230
1.0
 70
    11
 71
     3
 72
    17
 73
    13
 74
     0
 42
0.0000000001
 43
0.0000000001
 40
0.0
 40
0.0
 40
0.0
 40
0.0
 40
1.0
 40
1.0
 40
1.0
 40
2.0
 40
2.0
 40
2.0
 40
3.0
 40
3.0
 40
3.0
 40
4.0
 40
4.0
 40
4.0
 40
4.0
 10
1493.501947326277
 20
-759.7620657822818
 30
0.0
 10
1493.501947326277
 20
-762.523654323258
 30
0.0
 10
1491.263324279962
 20
-764.7622773695733
 30
0.0
 10
1488.501735738986
 20
-764.7622773695733
 30
0.0
 10
1485.740147198009
 20
-764.7622773695733
 30
0.0
 10
1483.501524151694
 20
-762.523654323258
 30
0.0
 10
1483.501524151694
 20
-759.7620657822818
 30
0.0
 10
1483.501524151694
 20
-757.0004772413055
 30
0.0
 10
1485.740147198009
 20
-754.7618541949902
 30
0.0
 10
1488.501735738986
 20
-754.7618541949902
 30
0.0
 10
1491.263324279962
 20
-754.7618541949902
 30
0.0
 10
1493.501947326277
 20
-757.0004772413055
 30
0.0
 10
1493.501947326277
 20
-759.7620657822818
 30
0.0
  0
SPLINE
  5
7E
330
1F
100
AcDbEntity
  8
1200s tas
 62
   250
370
    25
100
AcDbSpline
210
0.0
220
0.0
230
1.0
 70
    11
 71
     3
 72
    17
 73
    13
 74
     0
 42
0.0000000001
 43
0.0000000001
 40
0.0
 40
0.0
 40
0.0
 40
0.0
 40
1.0
 40
1.0
 40
1.0
 40
2.0
 40
2.0
 40
2.0
 40
3.0
 40
3.0
 40
3.0
 40
4.0
 40
4.0
 40
4.0
 40
4.0
 10
2093.50184409468
 20
-597.8885700002675
 30
0.0
 10
2093.50184409468
 20
-600.6498140316952
 30
0.0
 10
2091.263221048365
 20
-602.8884370780106
 30
0.0
 10
2088.501632507388
 20
-602.8884370780106
 30
0.0
 10
2085.740043966412
 20
-602.8884370780106
 30
0.0
 10
2083.501420920097
 20
-600.6498140316952
 30
0.0
 10
2083.501420920097
 20
-597.8885700002675
 30
0.0
 10
2083.501420920097
 20
-595.1269814592912
 30
0.0
 10
2085.740043966412
 20
-592.8883584129759
 30
0.0
 10
2088.501632507388
 20
-592.8883584129759
 30
0.0
 10
2091.263221048365
 20
-592.8883584129759
 30
0.0
 10
2093.50184409468
 20
-595.1269814592912
 30
0.0
 10
2093.50184409468
 20
-597.8885700002675
 30
0.0
  0
SPLINE
  5
7F
330
1F
100
AcDbEntity
  8
1200s tas
 62
   250
370
    25
100
AcDbSpline
210
0.0
220
0.0
230
1.0
 70
    11
 71
     3
 72
    17
 73
    13
 74
     0
 42
0.0000000001
 43
0.0000000001
 40
0.0
 40
0.0
 40
0.0
 40
0.0
 40
1.0
 40
1.0
 40
1.0
 40
2.0
 40
2.0
 40
2.0
 40
3.0
 40
3.0
 40
3.0
 40
4.0
 40
4.0
 40
4.0
 40
4.0
 10
1493.501602816729
 20
-282.8035820148026
 30
0.0
 10
1493.501602816729
 20
-285.5649983010046
 30
0.0
 10
1491.263324279962
 20
-287.8034490925457
 30
0.0
 10
1488.501735738986
 20
-287.8034490925457
 30
0.0
 10
1485.740147198009
 20
-287.8034490925457
 30
0.0
 10
1483.501868661243
 20
-285.5649983010046
 30
0.0
 10
1483.501868661243
 20
-282.8035820148026
 30
0.0
 10
1483.501868661243
 20
-280.0421657286006
 30
0.0
 10
1485.740147198009
 20
-277.8037149370595
 30
0.0
 10
1488.501735738986
 20
-277.8037149370595
 30
0.0
 10
1491.263324279962
 20
-277.8037149370595
 30
0.0
 10
1493.501602816729
 20
-280.0421657286006
 30
0.0
 10
1493.501602816729
 20
-282.8035820148026
 30
0.0
  0
SPLINE
  5
80
330
1F
100
AcDbEntity
  8
1200s tas
 62
   250
370
    25
100
AcDbSpline
210
0.0
220
0.0
230
1.0
 70
    11
 71
     3
 72
    17
 73
    13
 74
     0
 42
0.0000000001
 43
0.0000000001
 40
0.0
 40
0.0
 40
0.0
 40
0.0
 40
1.0
 40
1.0
 40
1.0
 40
2.0
 40
2.0
 40
2.0
 40
3.0
 40
3.0
 40
3.0
 40
4.0
 40
4.0
 40
4.0
 40
4.0
 10
1493.501602816729
 20
-897.4501299839709
 30
0.0
 10
1493.501602816729
 20
-894.6892304620916
 30
0.0
 10
1491.263324279962
 20
-892.4506074157763
 30
0.0
 10
1488.501735738986
 20
-892.4506074157763
 30
0.0
 10
1485.740147198009
 20
-892.4506074157763
 30
0.0
 10
1483.501868661243
 20
-894.6892304620916
 30
0.0
 10
1483.501868661243
 20
-897.4501299839709
 30
0.0
 10
1483.501868661243
 20
-900.2117185249471
 30
0.0
 10
1485.740147198009
 20
-902.4503415712625
 30
0.0
 10
1488.501735738986
 20
-902.4503415712625
 30
0.0
 10
1491.263324279962
 20
-902.4503415712625
 30
0.0
 10
1493.501602816729
 20
-900.2117185249471
 30
0.0
 10
1493.501602816729
 20
-897.4501299839709
 30
0.0
  0
SPLINE
  5
81
330
1F
100
AcDbEntity
  8
1200s tas
 62
   174
370
    25
100
AcDbSpline
210
0.0
220
0.0
230
1.0
 70
    11
 71
     3
 72
    17
 73
    13
 74
     0
 42
0.0000000001
 43
0.0000000001
 40
0.0
 40
0.0
 40
0.0
 40
0.0
 40
1.0
 40
1.0
 40
1.0
 40
2.0
 40
2.0
 40
2.0
 40
3.0
 40
3.0
 40
3.0
 40
4.0
 40
4.0
 40
4.0
 40
4.0
 10
2093.50184409468
 20
-448.077731550307
 30
0.0
 10
2093.50184409468
 20
-450.839147836509
 30
0.0
 10
2091.263221048365
 20
-453.0775986280501
 30
0.0
 10
2088.501632507388
 20
-453.0775986280501
 30
0.0
 10
2085.740043966412
 20
-453.0775986280501
 30
0.0
 10
2083.501420920097
 20
-450.839147836509
 30
0.0
 10
2083.501420920097
 20
-448.077731550307
 30
0.0
 10
2083.501420920097
 20
-445.316315264105
 30
0.0
 10
2085.740043966412
 20
-443.0776922177896
 30
0.0
 10
2088.501632507388
 20
-443.0776922177896
 30
0.0
 10
2091.263221048365
 20
-443.0776922177896
 30
0.0
 10
2093.50184409468
 20
-445.316315264105
 30
0.0
 10
2093.50184409468
 20
-448.077731550307
 30
0.0
  0
SPLINE
  5
82
330
1F
100
AcDbEntity
  8
1200s tas
 62
   174
370
    25
100
AcDbSpline
210
0.0
220
0.0
230
1.0
 70
    11
 71
     3
 72
    17
 73
    13
 74
     0
 42
0.0000000001
 43
0.0000000001
 40
0.0
 40
0.0
 40
0.0
 40
0.0
 40
1.0
 40
1.0
 40
1.0
 40
2.0
 40
2.0
 40
2.0
 40
3.0
 40
3.0
 40
3.0
 40
4.0
 40
4.0
 40
4.0
 40
4.0
 10
2093.50184409468
 20
-747.6987194311309
 30
0.0
 10
2093.50184409468
 20
-744.9378199092517
 30
0.0
 10
2091.263221048365
 20
-742.6991968629363
 30
0.0
 10
2088.501632507388
 20
-742.6991968629363
 30
0.0
 10
2085.740043966412
 20
-742.6991968629363
 30
0.0
 10
2083.501420920097
 20
-744.9378199092517
 30
0.0
 10
2083.501420920097
 20
-747.6987194311309
 30
0.0
 10
2083.501420920097
 20
-750.4603079721072
 30
0.0
 10
2085.740043966412
 20
-752.6989310184225
 30
0.0
 10
2088.501632507388
 20
-752.6989310184225
 30
0.0
 10
2091.263221048365
 20
-752.6989310184225
 30
0.0
 10
2093.50184409468
 20
-750.4603079721072
 30
0.0
 10
2093.50184409468
 20
-747.6987194311309
 30
0.0
  0
SPLINE
  5
83
330
1F
100
AcDbEntity
  8
1200s tas
 62
   174
370
    25
100
AcDbSpline
210
0.0
220
0.0
230
1.0
 70
    11
 71
     3
 72
    17
 73
    13
 74
     0
 42
0.0000000001
 43
0.0000000001
 40
0.0
 40
0.0
 40
0.0
 40
0.0
 40
1.0
 40
1.0
 40
1.0
 40
2.0
 40
2.0
 40
2.0
 40
3.0
 40
3.0
 40
3.0
 40
4.0
 40
4.0
 40
4.0
 40
4.0
 10
2093.50184409468
 20
-306.8925509215408
 30
0.0
 10
2093.50184409468
 20
-309.6539672077428
 30
0.0
 10
2091.263221048365
 20
-311.8925902540581
 30
0.0
 10
2088.501632507388
 20
-311.8925902540581
 30
0.0
 10
2085.740043966412
 20
-311.8925902540581
 30
0.0
 10
2083.501420920097
 20
-309.6539672077428
 30
0.0
 10
2083.501420920097
 20
-306.8925509215408
 30
0.0
 10
2083.501420920097
 20
-304.1311346353388
 30
0.0
 10
2085.740043966412
 20
-301.8925115890234
 30
0.0
 10
2088.501632507388
 20
-301.8925115890234
 30
0.0
 10
2091.263221048365
 20
-301.8925115890234
 30
0.0
 10
2093.50184409468
 20
-304.1311346353388
 30
0.0
 10
2093.50184409468
 20
-306.8925509215408
 30
0.0
  0
SPLINE
  5
84
330
1F
100
AcDbEntity
  8
1200s tas
 62
   174
370
    25
100
AcDbSpline
210
0.0
220
0.0
230
1.0
 70
    11
 71
     3
 72
    17
 73
    13
 74
     0
 42
0.0000000001
 43
0.0000000001
 40
0.0
 40
0.0
 40
0.0
 40
0.0
 40
1.0
 40
1.0
 40
1.0
 40
2.0
 40
2.0
 40
2.0
 40
3.0
 40
3.0
 40
3.0
 40
4.0
 40
4.0
 40
4.0
 40
4.0
 10
2093.50184409468
 20
-873.362711370201
 30
0.0
 10
2093.50184409468
 20
-870.6011228292248
 30
0.0
 10
2091.263221048365
 20
-868.3624997829094
 30
0.0
 10
2088.501632507388
 20
-868.3624997829094
 30
0.0
 10
2085.740043966412
 20
-868.3624997829094
 30
0.0
 10
2083.501420920097
 20
-870.6011228292248
 30
0.0
 10
2083.501420920097
 20
-873.362711370201
 30
0.0
 10
2083.501420920097
 20
-876.1236108920803
 30
0.0
 10
2085.740043966412
 20
-878.3622339383955
 30
0.0
 10
2088.501632507388
 20
-878.3622339383955
 30
0.0
 10
2091.263221048365
 20
-878.3622339383955
 30
0.0
 10
2093.50184409468
 20
-876.1236108920803
 30
0.0
 10
2093.50184409468
 20
-873.362711370201
 30
0.0
  0
ENDSEC
  0
SECTION
  2
OBJECTS
  0
DICTIONARY
  5
C
330
0
100
AcDbDictionary
281
     1
  3
ACAD_GROUP
350
D
  3
ACAD_LAYOUT
350
1A
  3
ACAD_MLINESTYLE
350
17
  3
ACAD_PLOTSETTINGS
350
19
  3
ACAD_PLOTSTYLENAME
350
E
  3
ACAD_TABLESTYLE
350
85
  3
ACAD_VISUALSTYLE
350
2A
  0
DICTIONARY
  5
D
102
{ACAD_REACTORS
330
C
102
}
330
C
100
AcDbDictionary
281
     1
  0
DICTIONARY
  5
1A
102
{ACAD_REACTORS
330
C
102
}
330
C
100
AcDbDictionary
281
     1
  3
Layout1
350
1E
  3
Layout2
350
26
  3
Model
350
22
  0
DICTIONARY
  5
17
102
{ACAD_REACTORS
330
C
102
}
330
C
100
AcDbDictionary
281
     1
  3
Standard
350
18
  0
DICTIONARY
  5
19
102
{ACAD_REACTORS
330
C
102
}
330
C
100
AcDbDictionary
281
     1
  0
ACDBDICTIONARYWDFLT
  5
E
102
{ACAD_REACTORS
330
C
102
}
330
C
100
AcDbDictionary
281
     1
  3
Normal
350
F
100
AcDbDictionaryWithDefault
340
F
  0
DICTIONARY
  5
85
102
{ACAD_REACTORS
330
C
102
}
330
C
100
AcDbDictionary
281
     1
  0
DICTIONARY
  5
2A
102
{ACAD_REACTORS
330
C
102
}
330
C
100
AcDbDictionary
281
     1
  3
2dWireframe
350
2F
  3
3D Hidden
350
31
  3
3dWireframe
350
30
  3
Basic
350
32
  3
Brighten
350
36
  3
ColorChange
350
3A
  3
Conceptual
350
34
  3
Dim
350
35
  3
Facepattern
350
39
  3
Flat
350
2B
  3
FlatWithEdges
350
2C
  3
Gouraud
350
2D
  3
GouraudWithEdges
350
2E
  3
Linepattern
350
38
  3
Realistic
350
33
  3
Thicken
350
37
  0
LAYOUT
  5
1E
102
{ACAD_REACTORS
330
1A
102
}
330
1A
100
AcDbPlotSettings
  1

  2
none_device
  4

  6

 40
0.0
 41
0.0
 42
0.0
 43
0.0
 44
0.0
 45
0.0
 46
0.0
 47
0.0
 48
0.0
 49
0.0
140
0.0
141
0.0
142
1.0
143
1.0
 70
   688
 72
     0
 73
     0
 74
     5
  7

 75
    16
 76
     0
 77
     2
 78
   300
147
1.0
148
0.0
149
0.0
100
AcDbLayout
  1
Layout1
 70
     1
 71
     1
 10
0.0
 20
0.0
 11
12.0
 21
9.0
 12
0.0
 22
0.0
 32
0.0
 14
1.000000000000000E+20
 24
1.000000000000000E+20
 34
1.000000000000000E+20
 15
-1.000000000000000E+20
 25
-1.000000000000000E+20
 35
-1.000000000000000E+20
146
0.0
 13
0.0
 23
0.0
 33
0.0
 16
1.0
 26
0.0
 36
0.0
 17
0.0
 27
1.0
 37
0.0
 76
     0
330
1B
  0
LAYOUT
  5
26
102
{ACAD_REACTORS
330
1A
102
}
330
1A
100
AcDbPlotSettings
  1

  2
none_device
  4

  6

 40
0.0
 41
0.0
 42
0.0
 43
0.0
 44
0.0
 45
0.0
 46
0.0
 47
0.0
 48
0.0
 49
0.0
140
0.0
141
0.0
142
1.0
143
1.0
 70
   688
 72
     0
 73
     0
 74
     5
  7

 75
    16
 76
     0
 77
     2
 78
   300
147
1.0
148
0.0
149
0.0
100
AcDbLayout
  1
Layout2
 70
     1
 71
     2
 10
0.0
 20
0.0
 11
0.0
 21
0.0
 12
0.0
 22
0.0
 32
0.0
 14
0.0
 24
0.0
 34
0.0
 15
0.0
 25
0.0
 35
0.0
146
0.0
 13
0.0
 23
0.0
 33
0.0
 16
1.0
 26
0.0
 36
0.0
 17
0.0
 27
1.0
 37
0.0
 76
     0
330
23
  0
LAYOUT
  5
22
102
{ACAD_REACTORS
330
1A
102
}
330
1A
100
AcDbPlotSettings
  1

  2
none_device
  4

  6

 40
0.0
 41
0.0
 42
0.0
 43
0.0
 44
0.0
 45
0.0
 46
0.0
 47
0.0
 48
0.0
 49
0.0
140
0.0
141
0.0
142
1.0
143
1.0
 70
  1712
 72
     0
 73
     0
 74
     0
  7

 75
     0
 76
     0
 77
     2
 78
   300
147
1.0
148
0.0
149
0.0
100
AcDbLayout
  1
Model
 70
     1
 71
     0
 10
0.0
 20
0.0
 11
12.0
 21
9.0
 12
0.0
 22
0.0
 32
0.0
 14
1.000000000000000E+20
 24
1.000000000000000E+20
 34
1.000000000000000E+20
 15
-1.000000000000000E+20
 25
-1.000000000000000E+20
 35
-1.000000000000000E+20
146
0.0
 13
0.0
 23
0.0
 33
0.0
 16
1.0
 26
0.0
 36
0.0
 17
0.0
 27
1.0
 37
0.0
 76
     0
330
1F
331
29
  0
MLINESTYLE
  5
18
102
{ACAD_REACTORS
330
17
102
}
330
17
100
AcDbMlineStyle
  2
Standard
 70
     0
  3

 62
   256
 51
90.0
 52
90.0
 71
     2
 49
0.5
 62
   256
  6
BYLAYER
 49
-0.5
 62
   256
  6
BYLAYER
  0
ACDBPLACEHOLDER
  5
F
102
{ACAD_REACTORS
330
E
102
}
330
E
  0
VISUALSTYLE
  5
2F
102
{ACAD_REACTORS
330
2A
102
}
330
2A
100
AcDbVisualStyle
  2
2dWireframe
 70
     4
 71
     0
 72
     2
 73
     0
 90
        0
 40
-0.6
 41
-30.0
 62
     5
 63
     7
421
 16777215
 74
     1
 91
        4
 64
     7
 65
   257
 75
     1
175
     1
 42
1.0
 92
        0
 66
   257
 43
1.0
 76
     1
 77
     6
 78
     2
 67
     7
 79
     5
170
     0
171
     0
290
     0
174
     0
 93
        1
 44
0.0
173
     0
291
     0
 45
0.0
1001
ACAD
1000
AcDbSavedByObjectVersion
1070
     0
  0
VISUALSTYLE
  5
31
102
{ACAD_REACTORS
330
2A
102
}
330
2A
100
AcDbVisualStyle
  2
3D Hidden
 70
     6
 71
     1
 72
     2
 73
     2
 90
        0
 40
-0.6
 41
-30.0
 62
     5
 63
     7
421
 16777215
 74
     2
 91
        2
 64
     7
 65
   257
 75
     2
175
     1
 42
40.0
 92
        0
 66
   257
 43
1.0
 76
     1
 77
     6
 78
     2
 67
     7
 79
     3
170
     0
171
     0
290
     0
174
     0
 93
        1
 44
0.0
173
     0
291
     0
 45
0.0
1001
ACAD
1000
AcDbSavedByObjectVersion
1070
     0
  0
VISUALSTYLE
  5
30
102
{ACAD_REACTORS
330
2A
102
}
330
2A
100
AcDbVisualStyle
  2
3dWireframe
 70
     5
 71
     0
 72
     2
 73
     0
 90
        0
 40
-0.6
 41
-30.0
 62
     5
 63
     7
421
 16777215
 74
     1
 91
        4
 64
     7
 65
   257
 75
     1
175
     1
 42
1.0
 92
        0
 66
   257
 43
1.0
 76
     1
 77
     6
 78
     2
 67
     7
 79
     5
170
     0
171
     0
290
     0
174
     0
 93
        1
 44
0.0
173
     0
291
     0
 45
0.0
1001
ACAD
1000
AcDbSavedByObjectVersion
1070
     0
  0
VISUALSTYLE
  5
32
102
{ACAD_REACTORS
330
2A
102
}
330
2A
100
AcDbVisualStyle
  2
Basic
 70
     7
 71
     1
 72
     0
 73
     1
 90
        0
 40
-0.6
 41
-30.0
 62
     5
 63
     7
421
 16777215
 74
     0
 91
        4
 64
     7
 65
   257
 75
     1
175
     1
 42
1.0
 92
        8
 66
     7
 43
1.0
 76
     1
 77
     6
 78
     2
 67
     7
 79
     5
170
     0
171
     0
290
     0
174
     0
 93
        1
 44
0.0
173
     0
291
     1
 45
0.0
1001
ACAD
1000
AcDbSavedByObjectVersion
1070
     0
  0
VISUALSTYLE
  5
36
102
{ACAD_REACTORS
330
2A
102
}
330
2A
100
AcDbVisualStyle
  2
Brighten
 70
    12
 71
     2
 72
     2
 73
     0
 90
        0
 40
-0.6
 41
-30.0
 62
     5
 63
     7
421
 16777215
 74
     1
 91
        4
 64
     7
 65
   257
 75
     1
175
     1
 42
1.0
 92
        8
 66
     7
 43
1.0
 76
     1
 77
     6
 78
     2
 67
     7
 79
     5
170
     0
171
     0
290
     0
174
     0
 93
        1
 44
50.0
173
     0
291
     1
 45
0.0
1001
ACAD
1000
AcDbSavedByObjectVersion
1070
     0
  0
VISUALSTYLE
  5
3A
102
{ACAD_REACTORS
330
2A
102
}
330
2A
100
AcDbVisualStyle
  2
ColorChange
 70
    16
 71
     2
 72
     2
 73
     3
 90
        0
 40
-0.6
 41
-30.0
 62
     5
 63
     8
421
  8421504
 74
     1
 91
        4
 64
     7
 65
   257
 75
     1
175
     1
 42
1.0
 92
        8
 66
     8
424
  8421504
 43
1.0
 76
     1
 77
     6
 78
     2
 67
     7
 79
     5
170
     0
171
     0
290
     0
174
     0
 93
        1
 44
0.0
173
     0
291
     1
 45
0.0
1001
ACAD
1000
AcDbSavedByObjectVersion
1070
     0
  0
VISUALSTYLE
  5
34
102
{ACAD_REACTORS
330
2A
102
}
330
2A
100
AcDbVisualStyle
  2
Conceptual
 70
     9
 71
     3
 72
     2
 73
     0
 90
        0
 40
-0.6
 41
-30.0
 62
     5
 63
     7
421
 16777215
 74
     2
 91
        2
 64
     7
 65
   257
 75
     1
175
     1
 42
40.0
 92
        8
 66
     7
 43
1.0
 76
     1
 77
     6
 78
     2
 67
     7
 79
     3
170
     0
171
     0
290
     0
174
     0
 93
        1
 44
0.0
173
     0
291
     0
 45
0.0
1001
ACAD
1000
AcDbSavedByObjectVersion
1070
     0
  0
VISUALSTYLE
  5
35
102
{ACAD_REACTORS
330
2A
102
}
330
2A
100
AcDbVisualStyle
  2
Dim
 70
    11
 71
     2
 72
     2
 73
     0
 90
        0
 40
-0.6
 41
-30.0
 62
     5
 63
     7
421
 16777215
 74
     1
 91
        4
 64
     7
 65
   257
 75
     1
175
     1
 42
1.0
 92
        8
 66
     7
 43
1.0
 76
     1
 77
     6
 78
     2
 67
     7
 79
     5
170
     0
171
     0
290
     0
174
     0
 93
        1
 44
-50.0
173
     0
291
     1
 45
0.0
1001
ACAD
1000
AcDbSavedByObjectVersion
1070
     0
  0
VISUALSTYLE
  5
39
102
{ACAD_REACTORS
330
2A
102
}
330
2A
100
AcDbVisualStyle
  2
Facepattern
 70
    15
 71
     2
 72
     2
 73
     0
 90
        0
 40
-0.6
 41
-30.0
 62
     5
 63
     7
421
 16777215
 74
     1
 91
        4
 64
     7
 65
   257
 75
     1
175
     1
 42
1.0
 92
        8
 66
     7
 43
1.0
 76
     1
 77
     6
 78
     2
 67
     7
 79
     5
170
     0
171
     0
290
     0
174
     0
 93
        1
 44
0.0
173
     0
291
     1
 45
0.0
1001
ACAD
1000
AcDbSavedByObjectVersion
1070
     0
  0
VISUALSTYLE
  5
2B
102
{ACAD_REACTORS
330
2A
102
}
330
2A
100
AcDbVisualStyle
  2
Flat
 70
     0
 71
     2
 72
     1
 73
     1
 90
        2
 40
-0.6
 41
30.0
 62
     5
 63
     7
421
 16777215
 74
     0
 91
        4
 64
     7
 65
   257
 75
     1
175
     1
 42
1.0
 92
        8
 66
     7
 43
1.0
 76
     1
 77
     6
 78
     2
 67
     7
 79
     5
170
     0
171
     0
290
     0
174
     0
 93
       13
 44
0.0
173
     0
291
     1
 45
0.0
1001
ACAD
1000
AcDbSavedByObjectVersion
1070
     0
  0
VISUALSTYLE
  5
2C
102
{ACAD_REACTORS
330
2A
102
}
330
2A
100
AcDbVisualStyle
  2
FlatWithEdges
 70
     1
 71
     2
 72
     1
 73
     1
 90
        2
 40
-0.6
 41
30.0
 62
     5
 63
     7
421
 16777215
 74
     1
 91
        4
 64
     7
 65
   257
 75
     1
175
     1
 42
1.0
 92
        0
 66
   257
 43
1.0
 76
     1
 77
     6
 78
     2
 67
     7
 79
     5
170
     0
171
     0
290
     0
174
     0
 93
       13
 44
0.0
173
     0
291
     1
 45
0.0
1001
ACAD
1000
AcDbSavedByObjectVersion
1070
     0
  0
VISUALSTYLE
  5
2D
102
{ACAD_REACTORS
330
2A
102
}
330
2A
100
AcDbVisualStyle
  2
Gouraud
 70
     2
 71
     2
 72
     2
 73
     1
 90
        2
 40
-0.6
 41
30.0
 62
     5
 63
     7
421
 16777215
 74
     0
 91
        4
 64
     7
 65
   257
 75
     1
175
     1
 42
1.0
 92
        0
 66
     7
 43
1.0
 76
     1
 77
     6
 78
     2
 67
     7
 79
     5
170
     0
171
     0
290
     0
174
     0
 93
       13
 44
0.0
173
     0
291
     1
 45
0.0
1001
ACAD
1000
AcDbSavedByObjectVersion
1070
     0
  0
VISUALSTYLE
  5
2E
102
{ACAD_REACTORS
330
2A
102
}
330
2A
100
AcDbVisualStyle
  2
GouraudWithEdges
 70
     3
 71
     2
 72
     2
 73
     1
 90
        2
 40
-0.6
 41
30.0
 62
     5
 63
     7
421
 16777215
 74
     1
 91
        4
 64
     7
 65
   257
 75
     1
175
     1
 42
1.0
 92
        0
 66
   257
 43
1.0
 76
     1
 77
     6
 78
     2
 67
     7
 79
     5
170
     0
171
     0
290
     0
174
     0
 93
       13
 44
0.0
173
     0
291
     1
 45
0.0
1001
ACAD
1000
AcDbSavedByObjectVersion
1070
     0
  0
VISUALSTYLE
  5
38
102
{ACAD_REACTORS
330
2A
102
}
330
2A
100
AcDbVisualStyle
  2
Linepattern
 70
    14
 71
     2
 72
     2
 73
     0
 90
        0
 40
-0.6
 41
-30.0
 62
     5
 63
     7
421
 16777215
 74
     1
 91
        4
 64
     7
 65
   257
 75
     7
175
     7
 42
1.0
 92
        8
 66
     7
 43
1.0
 76
     1
 77
     6
 78
     2
 67
     7
 79
     5
170
     0
171
     0
290
     0
174
     0
 93
        1
 44
0.0
173
     0
291
     1
 45
0.0
1001
ACAD
1000
AcDbSavedByObjectVersion
1070
     0
  0
VISUALSTYLE
  5
33
102
{ACAD_REACTORS
330
2A
102
}
330
2A
100
AcDbVisualStyle
  2
Realistic
 70
     8
 71
     2
 72
     2
 73
     0
 90
        0
 40
-0.6
 41
-30.0
 62
     5
 63
     7
421
 16777215
 74
     1
 91
        0
 64
     7
 65
   257
 75
     1
175
     1
 42
1.0
 92
        8
 66
     8
424
  7895160
 43
1.0
 76
     1
 77
     6
 78
     2
 67
     7
 79
     5
170
     0
171
     0
290
     0
174
     0
 93
       13
 44
0.0
173
     0
291
     0
 45
0.0
1001
ACAD
1000
AcDbSavedByObjectVersion
1070
     0
  0
VISUALSTYLE
  5
37
102
{ACAD_REACTORS
330
2A
102
}
330
2A
100
AcDbVisualStyle
  2
Thicken
 70
    13
 71
     2
 72
     2
 73
     0
 90
        0
 40
-0.6
 41
-30.0
 62
     5
 63
     7
421
 16777215
 74
     1
 91
        4
 64
     7
 65
   257
 75
     1
175
     1
 42
1.0
 92
       12
 66
     7
 43
1.0
 76
     1
 77
     6
 78
     2
 67
     7
 79
     5
170
     0
171
     0
290
     0
174
     0
 93
        1
 44
0.0
173
     0
291
     1
 45
0.0
1001
ACAD
1000
AcDbSavedByObjectVersion
1070
     0
  0
ENDSEC
  0
EOF
