  0
SECTION
  2
HEADER
  9
$ACADVER
  1
AC1018
  9
$ACADMAINTVER
 70
     0
  9
$DWGCODEPAGE
  3
ANSI_1252
  9
$INSBASE
 10
0.0
 20
0.0
 30
0.0
  9
$EXTMIN
 10
1.000000000000000E+20
 20
1.000000000000000E+20
 30
1.000000000000000E+20
  9
$EXTMAX
 10
-1.000000000000000E+20
 20
-1.000000000000000E+20
 30
-1.000000000000000E+20
  9
$LIMMIN
 10
0.0
 20
0.0
  9
$LIMMAX
 10
12.0
 20
9.0
  9
$ORTHOMODE
 70
     0
  9
$REGENMODE
 70
     1
  9
$FILLMODE
 70
     1
  9
$QTEXTMODE
 70
     0
  9
$MIRRTEXT
 70
     1
  9
$LTSCALE
 40
1.0
  9
$ATTMODE
 70
     1
  9
$TEXTSIZE
 40
0.2
  9
$TRACEWID
 40
0.05
  9
$TEXTSTYLE
  7
Standard
  9
$CLAYER
  8
0
  9
$CELTYPE
  6
ByLayer
  9
$CECOLOR
 62
   256
  9
$CELTSCALE
 40
1.0
  9
$DISPSILH
 70
     0
  9
$DIMSCALE
 40
1.0
  9
$DIMASZ
 40
0.18
  9
$DIMEXO
 40
0.0625
  9
$DIMDLI
 40
0.38
  9
$DIMRND
 40
0.0
  9
$DIMDLE
 40
0.0
  9
$DIMEXE
 40
0.18
  9
$DIMTP
 40
0.0
  9
$DIMTM
 40
0.0
  9
$DIMTXT
 40
0.18
  9
$DIMCEN
 40
0.09
  9
$DIMTSZ
 40
0.0
  9
$DIMTOL
 70
     0
  9
$DIMLIM
 70
     0
  9
$DIMTIH
 70
     1
  9
$DIMTOH
 70
     1
  9
$DIMSE1
 70
     0
  9
$DIMSE2
 70
     0
  9
$DIMTAD
 70
     0
  9
$DIMZIN
 70
     0
  9
$DIMBLK
  1

  9
$DIMASO
 70
     1
  9
$DIMSHO
 70
     1
  9
$DIMPOST
  1

  9
$DIMAPOST
  1

  9
$DIMALT
 70
     0
  9
$DIMALTD
 70
     2
  9
$DIMALTF
 40
25.4
  9
$DIMLFAC
 40
1.0
  9
$DIMTOFL
 70
     0
  9
$DIMTVP
 40
0.0
  9
$DIMTIX
 70
     0
  9
$DIMSOXD
 70
     0
  9
$DIMSAH
 70
     0
  9
$DIMBLK1
  1

  9
$DIMBLK2
  1

  9
$DIMSTYLE
  2
Standard
  9
$DIMCLRD
 70
     0
  9
$DIMCLRE
 70
     0
  9
$DIMCLRT
 70
     0
  9
$DIMTFAC
 40
1.0
  9
$DIMGAP
 40
0.09
  9
$DIMJUST
 70
     0
  9
$DIMSD1
 70
     0
  9
$DIMSD2
 70
     0
  9
$DIMTOLJ
 70
     1
  9
$DIMTZIN
 70
     0
  9
$DIMALTZ
 70
     0
  9
$DIMALTTZ
 70
     0
  9
$DIMUPT
 70
     0
  9
$DIMDEC
 70
     4
  9
$DIMTDEC
 70
     4
  9
$DIMALTU
 70
     2
  9
$DIMALTTD
 70
     2
  9
$DIMTXSTY
  7
Standard
  9
$DIMAUNIT
 70
     0
  9
$DIMADEC
 70
     0
  9
$DIMALTRND
 40
0.0
  9
$DIMAZIN
 70
     0
  9
$DIMDSEP
 70
    46
  9
$DIMATFIT
 70
     3
  9
$DIMFRAC
 70
     0
  9
$DIMLDRBLK
  1

  9
$DIMLUNIT
 70
     2
  9
$DIMLWD
 70
    -2
  9
$DIMLWE
 70
    -2
  9
$DIMTMOVE
 70
     0
  9
$LUNITS
 70
     2
  9
$LUPREC
 70
     4
  9
$SKETCHINC
 40
0.1
  9
$FILLETRAD
 40
0.5
  9
$AUNITS
 70
     0
  9
$AUPREC
 70
     0
  9
$MENU
  1
.
  9
$ELEVATION
 40
0.0
  9
$PELEVATION
 40
0.0
  9
$THICKNESS
 40
0.0
  9
$LIMCHECK
 70
     0
  9
$CHAMFERA
 40
0.5
  9
$CHAMFERB
 40
0.5
  9
$CHAMFERC
 40
1.0
  9
$CHAMFERD
 40
0.0
  9
$SKPOLY
 70
     0
  9
$TDCREATE
 40
2456238.414160405
  9
$TDUCREATE
 40
2456237.872493738
  9
$TDUPDATE
 40
2456238.414160416
  9
$TDUUPDATE
 40
2456237.87249375
  9
$TDINDWG
 40
0.0000000116
  9
$TDUSRTIMER
 40
0.0000000116
  9
$USRTIMER
 70
     1
  9
$ANGBASE
 50
0.0
  9
$ANGDIR
 70
     0
  9
$PDMODE
 70
     0
  9
$PDSIZE
 40
0.0
  9
$PLINEWID
 40
0.0
  9
$SPLFRAME
 70
     0
  9
$SPLINETYPE
 70
     6
  9
$SPLINESEGS
 70
     8
  9
$HANDSEED
  5
B6
  9
$SURFTAB1
 70
     6
  9
$SURFTAB2
 70
     6
  9
$SURFTYPE
 70
     6
  9
$SURFU
 70
     6
  9
$SURFV
 70
     6
  9
$UCSBASE
  2

  9
$UCSNAME
  2

  9
$UCSORG
 10
0.0
 20
0.0
 30
0.0
  9
$UCSXDIR
 10
1.0
 20
0.0
 30
0.0
  9
$UCSYDIR
 10
0.0
 20
1.0
 30
0.0
  9
$UCSORTHOREF
  2

  9
$UCSORTHOVIEW
 70
     0
  9
$UCSORGTOP
 10
0.0
 20
0.0
 30
0.0
  9
$UCSORGBOTTOM
 10
0.0
 20
0.0
 30
0.0
  9
$UCSORGLEFT
 10
0.0
 20
0.0
 30
0.0
  9
$UCSORGRIGHT
 10
0.0
 20
0.0
 30
0.0
  9
$UCSORGFRONT
 10
0.0
 20
0.0
 30
0.0
  9
$UCSORGBACK
 10
0.0
 20
0.0
 30
0.0
  9
$PUCSBASE
  2

  9
$PUCSNAME
  2

  9
$PUCSORG
 10
0.0
 20
0.0
 30
0.0
  9
$PUCSXDIR
 10
1.0
 20
0.0
 30
0.0
  9
$PUCSYDIR
 10
0.0
 20
1.0
 30
0.0
  9
$PUCSORTHOREF
  2

  9
$PUCSORTHOVIEW
 70
     0
  9
$PUCSORGTOP
 10
0.0
 20
0.0
 30
0.0
  9
$PUCSORGBOTTOM
 10
0.0
 20
0.0
 30
0.0
  9
$PUCSORGLEFT
 10
0.0
 20
0.0
 30
0.0
  9
$PUCSORGRIGHT
 10
0.0
 20
0.0
 30
0.0
  9
$PUCSORGFRONT
 10
0.0
 20
0.0
 30
0.0
  9
$PUCSORGBACK
 10
0.0
 20
0.0
 30
0.0
  9
$USERI1
 70
     0
  9
$USERI2
 70
     0
  9
$USERI3
 70
     0
  9
$USERI4
 70
     0
  9
$USERI5
 70
     0
  9
$USERR1
 40
0.0
  9
$USERR2
 40
0.0
  9
$USERR3
 40
0.0
  9
$USERR4
 40
0.0
  9
$USERR5
 40
0.0
  9
$WORLDVIEW
 70
     1
  9
$SHADEDGE
 70
     3
  9
$SHADEDIF
 70
    70
  9
$TILEMODE
 70
     1
  9
$MAXACTVP
 70
    64
  9
$PINSBASE
 10
0.0
 20
0.0
 30
0.0
  9
$PLIMCHECK
 70
     0
  9
$PEXTMIN
 10
1.000000000000000E+20
 20
1.000000000000000E+20
 30
1.000000000000000E+20
  9
$PEXTMAX
 10
-1.000000000000000E+20
 20
-1.000000000000000E+20
 30
-1.000000000000000E+20
  9
$PLIMMIN
 10
0.0
 20
0.0
  9
$PLIMMAX
 10
12.0
 20
9.0
  9
$UNITMODE
 70
     0
  9
$VISRETAIN
 70
     1
  9
$PLINEGEN
 70
     0
  9
$PSLTSCALE
 70
     1
  9
$TREEDEPTH
 70
  3020
  9
$CMLSTYLE
  2
Standard
  9
$CMLJUST
 70
     0
  9
$CMLSCALE
 40
1.0
  9
$PROXYGRAPHICS
 70
     1
  9
$MEASUREMENT
 70
     0
  9
$CELWEIGHT
370
    -1
  9
$ENDCAPS
280
     0
  9
$JOINSTYLE
280
     0
  9
$LWDISPLAY
290
     1
  9
$INSUNITS
 70
     1
  9
$HYPERLINKBASE
  1

  9
$STYLESHEET
  1

  9
$XEDIT
290
     1
  9
$CEPSNTYPE
380
     0
  9
$PSTYLEMODE
290
     1
  9
$FINGERPRINTGUID
  2
{A46327D5-FB69-4739-8854-DBAABD332E67}
  9
$VERSIONGUID
  2
{FAEB1C32-E019-11D5-929B-00C0DF256EC4}
  9
$EXTNAMES
290
     1
  9
$PSVPSCALE
 40
0.0
  9
$OLESTARTUP
290
     0
  9
$SORTENTS
280
   127
  9
$INDEXCTL
280
     0
  9
$HIDETEXT
280
     1
  9
$XCLIPFRAME
290
     0
  9
$HALOGAP
280
     0
  9
$OBSCOLOR
 70
   257
  9
$OBSLTYPE
280
     0
  9
$INTERSECTIONDISPLAY
280
     0
  9
$INTERSECTIONCOLOR
 70
   257
  9
$DIMASSOC
280
     2
  9
$PROJECTNAME
  1

  0
ENDSEC
  0
SECTION
  2
CLASSES
  0
CLASS
  1
ACDBDICTIONARYWDFLT
  2
AcDbDictionaryWithDefault
  3
ObjectDBX Classes
 90
        0
 91
        3
280
     0
281
     0
  0
CLASS
  1
VISUALSTYLE
  2
AcDbVisualStyle
  3
ObjectDBX Classes
 90
     4095
 91
        3
280
     0
281
     0
  0
ENDSEC
  0
SECTION
  2
TABLES
  0
TABLE
  2
VPORT
  5
8
330
0
100
AcDbSymbolTable
 70
     1
  0
VPORT
  5
29
330
8
100
AcDbSymbolTableRecord
100
AcDbViewportTableRecord
  2
*Active
 70
     0
 10
0.0
 20
0.0
 11
1.0
 21
1.0
 12
0.0
 22
0.0
 13
0.0
 23
0.0
 14
0.5
 24
0.5
 15
0.5
 25
0.5
 16
0.0
 26
0.0
 36
1.0
 17
1236.988405723739
 27
-604.4941099562984
 37
0.0
 40
1200.000310301129
 41
1.999999712908783
 42
50.0
 43
0.0
 44
0.0
 50
0.0
 51
0.0
 71
     0
 72
   100
 73
     1
 74
     3
 75
     0
 76
     0
 77
     0
 78
     0
281
     0
 65
     1
110
0.0
120
0.0
130
0.0
111
1.0
121
0.0
131
0.0
112
0.0
122
1.0
132
0.0
 79
     0
146
0.0
  0
ENDTAB
  0
TABLE
  2
LTYPE
  5
5
330
0
100
AcDbSymbolTable
 70
     1
  0
LTYPE
  5
14
330
5
100
AcDbSymbolTableRecord
100
AcDbLinetypeTableRecord
  2
ByBlock
 70
     0
  3

 72
    65
 73
     0
 40
0.0
  0
LTYPE
  5
15
330
5
100
AcDbSymbolTableRecord
100
AcDbLinetypeTableRecord
  2
ByLayer
 70
     0
  3

 72
    65
 73
     0
 40
0.0
  0
LTYPE
  5
16
330
5
100
AcDbSymbolTableRecord
100
AcDbLinetypeTableRecord
  2
Continuous
 70
     0
  3
Solid line
 72
    65
 73
     0
 40
0.0
  0
ENDTAB
  0
TABLE
  2
LAYER
  5
2
330
0
100
AcDbSymbolTable
 70
     8
  0
LAYER
  5
10
330
2
100
AcDbSymbolTableRecord
100
AcDbLayerTableRecord
  2
0
 70
     0
 62
     7
  6
Continuous
370
    -3
390
F
  0
LAYER
  5
3B
330
2
100
AcDbSymbolTableRecord
100
AcDbLayerTableRecord
  2
full strips
 70
     0
 62
     7
  6
Continuous
370
    -3
390
F
  0
LAYER
  5
66
330
2
100
AcDbSymbolTableRecord
100
AcDbLayerTableRecord
  2
sides
 70
     0
 62
     7
  6
Continuous
370
    -3
390
F
  0
LAYER
  5
67
330
2
100
AcDbSymbolTableRecord
100
AcDbLayerTableRecord
  2
drill holes 1800
 70
     0
 62
     7
  6
Continuous
370
    -3
390
F
  0
LAYER
  5
77
330
2
100
AcDbSymbolTableRecord
100
AcDbLayerTableRecord
  2
drill holes 1200
 70
     0
 62
     7
  6
Continuous
370
    -3
390
F
  0
LAYER
  5
78
330
2
100
AcDbSymbolTableRecord
100
AcDbLayerTableRecord
  2
full outline and jig
 70
     0
 62
     7
  6
Continuous
370
    -3
390
F
  0
LAYER
  5
79
330
2
100
AcDbSymbolTableRecord
100
AcDbLayerTableRecord
  2
1200 outline
 70
     0
 62
     7
  6
Continuous
370
    -3
390
F
  0
LAYER
  5
7A
330
2
100
AcDbSymbolTableRecord
100
AcDbLayerTableRecord
  2
1800 outline
 70
     0
 62
     7
  6
Continuous
370
    -3
390
F
  0
ENDTAB
  0
TABLE
  2
STYLE
  5
3
330
0
100
AcDbSymbolTable
 70
     1
  0
STYLE
  5
11
330
3
100
AcDbSymbolTableRecord
100
AcDbTextStyleTableRecord
  2
Standard
 70
     0
 40
0.0
 41
1.0
 50
0.0
 71
     0
 42
0.2
  3
txt
  4

  0
ENDTAB
  0
TABLE
  2
VIEW
  5
6
330
0
100
AcDbSymbolTable
 70
     0
  0
ENDTAB
  0
TABLE
  2
UCS
  5
7
330
0
100
AcDbSymbolTable
 70
     0
  0
ENDTAB
  0
TABLE
  2
APPID
  5
9
330
0
100
AcDbSymbolTable
 70
     1
  0
APPID
  5
12
330
9
100
AcDbSymbolTableRecord
100
AcDbRegAppTableRecord
  2
ACAD
 70
     0
  0
ENDTAB
  0
TABLE
  2
DIMSTYLE
  5
A
330
0
100
AcDbSymbolTable
 70
     1
100
AcDbDimStyleTable
  0
DIMSTYLE
105
27
330
A
100
AcDbSymbolTableRecord
100
AcDbDimStyleTableRecord
  2
Standard
 70
     0
340
11
  0
ENDTAB
  0
TABLE
  2
BLOCK_RECORD
  5
1
330
0
100
AcDbSymbolTable
 70
     3
  0
BLOCK_RECORD
  5
1F
330
1
100
AcDbSymbolTableRecord
100
AcDbBlockTableRecord
  2
*Model_Space
340
22
  0
BLOCK_RECORD
  5
1B
330
1
100
AcDbSymbolTableRecord
100
AcDbBlockTableRecord
  2
*Paper_Space
340
1E
  0
BLOCK_RECORD
  5
23
330
1
100
AcDbSymbolTableRecord
100
AcDbBlockTableRecord
  2
*Paper_Space0
340
26
  0
BLOCK_RECORD
  5
7B
330
1
100
AcDbSymbolTableRecord
100
AcDbBlockTableRecord
  2
block 2
340
0
102
{BLKREFS
331
7C
102
}
  0
BLOCK_RECORD
  5
87
330
1
100
AcDbSymbolTableRecord
100
AcDbBlockTableRecord
  2
block 3
340
0
102
{BLKREFS
331
88
102
}
  0
ENDTAB
  0
ENDSEC
  0
SECTION
  2
BLOCKS
  0
BLOCK
  5
20
330
1F
100
AcDbEntity
  8
0
100
AcDbBlockBegin
  2
*Model_Space
 70
     0
 71
     0
 10
0.0
 20
0.0
 30
0.0
  3
*Model_Space
  1

  0
ENDBLK
  5
21
330
1F
100
AcDbEntity
  8
0
100
AcDbBlockEnd
  0
BLOCK
  5
1C
330
1B
100
AcDbEntity
 67
     1
  8
0
100
AcDbBlockBegin
  2
*Paper_Space
 70
     0
 71
     0
 10
0.0
 20
0.0
 30
0.0
  3
*Paper_Space
  1

  0
ENDBLK
  5
1D
330
1B
100
AcDbEntity
 67
     1
  8
0
100
AcDbBlockEnd
  0
BLOCK
  5
24
330
23
100
AcDbEntity
  8
0
100
AcDbBlockBegin
  2
*Paper_Space0
 70
     0
 71
     0
 10
0.0
 20
0.0
 30
0.0
  3
*Paper_Space0
  1

  0
ENDBLK
  5
25
330
23
100
AcDbEntity
  8
0
100
AcDbBlockEnd
  0
BLOCK
  5
7D
330
7B
100
AcDbEntity
  8
0
100
AcDbBlockBegin
  2
block 2
 70
     0
 71
     0
 10
0.0
 20
0.0
 30
0.0
  3
block 2
  1

  0
ENDBLK
  5
7E
330
7B
100
AcDbEntity
  8
0
100
AcDbBlockEnd
  0
BLOCK
  5
89
330
87
100
AcDbEntity
  8
0
100
AcDbBlockBegin
  2
block 3
 70
     0
 71
     0
 10
0.0
 20
0.0
 30
0.0
  3
block 3
  1

  0
POLYLINE
  5
8B
330
87
100
AcDbEntity
  8
1800 outline
 62
   250
370
    25
100
AcDb2dPolyline
 66
     1
 10
0.0
 20
0.0
 30
0.0
  0
VERTEX
  5
8C
330
8B
100
AcDbEntity
  8
1800 outline
 62
   250
370
    25
100
AcDbVertex
100
AcDb2dVertex
 10
642.1821626541247
 20
-939.5436846609474
 30
0.0
  0
VERTEX
  5
8D
330
8B
100
AcDbEntity
  8
1800 outline
 62
   250
370
    25
100
AcDbVertex
100
AcDb2dVertex
 10
642.1821626541247
 20
-964.5433645592115
 30
0.0
  0
VERTEX
  5
8E
330
8B
100
AcDbEntity
  8
1800 outline
 62
   250
370
    25
100
AcDbVertex
100
AcDb2dVertex
 10
617.1821382463121
 20
-964.5433645592115
 30
0.0
  0
VERTEX
  5
8F
330
8B
100
AcDbEntity
  8
1800 outline
 62
   250
370
    25
100
AcDbVertex
100
AcDb2dVertex
 10
617.1821382463121
 20
-940.7501570998819
 30
0.0
  0
VERTEX
  5
90
330
8B
100
AcDbEntity
  8
1800 outline
 62
   250
370
    25
100
AcDbVertex
100
AcDb2dVertex
 10
642.1821626541247
 20
-939.5436846609474
 30
0.0
  0
SEQEND
  5
91
330
8B
100
AcDbEntity
  8
1800 outline
370
    25
  0
POLYLINE
  5
92
330
87
100
AcDbEntity
  8
1800 outline
 62
   250
370
    25
100
AcDb2dPolyline
 66
     1
 10
0.0
 20
0.0
 30
0.0
  0
VERTEX
  5
93
330
92
100
AcDbEntity
  8
1800 outline
 62
   250
370
    25
100
AcDbVertex
100
AcDb2dVertex
 10
1241.476676121923
 20
-913.2024845807272
 30
0.0
  0
VERTEX
  5
94
330
92
100
AcDbEntity
  8
1800 outline
 62
   250
370
    25
100
AcDbVertex
100
AcDb2dVertex
 10
1241.476676121923
 20
-938.2021644789912
 30
0.0
  0
VERTEX
  5
95
330
92
100
AcDbEntity
  8
1800 outline
 62
   250
370
    25
100
AcDbVertex
100
AcDb2dVertex
 10
1216.476996223658
 20
-938.2021644789912
 30
0.0
  0
VERTEX
  5
96
330
92
100
AcDbEntity
  8
1800 outline
 62
   250
370
    25
100
AcDbVertex
100
AcDb2dVertex
 10
1216.476996223658
 20
-914.4089570196617
 30
0.0
  0
VERTEX
  5
97
330
92
100
AcDbEntity
  8
1800 outline
 62
   250
370
    25
100
AcDbVertex
100
AcDb2dVertex
 10
1241.476676121923
 20
-913.2024845807272
 30
0.0
  0
SEQEND
  5
98
330
92
100
AcDbEntity
  8
1800 outline
370
    25
  0
POLYLINE
  5
99
330
87
100
AcDbEntity
  8
1800 outline
 62
   250
370
    25
100
AcDb2dPolyline
 66
     1
 10
0.0
 20
0.0
 30
0.0
  0
VERTEX
  5
9A
330
99
100
AcDbEntity
  8
1800 outline
 62
   250
370
    25
100
AcDbVertex
100
AcDb2dVertex
 10
1843.002750190291
 20
-886.5153969137879
 30
0.0
  0
VERTEX
  5
9B
330
99
100
AcDbEntity
  8
1800 outline
 62
   250
370
    25
100
AcDbVertex
100
AcDb2dVertex
 10
1843.002750190291
 20
-911.5150768120518
 30
0.0
  0
VERTEX
  5
9C
330
99
100
AcDbEntity
  8
1800 outline
 62
   250
370
    25
100
AcDbVertex
100
AcDb2dVertex
 10
1818.00238127293
 20
-911.5150768120518
 30
0.0
  0
VERTEX
  5
9D
330
99
100
AcDbEntity
  8
1800 outline
 62
   250
370
    25
100
AcDbVertex
100
AcDb2dVertex
 10
1818.00238127293
 20
-887.7218693527224
 30
0.0
  0
VERTEX
  5
9E
330
99
100
AcDbEntity
  8
1800 outline
 62
   250
370
    25
100
AcDbVertex
100
AcDb2dVertex
 10
1843.002750190291
 20
-886.5153969137879
 30
0.0
  0
SEQEND
  5
9F
330
99
100
AcDbEntity
  8
1800 outline
370
    25
  0
POLYLINE
  5
A0
330
87
100
AcDbEntity
  8
1800 outline
 62
   250
370
    25
100
AcDb2dPolyline
 66
     1
 10
0.0
 20
0.0
 30
0.0
  0
VERTEX
  5
A1
330
A0
100
AcDbEntity
  8
1800 outline
 62
   250
370
    25
100
AcDbVertex
100
AcDb2dVertex
 10
642.1782007943166
 20
-276.8621703409407
 30
0.0
  0
VERTEX
  5
A2
330
A0
100
AcDbEntity
  8
1800 outline
 62
   250
370
    25
100
AcDbVertex
100
AcDb2dVertex
 10
642.1782007943166
 20
-251.8624904426767
 30
0.0
  0
VERTEX
  5
A3
330
A0
100
AcDbEntity
  8
1800 outline
 62
   250
370
    25
100
AcDbVertex
100
AcDb2dVertex
 10
617.1781763865041
 20
-251.8624904426767
 30
0.0
  0
VERTEX
  5
A4
330
A0
100
AcDbEntity
  8
1800 outline
 62
   250
370
    25
100
AcDbVertex
100
AcDb2dVertex
 10
617.1781763865041
 20
-275.6556979020062
 30
0.0
  0
VERTEX
  5
A5
330
A0
100
AcDbEntity
  8
1800 outline
 62
   250
370
    25
100
AcDbVertex
100
AcDb2dVertex
 10
642.1782007943166
 20
-276.8621703409407
 30
0.0
  0
SEQEND
  5
A6
330
A0
100
AcDbEntity
  8
1800 outline
370
    25
  0
POLYLINE
  5
A7
330
87
100
AcDbEntity
  8
1800 outline
 62
   250
370
    25
100
AcDb2dPolyline
 66
     1
 10
0.0
 20
0.0
 30
0.0
  0
VERTEX
  5
A8
330
A7
100
AcDbEntity
  8
1800 outline
 62
   250
370
    25
100
AcDbVertex
100
AcDb2dVertex
 10
1241.47254200734
 20
-303.203370421161
 30
0.0
  0
VERTEX
  5
A9
330
A7
100
AcDbEntity
  8
1800 outline
 62
   250
370
    25
100
AcDbVertex
100
AcDb2dVertex
 10
1241.47254200734
 20
-278.203690522897
 30
0.0
  0
VERTEX
  5
AA
330
A7
100
AcDbEntity
  8
1800 outline
 62
   250
370
    25
100
AcDbVertex
100
AcDb2dVertex
 10
1216.473206618625
 20
-278.203690522897
 30
0.0
  0
VERTEX
  5
AB
330
A7
100
AcDbEntity
  8
1800 outline
 62
   250
370
    25
100
AcDbVertex
100
AcDb2dVertex
 10
1216.473206618625
 20
-301.9968979822265
 30
0.0
  0
VERTEX
  5
AC
330
A7
100
AcDbEntity
  8
1800 outline
 62
   250
370
    25
100
AcDbVertex
100
AcDb2dVertex
 10
1241.47254200734
 20
-303.203370421161
 30
0.0
  0
SEQEND
  5
AD
330
A7
100
AcDbEntity
  8
1800 outline
370
    25
  0
POLYLINE
  5
AE
330
87
100
AcDbEntity
  8
1800 outline
 62
   250
370
    25
100
AcDb2dPolyline
 66
     1
 10
0.0
 20
0.0
 30
0.0
  0
VERTEX
  5
AF
330
AE
100
AcDbEntity
  8
1800 outline
 62
   250
370
    25
100
AcDbVertex
100
AcDb2dVertex
 10
1842.998616075709
 20
-329.8904580881003
 30
0.0
  0
VERTEX
  5
B0
330
AE
100
AcDbEntity
  8
1800 outline
 62
   250
370
    25
100
AcDbVertex
100
AcDb2dVertex
 10
1842.998616075709
 20
-304.8907781898363
 30
0.0
  0
VERTEX
  5
B1
330
AE
100
AcDbEntity
  8
1800 outline
 62
   250
370
    25
100
AcDbVertex
100
AcDb2dVertex
 10
1817.998936177445
 20
-304.8907781898363
 30
0.0
  0
VERTEX
  5
B2
330
AE
100
AcDbEntity
  8
1800 outline
 62
   250
370
    25
100
AcDbVertex
100
AcDb2dVertex
 10
1817.998936177445
 20
-328.6839856491658
 30
0.0
  0
VERTEX
  5
B3
330
AE
100
AcDbEntity
  8
1800 outline
 62
   250
370
    25
100
AcDbVertex
100
AcDb2dVertex
 10
1842.998616075709
 20
-329.8904580881003
 30
0.0
  0
SEQEND
  5
B4
330
AE
100
AcDbEntity
  8
1800 outline
370
    25
  0
ENDBLK
  5
8A
330
87
100
AcDbEntity
  8
0
100
AcDbBlockEnd
  0
ENDSEC
  0
SECTION
  2
ENTITIES
  0
POLYLINE
  5
3C
330
1F
100
AcDbEntity
  8
full strips
 62
   250
370
    25
100
AcDb2dPolyline
 66
     1
 10
0.0
 20
0.0
 30
0.0
  0
VERTEX
  5
3D
330
3C
100
AcDbEntity
  8
full strips
 62
   250
370
    25
100
AcDbVertex
100
AcDb2dVertex
 10
642.1807846159305
 20
-959.5493541437933
 30
0.0
  0
VERTEX
  5
3E
330
3C
100
AcDbEntity
  8
full strips
 62
   250
370
    25
100
AcDbVertex
100
AcDb2dVertex
 10
617.180760208118
 20
-959.5493541437933
 30
0.0
  0
VERTEX
  5
3F
330
3C
100
AcDbEntity
  8
full strips
 62
   250
370
    25
100
AcDbVertex
100
AcDb2dVertex
 10
617.180760208118
 20
-747.7683103599329
 30
0.0
  0
VERTEX
  5
40
330
3C
100
AcDbEntity
  8
full strips
 62
   250
370
    25
100
AcDbVertex
100
AcDb2dVertex
 10
642.1807846159305
 20
-747.7683103599329
 30
0.0
  0
VERTEX
  5
41
330
3C
100
AcDbEntity
  8
full strips
 62
   250
370
    25
100
AcDbVertex
100
AcDb2dVertex
 10
642.1807846159305
 20
-959.5493541437933
 30
0.0
  0
SEQEND
  5
42
330
3C
100
AcDbEntity
  8
full strips
370
    25
  0
POLYLINE
  5
43
330
1F
100
AcDbEntity
  8
full strips
 62
   250
370
    25
100
AcDb2dPolyline
 66
     1
 10
0.0
 20
0.0
 30
0.0
  0
VERTEX
  5
44
330
43
100
AcDbEntity
  8
full strips
 62
   250
370
    25
100
AcDbVertex
100
AcDb2dVertex
 10
1241.475298083728
 20
-941.7013479633595
 30
0.0
  0
VERTEX
  5
45
330
43
100
AcDbEntity
  8
full strips
 62
   250
370
    25
100
AcDbVertex
100
AcDb2dVertex
 10
1216.475618185465
 20
-941.7013479633595
 30
0.0
  0
VERTEX
  5
46
330
43
100
AcDbEntity
  8
full strips
 62
   250
370
    25
100
AcDbVertex
100
AcDb2dVertex
 10
1216.475618185465
 20
-697.3603622388543
 30
0.0
  0
VERTEX
  5
47
330
43
100
AcDbEntity
  8
full strips
 62
   250
370
    25
100
AcDbVertex
100
AcDb2dVertex
 10
1241.475298083728
 20
-697.3603622388543
 30
0.0
  0
VERTEX
  5
48
330
43
100
AcDbEntity
  8
full strips
 62
   250
370
    25
100
AcDbVertex
100
AcDb2dVertex
 10
1241.475298083728
 20
-941.7013479633595
 30
0.0
  0
SEQEND
  5
49
330
43
100
AcDbEntity
  8
full strips
370
    25
  0
POLYLINE
  5
4A
330
1F
100
AcDbEntity
  8
full strips
 62
   250
370
    25
100
AcDb2dPolyline
 66
     1
 10
0.0
 20
0.0
 30
0.0
  0
VERTEX
  5
4B
330
4A
100
AcDbEntity
  8
full strips
 62
   250
370
    25
100
AcDbVertex
100
AcDb2dVertex
 10
1843.001372152097
 20
-905.0196937841617
 30
0.0
  0
VERTEX
  5
4C
330
4A
100
AcDbEntity
  8
full strips
 62
   250
370
    25
100
AcDbVertex
100
AcDb2dVertex
 10
1818.001692253833
 20
-905.0196937841617
 30
0.0
  0
VERTEX
  5
4D
330
4A
100
AcDbEntity
  8
full strips
 62
   250
370
    25
100
AcDbVertex
100
AcDb2dVertex
 10
1818.001692253833
 20
-576.8652193110788
 30
0.0
  0
VERTEX
  5
4E
330
4A
100
AcDbEntity
  8
full strips
 62
   250
370
    25
100
AcDbVertex
100
AcDb2dVertex
 10
1843.001372152097
 20
-576.8652193110788
 30
0.0
  0
VERTEX
  5
4F
330
4A
100
AcDbEntity
  8
full strips
 62
   250
370
    25
100
AcDbVertex
100
AcDb2dVertex
 10
1843.001372152097
 20
-905.0196937841617
 30
0.0
  0
SEQEND
  5
50
330
4A
100
AcDbEntity
  8
full strips
370
    25
  0
POLYLINE
  5
51
330
1F
100
AcDbEntity
  8
full strips
 62
   250
370
    25
100
AcDb2dPolyline
 66
     1
 10
0.0
 20
0.0
 30
0.0
  0
VERTEX
  5
52
330
51
100
AcDbEntity
  8
full strips
 62
   250
370
    25
100
AcDbVertex
100
AcDb2dVertex
 10
642.1807846159305
 20
-663.4365069955992
 30
0.0
  0
VERTEX
  5
53
330
51
100
AcDbEntity
  8
full strips
 62
   250
370
    25
100
AcDbVertex
100
AcDb2dVertex
 10
617.180760208118
 20
-663.4365069955992
 30
0.0
  0
VERTEX
  5
54
330
51
100
AcDbEntity
  8
full strips
 62
   250
370
    25
100
AcDbVertex
100
AcDb2dVertex
 10
617.180760208118
 20
-249.4386935140292
 30
0.0
  0
VERTEX
  5
55
330
51
100
AcDbEntity
  8
full strips
 62
   250
370
    25
100
AcDbVertex
100
AcDb2dVertex
 10
642.1807846159305
 20
-249.4386935140292
 30
0.0
  0
VERTEX
  5
56
330
51
100
AcDbEntity
  8
full strips
 62
   250
370
    25
100
AcDbVertex
100
AcDb2dVertex
 10
642.1807846159305
 20
-663.4365069955992
 30
0.0
  0
SEQEND
  5
57
330
51
100
AcDbEntity
  8
full strips
370
    25
  0
POLYLINE
  5
58
330
1F
100
AcDbEntity
  8
full strips
 62
   250
370
    25
100
AcDb2dPolyline
 66
     1
 10
0.0
 20
0.0
 30
0.0
  0
VERTEX
  5
59
330
58
100
AcDbEntity
  8
full strips
 62
   250
370
    25
100
AcDbVertex
100
AcDb2dVertex
 10
1241.475298083728
 20
-619.2641817028228
 30
0.0
  0
VERTEX
  5
5A
330
58
100
AcDbEntity
  8
full strips
 62
   250
370
    25
100
AcDbVertex
100
AcDb2dVertex
 10
1216.475273675916
 20
-619.2641817028228
 30
0.0
  0
VERTEX
  5
5B
330
58
100
AcDbEntity
  8
full strips
 62
   250
370
    25
100
AcDbVertex
100
AcDb2dVertex
 10
1216.475273675916
 20
-277.4257879623276
 30
0.0
  0
VERTEX
  5
5C
330
58
100
AcDbEntity
  8
full strips
 62
   250
370
    25
100
AcDbVertex
100
AcDb2dVertex
 10
1241.475298083728
 20
-277.4257879623276
 30
0.0
  0
VERTEX
  5
5D
330
58
100
AcDbEntity
  8
full strips
 62
   250
370
    25
100
AcDbVertex
100
AcDb2dVertex
 10
1241.475298083728
 20
-619.2641817028228
 30
0.0
  0
SEQEND
  5
5E
330
58
100
AcDbEntity
  8
full strips
370
    25
  0
POLYLINE
  5
5F
330
1F
100
AcDbEntity
  8
full strips
 62
   250
370
    25
100
AcDb2dPolyline
 66
     1
 10
0.0
 20
0.0
 30
0.0
  0
VERTEX
  5
60
330
5F
100
AcDbEntity
  8
full strips
 62
   250
370
    25
100
AcDbVertex
100
AcDb2dVertex
 10
1843.001372152097
 20
-496.5664169765529
 30
0.0
  0
VERTEX
  5
61
330
5F
100
AcDbEntity
  8
full strips
 62
   250
370
    25
100
AcDbVertex
100
AcDb2dVertex
 10
1818.001692253833
 20
-496.5664169765529
 30
0.0
  0
VERTEX
  5
62
330
5F
100
AcDbEntity
  8
full strips
 62
   250
370
    25
100
AcDbVertex
100
AcDb2dVertex
 10
1818.001692253833
 20
-306.3015447910462
 30
0.0
  0
VERTEX
  5
63
330
5F
100
AcDbEntity
  8
full strips
 62
   250
370
    25
100
AcDbVertex
100
AcDb2dVertex
 10
1843.001372152097
 20
-306.3015447910462
 30
0.0
  0
VERTEX
  5
64
330
5F
100
AcDbEntity
  8
full strips
 62
   250
370
    25
100
AcDbVertex
100
AcDb2dVertex
 10
1843.001372152097
 20
-496.5664169765529
 30
0.0
  0
SEQEND
  5
65
330
5F
100
AcDbEntity
  8
full strips
370
    25
  0
SPLINE
  5
68
330
1F
100
AcDbEntity
  8
drill holes 1800
 62
   250
370
    25
100
AcDbSpline
210
0.0
220
0.0
230
1.0
 70
    11
 71
     3
 72
    17
 73
    13
 74
     0
 42
0.0000000001
 43
0.0000000001
 40
0.0
 40
0.0
 40
0.0
 40
0.0
 40
1.0
 40
1.0
 40
1.0
 40
2.0
 40
2.0
 40
2.0
 40
3.0
 40
3.0
 40
3.0
 40
4.0
 40
4.0
 40
4.0
 40
4.0
 10
635.4478622543326
 20
-311.3014118687892
 30
0.0
 10
635.4478622543326
 20
-314.0628281549913
 30
0.0
 10
633.2092392080172
 20
-316.3012789465323
 30
0.0
 10
630.4478229218151
 20
-316.3012789465323
 30
0.0
 10
627.6864066356131
 20
-316.3012789465323
 30
0.0
 10
625.4477835892978
 20
-314.0628281549913
 30
0.0
 10
625.4477835892978
 20
-311.3014118687892
 30
0.0
 10
625.4477835892978
 20
-308.5399955825872
 30
0.0
 10
627.6864066356131
 20
-306.3015447910462
 30
0.0
 10
630.4478229218151
 20
-306.3015447910462
 30
0.0
 10
633.2092392080172
 20
-306.3015447910462
 30
0.0
 10
635.4478622543326
 20
-308.5399955825872
 30
0.0
 10
635.4478622543326
 20
-311.3014118687892
 30
0.0
  0
SPLINE
  5
69
330
1F
100
AcDbEntity
  8
drill holes 1800
 62
   250
370
    25
100
AcDbSpline
210
0.0
220
0.0
230
1.0
 70
    11
 71
     3
 72
    17
 73
    13
 74
     0
 42
0.0000000001
 43
0.0000000001
 40
0.0
 40
0.0
 40
0.0
 40
0.0
 40
1.0
 40
1.0
 40
1.0
 40
2.0
 40
2.0
 40
2.0
 40
3.0
 40
3.0
 40
3.0
 40
4.0
 40
4.0
 40
4.0
 40
4.0
 10
635.4478622543326
 20
-905.0196937841617
 30
0.0
 10
635.4478622543326
 20
-902.2581052431855
 30
0.0
 10
633.2092392080172
 20
-900.0194821968702
 30
0.0
 10
630.4478229218151
 20
-900.0194821968702
 30
0.0
 10
627.6864066356131
 20
-900.0194821968702
 30
0.0
 10
625.4477835892978
 20
-902.2581052431855
 30
0.0
 10
625.4477835892978
 20
-905.0196937841617
 30
0.0
 10
625.4477835892978
 20
-907.7809378155895
 30
0.0
 10
627.6864066356131
 20
-910.0192163523564
 30
0.0
 10
630.4478229218151
 20
-910.0192163523564
 30
0.0
 10
633.2092392080172
 20
-910.0192163523564
 30
0.0
 10
635.4478622543326
 20
-907.7809378155895
 30
0.0
 10
635.4478622543326
 20
-905.0196937841617
 30
0.0
  0
SPLINE
  5
6A
330
1F
100
AcDbEntity
  8
drill holes 1800
 62
   250
370
    25
100
AcDbSpline
210
0.0
220
0.0
230
1.0
 70
    11
 71
     3
 72
    17
 73
    13
 74
     0
 42
0.0000000001
 43
0.0000000001
 40
0.0
 40
0.0
 40
0.0
 40
0.0
 40
1.0
 40
1.0
 40
1.0
 40
2.0
 40
2.0
 40
2.0
 40
3.0
 40
3.0
 40
3.0
 40
4.0
 40
4.0
 40
4.0
 40
4.0
 10
635.447517744784
 20
-761.1445826005125
 30
0.0
 10
635.447517744784
 20
-763.9058266319403
 30
0.0
 10
633.2088946984686
 20
-766.1444496782556
 30
0.0
 10
630.4474784122666
 20
-766.1444496782556
 30
0.0
 10
627.6860621260646
 20
-766.1444496782556
 30
0.0
 10
625.4474390797493
 20
-763.9058266319403
 30
0.0
 10
625.4474390797493
 20
-761.1445826005125
 30
0.0
 10
625.4474390797493
 20
-758.3833385690848
 30
0.0
 10
627.6860621260646
 20
-756.1447155227694
 30
0.0
 10
630.4474784122666
 20
-756.1447155227694
 30
0.0
 10
633.2088946984686
 20
-756.1447155227694
 30
0.0
 10
635.447517744784
 20
-758.3833385690848
 30
0.0
 10
635.447517744784
 20
-761.1445826005125
 30
0.0
  0
SPLINE
  5
6B
330
1F
100
AcDbEntity
  8
drill holes 1800
 62
   250
370
    25
100
AcDbSpline
210
0.0
220
0.0
230
1.0
 70
    11
 71
     3
 72
    17
 73
    13
 74
     0
 42
0.0000000001
 43
0.0000000001
 40
0.0
 40
0.0
 40
0.0
 40
0.0
 40
1.0
 40
1.0
 40
1.0
 40
2.0
 40
2.0
 40
2.0
 40
3.0
 40
3.0
 40
3.0
 40
4.0
 40
4.0
 40
4.0
 40
4.0
 10
635.447517744784
 20
-455.1763507976643
 30
0.0
 10
635.447517744784
 20
-452.4149345114623
 30
0.0
 10
633.2088946984686
 20
-450.1764837199212
 30
0.0
 10
630.4474784122666
 20
-450.1764837199212
 30
0.0
 10
627.6860621260646
 20
-450.1764837199212
 30
0.0
 10
625.4474390797493
 20
-452.4149345114623
 30
0.0
 10
625.4474390797493
 20
-455.1763507976643
 30
0.0
 10
625.4474390797493
 20
-457.9377670838663
 30
0.0
 10
627.6860621260646
 20
-460.1763901301816
 30
0.0
 10
630.4474784122666
 20
-460.1763901301816
 30
0.0
 10
633.2088946984686
 20
-460.1763901301816
 30
0.0
 10
635.447517744784
 20
-457.9377670838663
 30
0.0
 10
635.447517744784
 20
-455.1763507976643
 30
0.0
  0
SPLINE
  5
6C
330
1F
100
AcDbEntity
  8
drill holes 1800
 62
   250
370
    25
100
AcDbSpline
210
0.0
220
0.0
230
1.0
 70
    11
 71
     3
 72
    17
 73
    13
 74
     0
 42
0.0000000001
 43
0.0000000001
 40
0.0
 40
0.0
 40
0.0
 40
0.0
 40
1.0
 40
1.0
 40
1.0
 40
2.0
 40
2.0
 40
2.0
 40
3.0
 40
3.0
 40
3.0
 40
4.0
 40
4.0
 40
4.0
 40
4.0
 10
635.447517744784
 20
-608.1606389538626
 30
0.0
 10
635.447517744784
 20
-610.9218829852904
 30
0.0
 10
633.2088946984686
 20
-613.1605060316058
 30
0.0
 10
630.4474784122666
 20
-613.1605060316058
 30
0.0
 10
627.6860621260646
 20
-613.1605060316058
 30
0.0
 10
625.4474390797493
 20
-610.9218829852904
 30
0.0
 10
625.4474390797493
 20
-608.1606389538626
 30
0.0
 10
625.4474390797493
 20
-605.3990504128864
 30
0.0
 10
627.6860621260646
 20
-603.1604273665711
 30
0.0
 10
630.4474784122666
 20
-603.1604273665711
 30
0.0
 10
633.2088946984686
 20
-603.1604273665711
 30
0.0
 10
635.447517744784
 20
-605.3990504128864
 30
0.0
 10
635.447517744784
 20
-608.1606389538626
 30
0.0
  0
SPLINE
  5
6D
330
1F
100
AcDbEntity
  8
drill holes 1800
 62
   250
370
    25
100
AcDbSpline
210
0.0
220
0.0
230
1.0
 70
    11
 71
     3
 72
    17
 73
    13
 74
     0
 42
0.0000000001
 43
0.0000000001
 40
0.0
 40
0.0
 40
0.0
 40
0.0
 40
1.0
 40
1.0
 40
1.0
 40
2.0
 40
2.0
 40
2.0
 40
3.0
 40
3.0
 40
3.0
 40
4.0
 40
4.0
 40
4.0
 40
4.0
 10
1235.447759022735
 20
-608.1602944443141
 30
0.0
 10
1235.447759022735
 20
-605.3990504128864
 30
0.0
 10
1233.20913597642
 20
-603.1604273665711
 30
0.0
 10
1230.447547435444
 20
-603.1604273665711
 30
0.0
 10
1227.685958894467
 20
-603.1604273665711
 30
0.0
 10
1225.447335848152
 20
-605.3990504128864
 30
0.0
 10
1225.447335848152
 20
-608.1602944443141
 30
0.0
 10
1225.447335848152
 20
-610.9218829852904
 30
0.0
 10
1227.685958894467
 20
-613.1605060316058
 30
0.0
 10
1230.447547435444
 20
-613.1605060316058
 30
0.0
 10
1233.20913597642
 20
-613.1605060316058
 30
0.0
 10
1235.447759022735
 20
-610.9218829852904
 30
0.0
 10
1235.447759022735
 20
-608.1602944443141
 30
0.0
  0
SPLINE
  5
6E
330
1F
100
AcDbEntity
  8
drill holes 1800
 62
   250
370
    25
100
AcDbSpline
210
0.0
220
0.0
230
1.0
 70
    11
 71
     3
 72
    17
 73
    13
 74
     0
 42
0.0000000001
 43
0.0000000001
 40
0.0
 40
0.0
 40
0.0
 40
0.0
 40
1.0
 40
1.0
 40
1.0
 40
2.0
 40
2.0
 40
2.0
 40
3.0
 40
3.0
 40
3.0
 40
4.0
 40
4.0
 40
4.0
 40
4.0
 10
1235.447759022735
 20
-467.4536375784491
 30
0.0
 10
1235.447759022735
 20
-464.6923935470214
 30
0.0
 10
1233.20913597642
 20
-462.453770500706
 30
0.0
 10
1230.447547435444
 20
-462.453770500706
 30
0.0
 10
1227.685958894467
 20
-462.453770500706
 30
0.0
 10
1225.447335848152
 20
-464.6923935470214
 30
0.0
 10
1225.447335848152
 20
-467.4536375784491
 30
0.0
 10
1225.447335848152
 20
-470.2152261194254
 30
0.0
 10
1227.685958894467
 20
-472.4538491657407
 30
0.0
 10
1230.447547435444
 20
-472.4538491657407
 30
0.0
 10
1233.20913597642
 20
-472.4538491657407
 30
0.0
 10
1235.447759022735
 20
-470.2152261194254
 30
0.0
 10
1235.447759022735
 20
-467.4536375784491
 30
0.0
  0
SPLINE
  5
6F
330
1F
100
AcDbEntity
  8
drill holes 1800
 62
   250
370
    25
100
AcDbSpline
210
0.0
220
0.0
230
1.0
 70
    11
 71
     3
 72
    17
 73
    13
 74
     0
 42
0.0000000001
 43
0.0000000001
 40
0.0
 40
0.0
 40
0.0
 40
0.0
 40
1.0
 40
1.0
 40
1.0
 40
2.0
 40
2.0
 40
2.0
 40
3.0
 40
3.0
 40
3.0
 40
4.0
 40
4.0
 40
4.0
 40
4.0
 10
1235.447759022735
 20
-748.8676403292761
 30
0.0
 10
1235.447759022735
 20
-751.628884360704
 30
0.0
 10
1233.20913597642
 20
-753.8675074070193
 30
0.0
 10
1230.447547435444
 20
-753.8675074070193
 30
0.0
 10
1227.685958894467
 20
-753.8675074070193
 30
0.0
 10
1225.447335848152
 20
-751.628884360704
 30
0.0
 10
1225.447335848152
 20
-748.8676403292761
 30
0.0
 10
1225.447335848152
 20
-746.1060517883
 30
0.0
 10
1227.685958894467
 20
-743.8674287419846
 30
0.0
 10
1230.447547435444
 20
-743.8674287419846
 30
0.0
 10
1233.20913597642
 20
-743.8674287419846
 30
0.0
 10
1235.447759022735
 20
-746.1060517883
 30
0.0
 10
1235.447759022735
 20
-748.8676403292761
 30
0.0
  0
SPLINE
  5
70
330
1F
100
AcDbEntity
  8
drill holes 1800
 62
   250
370
    25
100
AcDbSpline
210
0.0
220
0.0
230
1.0
 70
    11
 71
     3
 72
    17
 73
    13
 74
     0
 42
0.0000000001
 43
0.0000000001
 40
0.0
 40
0.0
 40
0.0
 40
0.0
 40
1.0
 40
1.0
 40
1.0
 40
2.0
 40
2.0
 40
2.0
 40
3.0
 40
3.0
 40
3.0
 40
4.0
 40
4.0
 40
4.0
 40
4.0
 10
1835.447655791138
 20
-608.1606389538626
 30
0.0
 10
1835.447655791138
 20
-610.9218829852904
 30
0.0
 10
1833.209032744823
 20
-613.1605060316058
 30
0.0
 10
1830.447444203847
 20
-613.1605060316058
 30
0.0
 10
1827.68585566287
 20
-613.1605060316058
 30
0.0
 10
1825.447232616555
 20
-610.9218829852904
 30
0.0
 10
1825.447232616555
 20
-608.1606389538626
 30
0.0
 10
1825.447232616555
 20
-605.3990504128864
 30
0.0
 10
1827.68585566287
 20
-603.1604273665711
 30
0.0
 10
1830.447444203847
 20
-603.1604273665711
 30
0.0
 10
1833.209032744823
 20
-603.1604273665711
 30
0.0
 10
1835.447655791138
 20
-605.3990504128864
 30
0.0
 10
1835.447655791138
 20
-608.1606389538626
 30
0.0
  0
SPLINE
  5
71
330
1F
100
AcDbEntity
  8
drill holes 1800
 62
   250
370
    25
100
AcDbSpline
210
0.0
220
0.0
230
1.0
 70
    11
 71
     3
 72
    17
 73
    13
 74
     0
 42
0.0000000001
 43
0.0000000001
 40
0.0
 40
0.0
 40
0.0
 40
0.0
 40
1.0
 40
1.0
 40
1.0
 40
2.0
 40
2.0
 40
2.0
 40
3.0
 40
3.0
 40
3.0
 40
4.0
 40
4.0
 40
4.0
 40
4.0
 10
1235.447414513187
 20
-335.4089842911478
 30
0.0
 10
1235.447414513187
 20
-338.1704005773498
 30
0.0
 10
1233.20913597642
 20
-340.4088513688909
 30
0.0
 10
1230.447547435444
 20
-340.4088513688909
 30
0.0
 10
1227.685958894467
 20
-340.4088513688909
 30
0.0
 10
1225.447680357701
 20
-338.1704005773498
 30
0.0
 10
1225.447680357701
 20
-335.4089842911478
 30
0.0
 10
1225.447680357701
 20
-332.6475680049458
 30
0.0
 10
1227.685958894467
 20
-330.4091172134047
 30
0.0
 10
1230.447547435444
 20
-330.4091172134047
 30
0.0
 10
1233.20913597642
 20
-330.4091172134047
 30
0.0
 10
1235.447414513187
 20
-332.6475680049458
 30
0.0
 10
1235.447414513187
 20
-335.4089842911478
 30
0.0
  0
SPLINE
  5
72
330
1F
100
AcDbEntity
  8
drill holes 1800
 62
   250
370
    25
100
AcDbSpline
210
0.0
220
0.0
230
1.0
 70
    11
 71
     3
 72
    17
 73
    13
 74
     0
 42
0.0000000001
 43
0.0000000001
 40
0.0
 40
0.0
 40
0.0
 40
0.0
 40
1.0
 40
1.0
 40
1.0
 40
2.0
 40
2.0
 40
2.0
 40
3.0
 40
3.0
 40
3.0
 40
4.0
 40
4.0
 40
4.0
 40
4.0
 10
1235.447414513187
 20
-880.9116045974805
 30
0.0
 10
1235.447414513187
 20
-878.1500160565042
 30
0.0
 10
1233.20913597642
 20
-875.9113930101888
 30
0.0
 10
1230.447547435444
 20
-875.9113930101888
 30
0.0
 10
1227.685958894467
 20
-875.9113930101888
 30
0.0
 10
1225.447680357701
 20
-878.1500160565042
 30
0.0
 10
1225.447680357701
 20
-880.9116045974805
 30
0.0
 10
1225.447680357701
 20
-883.6728486289082
 30
0.0
 10
1227.685958894467
 20
-885.911127165675
 30
0.0
 10
1230.447547435444
 20
-885.911127165675
 30
0.0
 10
1233.20913597642
 20
-885.911127165675
 30
0.0
 10
1235.447414513187
 20
-883.6728486289082
 30
0.0
 10
1235.447414513187
 20
-880.9116045974805
 30
0.0
  0
SPLINE
  5
73
330
1F
100
AcDbEntity
  8
drill holes 1800
 62
   250
370
    25
100
AcDbSpline
210
0.0
220
0.0
230
1.0
 70
    11
 71
     3
 72
    17
 73
    13
 74
     0
 42
0.0000000001
 43
0.0000000001
 40
0.0
 40
0.0
 40
0.0
 40
0.0
 40
1.0
 40
1.0
 40
1.0
 40
2.0
 40
2.0
 40
2.0
 40
3.0
 40
3.0
 40
3.0
 40
4.0
 40
4.0
 40
4.0
 40
4.0
 10
1835.447655791138
 20
-479.5164671652772
 30
0.0
 10
1835.447655791138
 20
-482.2778834514792
 30
0.0
 10
1833.209032744823
 20
-484.5163342430203
 30
0.0
 10
1830.447444203847
 20
-484.5163342430203
 30
0.0
 10
1827.68585566287
 20
-484.5163342430203
 30
0.0
 10
1825.447232616555
 20
-482.2778834514792
 30
0.0
 10
1825.447232616555
 20
-479.5164671652772
 30
0.0
 10
1825.447232616555
 20
-476.7550508790752
 30
0.0
 10
1827.68585566287
 20
-474.5164278327598
 30
0.0
 10
1830.447444203847
 20
-474.5164278327598
 30
0.0
 10
1833.209032744823
 20
-474.5164278327598
 30
0.0
 10
1835.447655791138
 20
-476.7550508790752
 30
0.0
 10
1835.447655791138
 20
-479.5164671652772
 30
0.0
  0
SPLINE
  5
74
330
1F
100
AcDbEntity
  8
drill holes 1800
 62
   250
370
    25
100
AcDbSpline
210
0.0
220
0.0
230
1.0
 70
    11
 71
     3
 72
    17
 73
    13
 74
     0
 42
0.0000000001
 43
0.0000000001
 40
0.0
 40
0.0
 40
0.0
 40
0.0
 40
1.0
 40
1.0
 40
1.0
 40
2.0
 40
2.0
 40
2.0
 40
3.0
 40
3.0
 40
3.0
 40
4.0
 40
4.0
 40
4.0
 40
4.0
 10
1835.447655791138
 20
-736.8042939781253
 30
0.0
 10
1835.447655791138
 20
-734.0430499466976
 30
0.0
 10
1833.209032744823
 20
-731.8044269003823
 30
0.0
 10
1830.447444203847
 20
-731.8044269003823
 30
0.0
 10
1827.68585566287
 20
-731.8044269003823
 30
0.0
 10
1825.447232616555
 20
-734.0430499466976
 30
0.0
 10
1825.447232616555
 20
-736.8042939781253
 30
0.0
 10
1825.447232616555
 20
-739.5658825191016
 30
0.0
 10
1827.68585566287
 20
-741.804505565417
 30
0.0
 10
1830.447444203847
 20
-741.804505565417
 30
0.0
 10
1833.209032744823
 20
-741.804505565417
 30
0.0
 10
1835.447655791138
 20
-739.5658825191016
 30
0.0
 10
1835.447655791138
 20
-736.8042939781253
 30
0.0
  0
SPLINE
  5
75
330
1F
100
AcDbEntity
  8
drill holes 1800
 62
   250
370
    25
100
AcDbSpline
210
0.0
220
0.0
230
1.0
 70
    11
 71
     3
 72
    17
 73
    13
 74
     0
 42
0.0000000001
 43
0.0000000001
 40
0.0
 40
0.0
 40
0.0
 40
0.0
 40
1.0
 40
1.0
 40
1.0
 40
2.0
 40
2.0
 40
2.0
 40
3.0
 40
3.0
 40
3.0
 40
4.0
 40
4.0
 40
4.0
 40
4.0
 10
1835.447655791138
 20
-359.4979531978859
 30
0.0
 10
1835.447655791138
 20
-362.2593694840879
 30
0.0
 10
1833.209032744823
 20
-364.4979925304033
 30
0.0
 10
1830.447444203847
 20
-364.4979925304033
 30
0.0
 10
1827.68585566287
 20
-364.4979925304033
 30
0.0
 10
1825.447232616555
 20
-362.2593694840879
 30
0.0
 10
1825.447232616555
 20
-359.4979531978859
 30
0.0
 10
1825.447232616555
 20
-356.7365369116839
 30
0.0
 10
1827.68585566287
 20
-354.4979138653686
 30
0.0
 10
1830.447444203847
 20
-354.4979138653686
 30
0.0
 10
1833.209032744823
 20
-354.4979138653686
 30
0.0
 10
1835.447655791138
 20
-356.7365369116839
 30
0.0
 10
1835.447655791138
 20
-359.4979531978859
 30
0.0
  0
SPLINE
  5
76
330
1F
100
AcDbEntity
  8
drill holes 1800
 62
   250
370
    25
100
AcDbSpline
210
0.0
220
0.0
230
1.0
 70
    11
 71
     3
 72
    17
 73
    13
 74
     0
 42
0.0000000001
 43
0.0000000001
 40
0.0
 40
0.0
 40
0.0
 40
0.0
 40
1.0
 40
1.0
 40
1.0
 40
2.0
 40
2.0
 40
2.0
 40
3.0
 40
3.0
 40
3.0
 40
4.0
 40
4.0
 40
4.0
 40
4.0
 10
1835.447655791138
 20
-856.8234969646136
 30
0.0
 10
1835.447655791138
 20
-854.0619084236373
 30
0.0
 10
1833.209032744823
 20
-851.823285377322
 30
0.0
 10
1830.447444203847
 20
-851.823285377322
 30
0.0
 10
1827.68585566287
 20
-851.823285377322
 30
0.0
 10
1825.447232616555
 20
-854.0619084236373
 30
0.0
 10
1825.447232616555
 20
-856.8234969646136
 30
0.0
 10
1825.447232616555
 20
-859.5850855055899
 30
0.0
 10
1827.68585566287
 20
-861.8237085519053
 30
0.0
 10
1830.447444203847
 20
-861.8237085519053
 30
0.0
 10
1833.209032744823
 20
-861.8237085519053
 30
0.0
 10
1835.447655791138
 20
-859.5850855055899
 30
0.0
 10
1835.447655791138
 20
-856.8234969646136
 30
0.0
  0
INSERT
  5
7C
330
1F
100
AcDbEntity
  8
1800 outline
100
AcDbBlockReference
  2
block 2
 10
0.0
 20
0.0
 30
0.0
  0
POLYLINE
  5
7F
330
1F
100
AcDbEntity
  8
1800 outline
 62
   250
370
    25
100
AcDb2dPolyline
 66
     1
 10
0.0
 20
0.0
 30
0.0
  0
VERTEX
  5
80
330
7F
100
AcDbEntity
  8
1800 outline
 62
   250
370
    25
100
AcDbVertex
100
AcDb2dVertex
 10
2137.580118280709
 20
-879.7840248451582
 30
0.0
  0
VERTEX
  5
81
330
7F
100
AcDbEntity
  8
1800 outline
 62
   250
370
    25
100
AcDbVertex
100
AcDb2dVertex
 10
336.3966931667689
 20
-959.5493541437933
 30
0.0
  0
VERTEX
  5
82
330
7F
100
AcDbEntity
  8
1800 outline
 62
   250
370
    25
100
AcDbVertex
100
AcDb2dVertex
 10
336.3966931667689
 20
-257.0375406258448
 30
0.0
  0
VERTEX
  5
83
330
7F
100
AcDbEntity
  8
1800 outline
 62
   250
370
    25
100
AcDbVertex
100
AcDb2dVertex
 10
2137.576328675676
 20
-336.8381821532037
 30
0.0
  0
VERTEX
  5
84
330
7F
100
AcDbEntity
  8
1800 outline
 62
   250
370
    25
100
AcDbVertex
100
AcDb2dVertex
 10
2123.048016504828
 20
-608.3111896265681
 30
0.0
  0
VERTEX
  5
85
330
7F
100
AcDbEntity
  8
1800 outline
 62
   250
370
    25
100
AcDbVertex
100
AcDb2dVertex
 10
2137.580118280709
 20
-879.7840248451582
 30
0.0
  0
SEQEND
  5
86
330
7F
100
AcDbEntity
  8
1800 outline
370
    25
  0
INSERT
  5
88
330
1F
100
AcDbEntity
  8
1800 outline
100
AcDbBlockReference
  2
block 3
 10
0.0
 20
0.0
 30
0.0
  0
ENDSEC
  0
SECTION
  2
OBJECTS
  0
DICTIONARY
  5
C
330
0
100
AcDbDictionary
281
     1
  3
ACAD_GROUP
350
D
  3
ACAD_LAYOUT
350
1A
  3
ACAD_MLINESTYLE
350
17
  3
ACAD_PLOTSETTINGS
350
19
  3
ACAD_PLOTSTYLENAME
350
E
  3
ACAD_TABLESTYLE
350
B5
  3
ACAD_VISUALSTYLE
350
2A
  0
DICTIONARY
  5
D
102
{ACAD_REACTORS
330
C
102
}
330
C
100
AcDbDictionary
281
     1
  0
DICTIONARY
  5
1A
102
{ACAD_REACTORS
330
C
102
}
330
C
100
AcDbDictionary
281
     1
  3
Layout1
350
1E
  3
Layout2
350
26
  3
Model
350
22
  0
DICTIONARY
  5
17
102
{ACAD_REACTORS
330
C
102
}
330
C
100
AcDbDictionary
281
     1
  3
Standard
350
18
  0
DICTIONARY
  5
19
102
{ACAD_REACTORS
330
C
102
}
330
C
100
AcDbDictionary
281
     1
  0
ACDBDICTIONARYWDFLT
  5
E
102
{ACAD_REACTORS
330
C
102
}
330
C
100
AcDbDictionary
281
     1
  3
Normal
350
F
100
AcDbDictionaryWithDefault
340
F
  0
DICTIONARY
  5
B5
102
{ACAD_REACTORS
330
C
102
}
330
C
100
AcDbDictionary
281
     1
  0
DICTIONARY
  5
2A
102
{ACAD_REACTORS
330
C
102
}
330
C
100
AcDbDictionary
281
     1
  3
2dWireframe
350
2F
  3
3D Hidden
350
31
  3
3dWireframe
350
30
  3
Basic
350
32
  3
Brighten
350
36
  3
ColorChange
350
3A
  3
Conceptual
350
34
  3
Dim
350
35
  3
Facepattern
350
39
  3
Flat
350
2B
  3
FlatWithEdges
350
2C
  3
Gouraud
350
2D
  3
GouraudWithEdges
350
2E
  3
Linepattern
350
38
  3
Realistic
350
33
  3
Thicken
350
37
  0
LAYOUT
  5
1E
102
{ACAD_REACTORS
330
1A
102
}
330
1A
100
AcDbPlotSettings
  1

  2
none_device
  4

  6

 40
0.0
 41
0.0
 42
0.0
 43
0.0
 44
0.0
 45
0.0
 46
0.0
 47
0.0
 48
0.0
 49
0.0
140
0.0
141
0.0
142
1.0
143
1.0
 70
   688
 72
     0
 73
     0
 74
     5
  7

 75
    16
 76
     0
 77
     2
 78
   300
147
1.0
148
0.0
149
0.0
100
AcDbLayout
  1
Layout1
 70
     1
 71
     1
 10
0.0
 20
0.0
 11
12.0
 21
9.0
 12
0.0
 22
0.0
 32
0.0
 14
1.000000000000000E+20
 24
1.000000000000000E+20
 34
1.000000000000000E+20
 15
-1.000000000000000E+20
 25
-1.000000000000000E+20
 35
-1.000000000000000E+20
146
0.0
 13
0.0
 23
0.0
 33
0.0
 16
1.0
 26
0.0
 36
0.0
 17
0.0
 27
1.0
 37
0.0
 76
     0
330
1B
  0
LAYOUT
  5
26
102
{ACAD_REACTORS
330
1A
102
}
330
1A
100
AcDbPlotSettings
  1

  2
none_device
  4

  6

 40
0.0
 41
0.0
 42
0.0
 43
0.0
 44
0.0
 45
0.0
 46
0.0
 47
0.0
 48
0.0
 49
0.0
140
0.0
141
0.0
142
1.0
143
1.0
 70
   688
 72
     0
 73
     0
 74
     5
  7

 75
    16
 76
     0
 77
     2
 78
   300
147
1.0
148
0.0
149
0.0
100
AcDbLayout
  1
Layout2
 70
     1
 71
     2
 10
0.0
 20
0.0
 11
0.0
 21
0.0
 12
0.0
 22
0.0
 32
0.0
 14
0.0
 24
0.0
 34
0.0
 15
0.0
 25
0.0
 35
0.0
146
0.0
 13
0.0
 23
0.0
 33
0.0
 16
1.0
 26
0.0
 36
0.0
 17
0.0
 27
1.0
 37
0.0
 76
     0
330
23
  0
LAYOUT
  5
22
102
{ACAD_REACTORS
330
1A
102
}
330
1A
100
AcDbPlotSettings
  1

  2
none_device
  4

  6

 40
0.0
 41
0.0
 42
0.0
 43
0.0
 44
0.0
 45
0.0
 46
0.0
 47
0.0
 48
0.0
 49
0.0
140
0.0
141
0.0
142
1.0
143
1.0
 70
  1712
 72
     0
 73
     0
 74
     0
  7

 75
     0
 76
     0
 77
     2
 78
   300
147
1.0
148
0.0
149
0.0
100
AcDbLayout
  1
Model
 70
     1
 71
     0
 10
0.0
 20
0.0
 11
12.0
 21
9.0
 12
0.0
 22
0.0
 32
0.0
 14
1.000000000000000E+20
 24
1.000000000000000E+20
 34
1.000000000000000E+20
 15
-1.000000000000000E+20
 25
-1.000000000000000E+20
 35
-1.000000000000000E+20
146
0.0
 13
0.0
 23
0.0
 33
0.0
 16
1.0
 26
0.0
 36
0.0
 17
0.0
 27
1.0
 37
0.0
 76
     0
330
1F
331
29
  0
MLINESTYLE
  5
18
102
{ACAD_REACTORS
330
17
102
}
330
17
100
AcDbMlineStyle
  2
Standard
 70
     0
  3

 62
   256
 51
90.0
 52
90.0
 71
     2
 49
0.5
 62
   256
  6
BYLAYER
 49
-0.5
 62
   256
  6
BYLAYER
  0
ACDBPLACEHOLDER
  5
F
102
{ACAD_REACTORS
330
E
102
}
330
E
  0
VISUALSTYLE
  5
2F
102
{ACAD_REACTORS
330
2A
102
}
330
2A
100
AcDbVisualStyle
  2
2dWireframe
 70
     4
 71
     0
 72
     2
 73
     0
 90
        0
 40
-0.6
 41
-30.0
 62
     5
 63
     7
421
 16777215
 74
     1
 91
        4
 64
     7
 65
   257
 75
     1
175
     1
 42
1.0
 92
        0
 66
   257
 43
1.0
 76
     1
 77
     6
 78
     2
 67
     7
 79
     5
170
     0
171
     0
290
     0
174
     0
 93
        1
 44
0.0
173
     0
291
     0
 45
0.0
1001
ACAD
1000
AcDbSavedByObjectVersion
1070
     0
  0
VISUALSTYLE
  5
31
102
{ACAD_REACTORS
330
2A
102
}
330
2A
100
AcDbVisualStyle
  2
3D Hidden
 70
     6
 71
     1
 72
     2
 73
     2
 90
        0
 40
-0.6
 41
-30.0
 62
     5
 63
     7
421
 16777215
 74
     2
 91
        2
 64
     7
 65
   257
 75
     2
175
     1
 42
40.0
 92
        0
 66
   257
 43
1.0
 76
     1
 77
     6
 78
     2
 67
     7
 79
     3
170
     0
171
     0
290
     0
174
     0
 93
        1
 44
0.0
173
     0
291
     0
 45
0.0
1001
ACAD
1000
AcDbSavedByObjectVersion
1070
     0
  0
VISUALSTYLE
  5
30
102
{ACAD_REACTORS
330
2A
102
}
330
2A
100
AcDbVisualStyle
  2
3dWireframe
 70
     5
 71
     0
 72
     2
 73
     0
 90
        0
 40
-0.6
 41
-30.0
 62
     5
 63
     7
421
 16777215
 74
     1
 91
        4
 64
     7
 65
   257
 75
     1
175
     1
 42
1.0
 92
        0
 66
   257
 43
1.0
 76
     1
 77
     6
 78
     2
 67
     7
 79
     5
170
     0
171
     0
290
     0
174
     0
 93
        1
 44
0.0
173
     0
291
     0
 45
0.0
1001
ACAD
1000
AcDbSavedByObjectVersion
1070
     0
  0
VISUALSTYLE
  5
32
102
{ACAD_REACTORS
330
2A
102
}
330
2A
100
AcDbVisualStyle
  2
Basic
 70
     7
 71
     1
 72
     0
 73
     1
 90
        0
 40
-0.6
 41
-30.0
 62
     5
 63
     7
421
 16777215
 74
     0
 91
        4
 64
     7
 65
   257
 75
     1
175
     1
 42
1.0
 92
        8
 66
     7
 43
1.0
 76
     1
 77
     6
 78
     2
 67
     7
 79
     5
170
     0
171
     0
290
     0
174
     0
 93
        1
 44
0.0
173
     0
291
     1
 45
0.0
1001
ACAD
1000
AcDbSavedByObjectVersion
1070
     0
  0
VISUALSTYLE
  5
36
102
{ACAD_REACTORS
330
2A
102
}
330
2A
100
AcDbVisualStyle
  2
Brighten
 70
    12
 71
     2
 72
     2
 73
     0
 90
        0
 40
-0.6
 41
-30.0
 62
     5
 63
     7
421
 16777215
 74
     1
 91
        4
 64
     7
 65
   257
 75
     1
175
     1
 42
1.0
 92
        8
 66
     7
 43
1.0
 76
     1
 77
     6
 78
     2
 67
     7
 79
     5
170
     0
171
     0
290
     0
174
     0
 93
        1
 44
50.0
173
     0
291
     1
 45
0.0
1001
ACAD
1000
AcDbSavedByObjectVersion
1070
     0
  0
VISUALSTYLE
  5
3A
102
{ACAD_REACTORS
330
2A
102
}
330
2A
100
AcDbVisualStyle
  2
ColorChange
 70
    16
 71
     2
 72
     2
 73
     3
 90
        0
 40
-0.6
 41
-30.0
 62
     5
 63
     8
421
  8421504
 74
     1
 91
        4
 64
     7
 65
   257
 75
     1
175
     1
 42
1.0
 92
        8
 66
     8
424
  8421504
 43
1.0
 76
     1
 77
     6
 78
     2
 67
     7
 79
     5
170
     0
171
     0
290
     0
174
     0
 93
        1
 44
0.0
173
     0
291
     1
 45
0.0
1001
ACAD
1000
AcDbSavedByObjectVersion
1070
     0
  0
VISUALSTYLE
  5
34
102
{ACAD_REACTORS
330
2A
102
}
330
2A
100
AcDbVisualStyle
  2
Conceptual
 70
     9
 71
     3
 72
     2
 73
     0
 90
        0
 40
-0.6
 41
-30.0
 62
     5
 63
     7
421
 16777215
 74
     2
 91
        2
 64
     7
 65
   257
 75
     1
175
     1
 42
40.0
 92
        8
 66
     7
 43
1.0
 76
     1
 77
     6
 78
     2
 67
     7
 79
     3
170
     0
171
     0
290
     0
174
     0
 93
        1
 44
0.0
173
     0
291
     0
 45
0.0
1001
ACAD
1000
AcDbSavedByObjectVersion
1070
     0
  0
VISUALSTYLE
  5
35
102
{ACAD_REACTORS
330
2A
102
}
330
2A
100
AcDbVisualStyle
  2
Dim
 70
    11
 71
     2
 72
     2
 73
     0
 90
        0
 40
-0.6
 41
-30.0
 62
     5
 63
     7
421
 16777215
 74
     1
 91
        4
 64
     7
 65
   257
 75
     1
175
     1
 42
1.0
 92
        8
 66
     7
 43
1.0
 76
     1
 77
     6
 78
     2
 67
     7
 79
     5
170
     0
171
     0
290
     0
174
     0
 93
        1
 44
-50.0
173
     0
291
     1
 45
0.0
1001
ACAD
1000
AcDbSavedByObjectVersion
1070
     0
  0
VISUALSTYLE
  5
39
102
{ACAD_REACTORS
330
2A
102
}
330
2A
100
AcDbVisualStyle
  2
Facepattern
 70
    15
 71
     2
 72
     2
 73
     0
 90
        0
 40
-0.6
 41
-30.0
 62
     5
 63
     7
421
 16777215
 74
     1
 91
        4
 64
     7
 65
   257
 75
     1
175
     1
 42
1.0
 92
        8
 66
     7
 43
1.0
 76
     1
 77
     6
 78
     2
 67
     7
 79
     5
170
     0
171
     0
290
     0
174
     0
 93
        1
 44
0.0
173
     0
291
     1
 45
0.0
1001
ACAD
1000
AcDbSavedByObjectVersion
1070
     0
  0
VISUALSTYLE
  5
2B
102
{ACAD_REACTORS
330
2A
102
}
330
2A
100
AcDbVisualStyle
  2
Flat
 70
     0
 71
     2
 72
     1
 73
     1
 90
        2
 40
-0.6
 41
30.0
 62
     5
 63
     7
421
 16777215
 74
     0
 91
        4
 64
     7
 65
   257
 75
     1
175
     1
 42
1.0
 92
        8
 66
     7
 43
1.0
 76
     1
 77
     6
 78
     2
 67
     7
 79
     5
170
     0
171
     0
290
     0
174
     0
 93
       13
 44
0.0
173
     0
291
     1
 45
0.0
1001
ACAD
1000
AcDbSavedByObjectVersion
1070
     0
  0
VISUALSTYLE
  5
2C
102
{ACAD_REACTORS
330
2A
102
}
330
2A
100
AcDbVisualStyle
  2
FlatWithEdges
 70
     1
 71
     2
 72
     1
 73
     1
 90
        2
 40
-0.6
 41
30.0
 62
     5
 63
     7
421
 16777215
 74
     1
 91
        4
 64
     7
 65
   257
 75
     1
175
     1
 42
1.0
 92
        0
 66
   257
 43
1.0
 76
     1
 77
     6
 78
     2
 67
     7
 79
     5
170
     0
171
     0
290
     0
174
     0
 93
       13
 44
0.0
173
     0
291
     1
 45
0.0
1001
ACAD
1000
AcDbSavedByObjectVersion
1070
     0
  0
VISUALSTYLE
  5
2D
102
{ACAD_REACTORS
330
2A
102
}
330
2A
100
AcDbVisualStyle
  2
Gouraud
 70
     2
 71
     2
 72
     2
 73
     1
 90
        2
 40
-0.6
 41
30.0
 62
     5
 63
     7
421
 16777215
 74
     0
 91
        4
 64
     7
 65
   257
 75
     1
175
     1
 42
1.0
 92
        0
 66
     7
 43
1.0
 76
     1
 77
     6
 78
     2
 67
     7
 79
     5
170
     0
171
     0
290
     0
174
     0
 93
       13
 44
0.0
173
     0
291
     1
 45
0.0
1001
ACAD
1000
AcDbSavedByObjectVersion
1070
     0
  0
VISUALSTYLE
  5
2E
102
{ACAD_REACTORS
330
2A
102
}
330
2A
100
AcDbVisualStyle
  2
GouraudWithEdges
 70
     3
 71
     2
 72
     2
 73
     1
 90
        2
 40
-0.6
 41
30.0
 62
     5
 63
     7
421
 16777215
 74
     1
 91
        4
 64
     7
 65
   257
 75
     1
175
     1
 42
1.0
 92
        0
 66
   257
 43
1.0
 76
     1
 77
     6
 78
     2
 67
     7
 79
     5
170
     0
171
     0
290
     0
174
     0
 93
       13
 44
0.0
173
     0
291
     1
 45
0.0
1001
ACAD
1000
AcDbSavedByObjectVersion
1070
     0
  0
VISUALSTYLE
  5
38
102
{ACAD_REACTORS
330
2A
102
}
330
2A
100
AcDbVisualStyle
  2
Linepattern
 70
    14
 71
     2
 72
     2
 73
     0
 90
        0
 40
-0.6
 41
-30.0
 62
     5
 63
     7
421
 16777215
 74
     1
 91
        4
 64
     7
 65
   257
 75
     7
175
     7
 42
1.0
 92
        8
 66
     7
 43
1.0
 76
     1
 77
     6
 78
     2
 67
     7
 79
     5
170
     0
171
     0
290
     0
174
     0
 93
        1
 44
0.0
173
     0
291
     1
 45
0.0
1001
ACAD
1000
AcDbSavedByObjectVersion
1070
     0
  0
VISUALSTYLE
  5
33
102
{ACAD_REACTORS
330
2A
102
}
330
2A
100
AcDbVisualStyle
  2
Realistic
 70
     8
 71
     2
 72
     2
 73
     0
 90
        0
 40
-0.6
 41
-30.0
 62
     5
 63
     7
421
 16777215
 74
     1
 91
        0
 64
     7
 65
   257
 75
     1
175
     1
 42
1.0
 92
        8
 66
     8
424
  7895160
 43
1.0
 76
     1
 77
     6
 78
     2
 67
     7
 79
     5
170
     0
171
     0
290
     0
174
     0
 93
       13
 44
0.0
173
     0
291
     0
 45
0.0
1001
ACAD
1000
AcDbSavedByObjectVersion
1070
     0
  0
VISUALSTYLE
  5
37
102
{ACAD_REACTORS
330
2A
102
}
330
2A
100
AcDbVisualStyle
  2
Thicken
 70
    13
 71
     2
 72
     2
 73
     0
 90
        0
 40
-0.6
 41
-30.0
 62
     5
 63
     7
421
 16777215
 74
     1
 91
        4
 64
     7
 65
   257
 75
     1
175
     1
 42
1.0
 92
       12
 66
     7
 43
1.0
 76
     1
 77
     6
 78
     2
 67
     7
 79
     5
170
     0
171
     0
290
     0
174
     0
 93
        1
 44
0.0
173
     0
291
     1
 45
0.0
1001
ACAD
1000
AcDbSavedByObjectVersion
1070
     0
  0
ENDSEC
  0
EOF
