  0
SECTION
  2
HEADER
  9
$ACADVER
  1
AC1018
  9
$ACADMAINTVER
 70
     0
  9
$DWGCODEPAGE
  3
ANSI_1252
  9
$INSBASE
 10
0.0
 20
0.0
 30
0.0
  9
$EXTMIN
 10
1.000000000000000E+20
 20
1.000000000000000E+20
 30
1.000000000000000E+20
  9
$EXTMAX
 10
-1.000000000000000E+20
 20
-1.000000000000000E+20
 30
-1.000000000000000E+20
  9
$LIMMIN
 10
0.0
 20
0.0
  9
$LIMMAX
 10
12.0
 20
9.0
  9
$ORTHOMODE
 70
     0
  9
$REGENMODE
 70
     1
  9
$FILLMODE
 70
     1
  9
$QTEXTMODE
 70
     0
  9
$MIRRTEXT
 70
     1
  9
$LTSCALE
 40
1.0
  9
$ATTMODE
 70
     1
  9
$TEXTSIZE
 40
0.2
  9
$TRACEWID
 40
0.05
  9
$TEXTSTYLE
  7
Standard
  9
$CLAYER
  8
0
  9
$CELTYPE
  6
ByLayer
  9
$CECOLOR
 62
   256
  9
$CELTSCALE
 40
1.0
  9
$DISPSILH
 70
     0
  9
$DIMSCALE
 40
1.0
  9
$DIMASZ
 40
0.18
  9
$DIMEXO
 40
0.0625
  9
$DIMDLI
 40
0.38
  9
$DIMRND
 40
0.0
  9
$DIMDLE
 40
0.0
  9
$DIMEXE
 40
0.18
  9
$DIMTP
 40
0.0
  9
$DIMTM
 40
0.0
  9
$DIMTXT
 40
0.18
  9
$DIMCEN
 40
0.09
  9
$DIMTSZ
 40
0.0
  9
$DIMTOL
 70
     0
  9
$DIMLIM
 70
     0
  9
$DIMTIH
 70
     1
  9
$DIMTOH
 70
     1
  9
$DIMSE1
 70
     0
  9
$DIMSE2
 70
     0
  9
$DIMTAD
 70
     0
  9
$DIMZIN
 70
     0
  9
$DIMBLK
  1

  9
$DIMASO
 70
     1
  9
$DIMSHO
 70
     1
  9
$DIMPOST
  1

  9
$DIMAPOST
  1

  9
$DIMALT
 70
     0
  9
$DIMALTD
 70
     2
  9
$DIMALTF
 40
25.4
  9
$DIMLFAC
 40
1.0
  9
$DIMTOFL
 70
     0
  9
$DIMTVP
 40
0.0
  9
$DIMTIX
 70
     0
  9
$DIMSOXD
 70
     0
  9
$DIMSAH
 70
     0
  9
$DIMBLK1
  1

  9
$DIMBLK2
  1

  9
$DIMSTYLE
  2
Standard
  9
$DIMCLRD
 70
     0
  9
$DIMCLRE
 70
     0
  9
$DIMCLRT
 70
     0
  9
$DIMTFAC
 40
1.0
  9
$DIMGAP
 40
0.09
  9
$DIMJUST
 70
     0
  9
$DIMSD1
 70
     0
  9
$DIMSD2
 70
     0
  9
$DIMTOLJ
 70
     1
  9
$DIMTZIN
 70
     0
  9
$DIMALTZ
 70
     0
  9
$DIMALTTZ
 70
     0
  9
$DIMUPT
 70
     0
  9
$DIMDEC
 70
     4
  9
$DIMTDEC
 70
     4
  9
$DIMALTU
 70
     2
  9
$DIMALTTD
 70
     2
  9
$DIMTXSTY
  7
Standard
  9
$DIMAUNIT
 70
     0
  9
$DIMADEC
 70
     0
  9
$DIMALTRND
 40
0.0
  9
$DIMAZIN
 70
     0
  9
$DIMDSEP
 70
    46
  9
$DIMATFIT
 70
     3
  9
$DIMFRAC
 70
     0
  9
$DIMLDRBLK
  1

  9
$DIMLUNIT
 70
     2
  9
$DIMLWD
 70
    -2
  9
$DIMLWE
 70
    -2
  9
$DIMTMOVE
 70
     0
  9
$LUNITS
 70
     2
  9
$LUPREC
 70
     4
  9
$SKETCHINC
 40
0.1
  9
$FILLETRAD
 40
0.5
  9
$AUNITS
 70
     0
  9
$AUPREC
 70
     0
  9
$MENU
  1
.
  9
$ELEVATION
 40
0.0
  9
$PELEVATION
 40
0.0
  9
$THICKNESS
 40
0.0
  9
$LIMCHECK
 70
     0
  9
$CHAMFERA
 40
0.5
  9
$CHAMFERB
 40
0.5
  9
$CHAMFERC
 40
1.0
  9
$CHAMFERD
 40
0.0
  9
$SKPOLY
 70
     0
  9
$TDCREATE
 40
2456234.598910984
  9
$TDUCREATE
 40
2456234.057244317
  9
$TDUPDATE
 40
2456234.598910995
  9
$TDUUPDATE
 40
2456234.057244329
  9
$TDINDWG
 40
0.0000000116
  9
$TDUSRTIMER
 40
0.0000000116
  9
$USRTIMER
 70
     1
  9
$ANGBASE
 50
0.0
  9
$ANGDIR
 70
     0
  9
$PDMODE
 70
     0
  9
$PDSIZE
 40
0.0
  9
$PLINEWID
 40
0.0
  9
$SPLFRAME
 70
     0
  9
$SPLINETYPE
 70
     6
  9
$SPLINESEGS
 70
     8
  9
$HANDSEED
  5
69
  9
$SURFTAB1
 70
     6
  9
$SURFTAB2
 70
     6
  9
$SURFTYPE
 70
     6
  9
$SURFU
 70
     6
  9
$SURFV
 70
     6
  9
$UCSBASE
  2

  9
$UCSNAME
  2

  9
$UCSORG
 10
0.0
 20
0.0
 30
0.0
  9
$UCSXDIR
 10
1.0
 20
0.0
 30
0.0
  9
$UCSYDIR
 10
0.0
 20
1.0
 30
0.0
  9
$UCSORTHOREF
  2

  9
$UCSORTHOVIEW
 70
     0
  9
$UCSORGTOP
 10
0.0
 20
0.0
 30
0.0
  9
$UCSORGBOTTOM
 10
0.0
 20
0.0
 30
0.0
  9
$UCSORGLEFT
 10
0.0
 20
0.0
 30
0.0
  9
$UCSORGRIGHT
 10
0.0
 20
0.0
 30
0.0
  9
$UCSORGFRONT
 10
0.0
 20
0.0
 30
0.0
  9
$UCSORGBACK
 10
0.0
 20
0.0
 30
0.0
  9
$PUCSBASE
  2

  9
$PUCSNAME
  2

  9
$PUCSORG
 10
0.0
 20
0.0
 30
0.0
  9
$PUCSXDIR
 10
1.0
 20
0.0
 30
0.0
  9
$PUCSYDIR
 10
0.0
 20
1.0
 30
0.0
  9
$PUCSORTHOREF
  2

  9
$PUCSORTHOVIEW
 70
     0
  9
$PUCSORGTOP
 10
0.0
 20
0.0
 30
0.0
  9
$PUCSORGBOTTOM
 10
0.0
 20
0.0
 30
0.0
  9
$PUCSORGLEFT
 10
0.0
 20
0.0
 30
0.0
  9
$PUCSORGRIGHT
 10
0.0
 20
0.0
 30
0.0
  9
$PUCSORGFRONT
 10
0.0
 20
0.0
 30
0.0
  9
$PUCSORGBACK
 10
0.0
 20
0.0
 30
0.0
  9
$USERI1
 70
     0
  9
$USERI2
 70
     0
  9
$USERI3
 70
     0
  9
$USERI4
 70
     0
  9
$USERI5
 70
     0
  9
$USERR1
 40
0.0
  9
$USERR2
 40
0.0
  9
$USERR3
 40
0.0
  9
$USERR4
 40
0.0
  9
$USERR5
 40
0.0
  9
$WORLDVIEW
 70
     1
  9
$SHADEDGE
 70
     3
  9
$SHADEDIF
 70
    70
  9
$TILEMODE
 70
     1
  9
$MAXACTVP
 70
    64
  9
$PINSBASE
 10
0.0
 20
0.0
 30
0.0
  9
$PLIMCHECK
 70
     0
  9
$PEXTMIN
 10
1.000000000000000E+20
 20
1.000000000000000E+20
 30
1.000000000000000E+20
  9
$PEXTMAX
 10
-1.000000000000000E+20
 20
-1.000000000000000E+20
 30
-1.000000000000000E+20
  9
$PLIMMIN
 10
0.0
 20
0.0
  9
$PLIMMAX
 10
12.0
 20
9.0
  9
$UNITMODE
 70
     0
  9
$VISRETAIN
 70
     1
  9
$PLINEGEN
 70
     0
  9
$PSLTSCALE
 70
     1
  9
$TREEDEPTH
 70
  3020
  9
$CMLSTYLE
  2
Standard
  9
$CMLJUST
 70
     0
  9
$CMLSCALE
 40
1.0
  9
$PROXYGRAPHICS
 70
     1
  9
$MEASUREMENT
 70
     0
  9
$CELWEIGHT
370
    -1
  9
$ENDCAPS
280
     0
  9
$JOINSTYLE
280
     0
  9
$LWDISPLAY
290
     1
  9
$INSUNITS
 70
     1
  9
$HYPERLINKBASE
  1

  9
$STYLESHEET
  1

  9
$XEDIT
290
     1
  9
$CEPSNTYPE
380
     0
  9
$PSTYLEMODE
290
     1
  9
$FINGERPRINTGUID
  2
{4130F16B-2FB5-4499-A91A-D086E379D09D}
  9
$VERSIONGUID
  2
{FAEB1C32-E019-11D5-929B-00C0DF256EC4}
  9
$EXTNAMES
290
     1
  9
$PSVPSCALE
 40
0.0
  9
$OLESTARTUP
290
     0
  9
$SORTENTS
280
   127
  9
$INDEXCTL
280
     0
  9
$HIDETEXT
280
     1
  9
$XCLIPFRAME
290
     0
  9
$HALOGAP
280
     0
  9
$OBSCOLOR
 70
   257
  9
$OBSLTYPE
280
     0
  9
$INTERSECTIONDISPLAY
280
     0
  9
$INTERSECTIONCOLOR
 70
   257
  9
$DIMASSOC
280
     2
  9
$PROJECTNAME
  1

  0
ENDSEC
  0
SECTION
  2
CLASSES
  0
CLASS
  1
ACDBDICTIONARYWDFLT
  2
AcDbDictionaryWithDefault
  3
ObjectDBX Classes
 90
        0
 91
        3
280
     0
281
     0
  0
CLASS
  1
VISUALSTYLE
  2
AcDbVisualStyle
  3
ObjectDBX Classes
 90
     4095
 91
        3
280
     0
281
     0
  0
ENDSEC
  0
SECTION
  2
TABLES
  0
TABLE
  2
VPORT
  5
8
330
0
100
AcDbSymbolTable
 70
     1
  0
VPORT
  5
29
330
8
100
AcDbSymbolTableRecord
100
AcDbViewportTableRecord
  2
*Active
 70
     0
 10
0.0
 20
0.0
 11
1.0
 21
1.0
 12
0.0
 22
0.0
 13
0.0
 23
0.0
 14
0.5
 24
0.5
 15
0.5
 25
0.5
 16
0.0
 26
0.0
 36
1.0
 17
1236.988319596352
 27
-604.4940238289113
 37
0.0
 40
2400.000276092708
 41
0.4999999282271858
 42
50.0
 43
0.0
 44
0.0
 50
0.0
 51
0.0
 71
     0
 72
   100
 73
     1
 74
     3
 75
     0
 76
     0
 77
     0
 78
     0
281
     0
 65
     1
110
0.0
120
0.0
130
0.0
111
1.0
121
0.0
131
0.0
112
0.0
122
1.0
132
0.0
 79
     0
146
0.0
  0
ENDTAB
  0
TABLE
  2
LTYPE
  5
5
330
0
100
AcDbSymbolTable
 70
     1
  0
LTYPE
  5
14
330
5
100
AcDbSymbolTableRecord
100
AcDbLinetypeTableRecord
  2
ByBlock
 70
     0
  3

 72
    65
 73
     0
 40
0.0
  0
LTYPE
  5
15
330
5
100
AcDbSymbolTableRecord
100
AcDbLinetypeTableRecord
  2
ByLayer
 70
     0
  3

 72
    65
 73
     0
 40
0.0
  0
LTYPE
  5
16
330
5
100
AcDbSymbolTableRecord
100
AcDbLinetypeTableRecord
  2
Continuous
 70
     0
  3
Solid line
 72
    65
 73
     0
 40
0.0
  0
ENDTAB
  0
TABLE
  2
LAYER
  5
2
330
0
100
AcDbSymbolTable
 70
     2
  0
LAYER
  5
10
330
2
100
AcDbSymbolTableRecord
100
AcDbLayerTableRecord
  2
0
 70
     0
 62
     7
  6
Continuous
370
    -3
390
F
  0
LAYER
  5
3B
330
2
100
AcDbSymbolTableRecord
100
AcDbLayerTableRecord
  2
drill holes 1800
 70
     0
 62
     7
  6
Continuous
370
    -3
390
F
  0
ENDTAB
  0
TABLE
  2
STYLE
  5
3
330
0
100
AcDbSymbolTable
 70
     1
  0
STYLE
  5
11
330
3
100
AcDbSymbolTableRecord
100
AcDbTextStyleTableRecord
  2
Standard
 70
     0
 40
0.0
 41
1.0
 50
0.0
 71
     0
 42
0.2
  3
txt
  4

  0
ENDTAB
  0
TABLE
  2
VIEW
  5
6
330
0
100
AcDbSymbolTable
 70
     0
  0
ENDTAB
  0
TABLE
  2
UCS
  5
7
330
0
100
AcDbSymbolTable
 70
     0
  0
ENDTAB
  0
TABLE
  2
APPID
  5
9
330
0
100
AcDbSymbolTable
 70
     1
  0
APPID
  5
12
330
9
100
AcDbSymbolTableRecord
100
AcDbRegAppTableRecord
  2
ACAD
 70
     0
  0
ENDTAB
  0
TABLE
  2
DIMSTYLE
  5
A
330
0
100
AcDbSymbolTable
 70
     1
100
AcDbDimStyleTable
  0
DIMSTYLE
105
27
330
A
100
AcDbSymbolTableRecord
100
AcDbDimStyleTableRecord
  2
Standard
 70
     0
340
11
  0
ENDTAB
  0
TABLE
  2
BLOCK_RECORD
  5
1
330
0
100
AcDbSymbolTable
 70
     2
  0
BLOCK_RECORD
  5
1F
330
1
100
AcDbSymbolTableRecord
100
AcDbBlockTableRecord
  2
*Model_Space
340
22
  0
BLOCK_RECORD
  5
1B
330
1
100
AcDbSymbolTableRecord
100
AcDbBlockTableRecord
  2
*Paper_Space
340
1E
  0
BLOCK_RECORD
  5
23
330
1
100
AcDbSymbolTableRecord
100
AcDbBlockTableRecord
  2
*Paper_Space0
340
26
  0
BLOCK_RECORD
  5
64
330
1
100
AcDbSymbolTableRecord
100
AcDbBlockTableRecord
  2
block 2
340
0
102
{BLKREFS
331
65
102
}
  0
ENDTAB
  0
ENDSEC
  0
SECTION
  2
BLOCKS
  0
BLOCK
  5
20
330
1F
100
AcDbEntity
  8
0
100
AcDbBlockBegin
  2
*Model_Space
 70
     0
 71
     0
 10
0.0
 20
0.0
 30
0.0
  3
*Model_Space
  1

  0
ENDBLK
  5
21
330
1F
100
AcDbEntity
  8
0
100
AcDbBlockEnd
  0
BLOCK
  5
1C
330
1B
100
AcDbEntity
 67
     1
  8
0
100
AcDbBlockBegin
  2
*Paper_Space
 70
     0
 71
     0
 10
0.0
 20
0.0
 30
0.0
  3
*Paper_Space
  1

  0
ENDBLK
  5
1D
330
1B
100
AcDbEntity
 67
     1
  8
0
100
AcDbBlockEnd
  0
BLOCK
  5
24
330
23
100
AcDbEntity
  8
0
100
AcDbBlockBegin
  2
*Paper_Space0
 70
     0
 71
     0
 10
0.0
 20
0.0
 30
0.0
  3
*Paper_Space0
  1

  0
ENDBLK
  5
25
330
23
100
AcDbEntity
  8
0
100
AcDbBlockEnd
  0
BLOCK
  5
66
330
64
100
AcDbEntity
  8
0
100
AcDbBlockBegin
  2
block 2
 70
     0
 71
     0
 10
0.0
 20
0.0
 30
0.0
  3
block 2
  1

  0
ENDBLK
  5
67
330
64
100
AcDbEntity
  8
0
100
AcDbBlockEnd
  0
ENDSEC
  0
SECTION
  2
ENTITIES
  0
POLYLINE
  5
3C
330
1F
100
AcDbEntity
  8
drill holes 1800
 62
   250
370
     9
100
AcDb2dPolyline
 66
     1
 10
0.0
 20
0.0
 30
0.0
  0
VERTEX
  5
3D
330
3C
100
AcDbEntity
  8
drill holes 1800
 62
   250
370
     9
100
AcDbVertex
100
AcDb2dVertex
 10
1550.463845098495
 20
-813.8345619710205
 30
0.0
  0
VERTEX
  5
3E
330
3C
100
AcDbEntity
  8
drill holes 1800
 62
   250
370
     9
100
AcDbVertex
100
AcDb2dVertex
 10
1525.464165200231
 20
-813.8345619710205
 30
0.0
  0
VERTEX
  5
3F
330
3C
100
AcDbEntity
  8
drill holes 1800
 62
   250
370
     9
100
AcDbVertex
100
AcDb2dVertex
 10
1525.464165200231
 20
79.39928790332726
 30
0.0
  0
VERTEX
  5
40
330
3C
100
AcDbEntity
  8
drill holes 1800
 62
   250
370
     9
100
AcDbVertex
100
AcDb2dVertex
 10
1550.463845098495
 20
79.39928790332726
 30
0.0
  0
VERTEX
  5
41
330
3C
100
AcDbEntity
  8
drill holes 1800
 62
   250
370
     9
100
AcDbVertex
100
AcDb2dVertex
 10
1550.463845098495
 20
-813.8345619710205
 30
0.0
  0
SEQEND
  5
42
330
3C
100
AcDbEntity
  8
drill holes 1800
370
     9
  0
SPLINE
  5
43
330
1F
100
AcDbEntity
  8
drill holes 1800
 62
   250
370
     9
100
AcDbSpline
210
0.0
220
0.0
230
1.0
 70
    11
 71
     3
 72
    17
 73
    13
 74
     0
 42
0.0000000001
 43
0.0000000001
 40
0.0
 40
0.0
 40
0.0
 40
0.0
 40
1.0
 40
1.0
 40
1.0
 40
2.0
 40
2.0
 40
2.0
 40
3.0
 40
3.0
 40
3.0
 40
4.0
 40
4.0
 40
4.0
 40
4.0
 10
1543.73143950122
 20
-445.0320948865719
 30
0.0
 10
1543.730750482123
 20
-447.7929944084511
 30
0.0
 10
1541.492816454905
 20
-450.0316174547664
 30
0.0
 10
1538.731227913928
 20
-450.031961964315
 30
0.0
 10
1535.969639372952
 20
-450.0316174547664
 30
0.0
 10
1533.731016326637
 20
-447.7929944084511
 30
0.0
 10
1533.731016326637
 20
-445.0314058674748
 30
0.0
 10
1533.731016326637
 20
-442.2698173264985
 30
0.0
 10
1535.969639372952
 20
-440.0318832992803
 30
0.0
 10
1538.73088340438
 20
-440.0318832992803
 30
0.0
 10
1541.492816454905
 20
-440.0318832992803
 30
0.0
 10
1543.73143950122
 20
-442.2701618360471
 30
0.0
 10
1543.73143950122
 20
-445.0320948865719
 30
0.0
  0
SPLINE
  5
44
330
1F
100
AcDbEntity
  8
drill holes 1800
 62
   250
370
     9
100
AcDbSpline
210
0.0
220
0.0
230
1.0
 70
    11
 71
     3
 72
    17
 73
    13
 74
     0
 42
0.0000000001
 43
0.0000000001
 40
0.0
 40
0.0
 40
0.0
 40
0.0
 40
1.0
 40
1.0
 40
1.0
 40
2.0
 40
2.0
 40
2.0
 40
3.0
 40
3.0
 40
3.0
 40
4.0
 40
4.0
 40
4.0
 40
4.0
 10
1543.730750482123
 20
-588.9061725415755
 30
0.0
 10
1543.730750482123
 20
-586.1452730196963
 30
0.0
 10
1541.492127435808
 20
-583.906649973381
 30
0.0
 10
1538.731227913928
 20
-583.9069944829296
 30
0.0
 10
1535.969639372952
 20
-583.9069944829296
 30
0.0
 10
1533.73032730754
 20
-586.1452730196963
 30
0.0
 10
1533.731016326637
 20
-588.9068615606726
 30
0.0
 10
1533.730671817088
 20
-591.6677610825518
 30
0.0
 10
1535.969639372952
 20
-593.9067286384158
 30
0.0
 10
1538.73088340438
 20
-593.9063841288672
 30
0.0
 10
1541.492127435808
 20
-593.9063841288672
 30
0.0
 10
1543.730750482123
 20
-591.6684501016489
 30
0.0
 10
1543.730750482123
 20
-588.9061725415755
 30
0.0
  0
SPLINE
  5
45
330
1F
100
AcDbEntity
  8
drill holes 1800
 62
   250
370
     9
100
AcDbSpline
210
0.0
220
0.0
230
1.0
 70
    11
 71
     3
 72
    17
 73
    13
 74
     0
 42
0.0000000001
 43
0.0000000001
 40
0.0
 40
0.0
 40
0.0
 40
0.0
 40
1.0
 40
1.0
 40
1.0
 40
2.0
 40
2.0
 40
2.0
 40
3.0
 40
3.0
 40
3.0
 40
4.0
 40
4.0
 40
4.0
 40
4.0
 10
1543.730750482123
 20
-741.8906329525482
 30
0.0
 10
1543.730750482123
 20
-744.6522214935245
 30
0.0
 10
1541.492127435808
 20
-746.8908445398398
 30
0.0
 10
1538.731227913928
 20
-746.8908445398398
 30
0.0
 10
1535.969639372952
 20
-746.8908445398398
 30
0.0
 10
1533.73032730754
 20
-744.6522214935245
 30
0.0
 10
1533.73032730754
 20
-741.8913219716453
 30
0.0
 10
1533.731016326637
 20
-739.129044411572
 30
0.0
 10
1535.969639372952
 20
-736.8911103843536
 30
0.0
 10
1538.731227913928
 20
-736.8904213652565
 30
0.0
 10
1541.492127435808
 20
-736.8904213652565
 30
0.0
 10
1543.730750482123
 20
-739.129044411572
 30
0.0
 10
1543.730750482123
 20
-741.8906329525482
 30
0.0
  0
POLYLINE
  5
46
330
1F
100
AcDbEntity
  8
drill holes 1800
 62
   250
370
     9
100
AcDb2dPolyline
 66
     1
 10
0.0
 20
0.0
 30
0.0
  0
VERTEX
  5
47
330
46
100
AcDbEntity
  8
drill holes 1800
 62
   250
370
     9
100
AcDbVertex
100
AcDb2dVertex
 10
949.2461070760565
 20
-813.8345619710205
 30
0.0
  0
VERTEX
  5
48
330
46
100
AcDbEntity
  8
drill holes 1800
 62
   250
370
     9
100
AcDbVertex
100
AcDb2dVertex
 10
924.2464271777926
 20
-813.8345619710205
 30
0.0
  0
VERTEX
  5
49
330
46
100
AcDbEntity
  8
drill holes 1800
 62
   250
370
     9
100
AcDbVertex
100
AcDb2dVertex
 10
924.2464271777926
 20
79.39808211990743
 30
0.0
  0
VERTEX
  5
4A
330
46
100
AcDbEntity
  8
drill holes 1800
 62
   250
370
     9
100
AcDbVertex
100
AcDb2dVertex
 10
949.245762566508
 20
79.39963241287579
 30
0.0
  0
VERTEX
  5
4B
330
46
100
AcDbEntity
  8
drill holes 1800
 62
   250
370
     9
100
AcDbVertex
100
AcDb2dVertex
 10
949.2461070760565
 20
-813.8345619710205
 30
0.0
  0
SEQEND
  5
4C
330
46
100
AcDbEntity
  8
drill holes 1800
370
     9
  0
SPLINE
  5
4D
330
1F
100
AcDbEntity
  8
drill holes 1800
 62
   250
370
     9
100
AcDbSpline
210
0.0
220
0.0
230
1.0
 70
    11
 71
     3
 72
    17
 73
    13
 74
     0
 42
0.0000000001
 43
0.0000000001
 40
0.0
 40
0.0
 40
0.0
 40
0.0
 40
1.0
 40
1.0
 40
1.0
 40
2.0
 40
2.0
 40
2.0
 40
3.0
 40
3.0
 40
3.0
 40
4.0
 40
4.0
 40
4.0
 40
4.0
 10
942.5137014787813
 20
-444.6341863580255
 30
0.0
 10
942.5126679501358
 20
-447.3950858799047
 30
0.0
 10
940.275078432466
 20
-449.6340534357686
 30
0.0
 10
937.5131453819412
 20
-449.6340534357686
 30
0.0
 10
934.7515568409649
 20
-449.63370892622
 30
0.0
 10
932.5132783041981
 20
-447.3950858799047
 30
0.0
 10
932.5132783041981
 20
-444.6334973389285
 30
0.0
 10
932.5129337946496
 20
-441.8719087979522
 30
0.0
 10
934.7519013505134
 20
-439.6339747707339
 30
0.0
 10
937.5128008723926
 20
-439.6343192802824
 30
0.0
 10
940.2747339229174
 20
-439.6336302611854
 30
0.0
 10
942.5137014787813
 20
-441.8722533075007
 30
0.0
 10
942.5137014787813
 20
-444.6341863580255
 30
0.0
  0
SPLINE
  5
4E
330
1F
100
AcDbEntity
  8
drill holes 1800
 62
   250
370
     9
100
AcDbSpline
210
0.0
220
0.0
230
1.0
 70
    11
 71
     3
 72
    17
 73
    13
 74
     0
 42
0.0000000001
 43
0.0000000001
 40
0.0
 40
0.0
 40
0.0
 40
0.0
 40
1.0
 40
1.0
 40
1.0
 40
2.0
 40
2.0
 40
2.0
 40
3.0
 40
3.0
 40
3.0
 40
4.0
 40
4.0
 40
4.0
 40
4.0
 10
942.5130124596843
 20
-588.5086085225778
 30
0.0
 10
942.5130124596843
 20
-585.7477090006985
 30
0.0
 10
940.2743894133689
 20
-583.5090859543832
 30
0.0
 10
937.5134898914897
 20
-583.5087414448346
 30
0.0
 10
934.7519013505134
 20
-583.5087414448346
 30
0.0
 10
932.5125892851011
 20
-585.7477090006985
 30
0.0
 10
932.5129337946496
 20
-588.5086085225778
 30
0.0
 10
932.5125892851011
 20
-591.2698525540055
 30
0.0
 10
934.7519013505134
 20
-593.5088201098694
 30
0.0
 10
937.5128008723926
 20
-593.5084756003208
 30
0.0
 10
940.2740449038204
 20
-593.5088201098694
 30
0.0
 10
942.5130124596843
 20
-591.2705415731025
 30
0.0
 10
942.5130124596843
 20
-588.5086085225778
 30
0.0
  0
SPLINE
  5
4F
330
1F
100
AcDbEntity
  8
drill holes 1800
 62
   250
370
     9
100
AcDbSpline
210
0.0
220
0.0
230
1.0
 70
    11
 71
     3
 72
    17
 73
    13
 74
     0
 42
0.0000000001
 43
0.0000000001
 40
0.0
 40
0.0
 40
0.0
 40
0.0
 40
1.0
 40
1.0
 40
1.0
 40
2.0
 40
2.0
 40
2.0
 40
3.0
 40
3.0
 40
3.0
 40
4.0
 40
4.0
 40
4.0
 40
4.0
 10
942.5126679501358
 20
-741.4930689335504
 30
0.0
 10
942.5126679501358
 20
-744.2546574745267
 30
0.0
 10
940.2743894133689
 20
-746.492591501745
 30
0.0
 10
937.5134898914897
 20
-746.492591501745
 30
0.0
 10
934.7519013505134
 20
-746.493280520842
 30
0.0
 10
932.5125892851011
 20
-744.2546574745267
 30
0.0
 10
932.5125892851011
 20
-741.4930689335504
 30
0.0
 10
932.5132783041981
 20
-738.7314803925741
 30
0.0
 10
934.7515568409649
 20
-736.4928573462588
 30
0.0
 10
937.5131453819412
 20
-736.4928573462588
 30
0.0
 10
940.2740449038204
 20
-736.4928573462588
 30
0.0
 10
942.5130124596843
 20
-738.7314803925741
 30
0.0
 10
942.5126679501358
 20
-741.4930689335504
 30
0.0
  0
SPLINE
  5
50
330
1F
100
AcDbEntity
  8
drill holes 1800
 62
   250
370
     9
100
AcDbSpline
210
0.0
220
0.0
230
1.0
 70
    11
 71
     3
 72
    17
 73
    13
 74
     0
 42
0.0000000001
 43
0.0000000001
 40
0.0
 40
0.0
 40
0.0
 40
0.0
 40
1.0
 40
1.0
 40
1.0
 40
2.0
 40
2.0
 40
2.0
 40
3.0
 40
3.0
 40
3.0
 40
4.0
 40
4.0
 40
4.0
 40
4.0
 10
1543.73143950122
 20
-289.4033514358957
 30
0.0
 10
1543.730750482123
 20
-286.6424519140165
 30
0.0
 10
1541.492816454905
 20
-284.4038288677011
 30
0.0
 10
1538.731227913928
 20
-284.4034843581526
 30
0.0
 10
1535.969639372952
 20
-284.4038288677011
 30
0.0
 10
1533.731016326637
 20
-286.6424519140165
 30
0.0
 10
1533.731016326637
 20
-289.4040404549928
 30
0.0
 10
1533.731016326637
 20
-292.165628995969
 30
0.0
 10
1535.969639372952
 20
-294.4035630231873
 30
0.0
 10
1538.73088340438
 20
-294.4035630231873
 30
0.0
 10
1541.492816454905
 20
-294.4035630231873
 30
0.0
 10
1543.73143950122
 20
-292.1652844864205
 30
0.0
 10
1543.73143950122
 20
-289.4033514358957
 30
0.0
  0
SPLINE
  5
51
330
1F
100
AcDbEntity
  8
drill holes 1800
 62
   250
370
     9
100
AcDbSpline
210
0.0
220
0.0
230
1.0
 70
    11
 71
     3
 72
    17
 73
    13
 74
     0
 42
0.0000000001
 43
0.0000000001
 40
0.0
 40
0.0
 40
0.0
 40
0.0
 40
1.0
 40
1.0
 40
1.0
 40
2.0
 40
2.0
 40
2.0
 40
3.0
 40
3.0
 40
3.0
 40
4.0
 40
4.0
 40
4.0
 40
4.0
 10
1543.730750482123
 20
-145.529273780892
 30
0.0
 10
1543.730750482123
 20
-148.2901733027712
 30
0.0
 10
1541.492127435808
 20
-150.5287963490865
 30
0.0
 10
1538.731227913928
 20
-150.528451839538
 30
0.0
 10
1535.969639372952
 20
-150.528451839538
 30
0.0
 10
1533.73032730754
 20
-148.2901733027712
 30
0.0
 10
1533.731016326637
 20
-145.5285847617949
 30
0.0
 10
1533.730671817088
 20
-142.7676852399157
 30
0.0
 10
1535.969639372952
 20
-140.5287176840519
 30
0.0
 10
1538.73088340438
 20
-140.5290621936004
 30
0.0
 10
1541.492127435808
 20
-140.5290621936004
 30
0.0
 10
1543.730750482123
 20
-142.7669962208187
 30
0.0
 10
1543.730750482123
 20
-145.529273780892
 30
0.0
  0
SPLINE
  5
52
330
1F
100
AcDbEntity
  8
drill holes 1800
 62
   250
370
     9
100
AcDbSpline
210
0.0
220
0.0
230
1.0
 70
    11
 71
     3
 72
    17
 73
    13
 74
     0
 42
0.0000000001
 43
0.0000000001
 40
0.0
 40
0.0
 40
0.0
 40
0.0
 40
1.0
 40
1.0
 40
1.0
 40
2.0
 40
2.0
 40
2.0
 40
3.0
 40
3.0
 40
3.0
 40
4.0
 40
4.0
 40
4.0
 40
4.0
 10
1543.730750482123
 20
7.455358884854911
 30
0.0
 10
1543.730750482123
 20
10.21660291628266
 30
0.0
 10
1541.492127435808
 20
12.45557047214652
 30
0.0
 10
1538.731227913928
 20
12.455225962598
 30
0.0
 10
1535.969639372952
 20
12.455225962598
 30
0.0
 10
1533.73032730754
 20
10.21660291628266
 30
0.0
 10
1533.73032730754
 20
7.455703394403436
 30
0.0
 10
1533.731016326637
 20
4.693770343878641
 30
0.0
 10
1535.969639372952
 20
2.455491807111822
 30
0.0
 10
1538.731227913928
 20
2.455147297563296
 30
0.0
 10
1541.492127435808
 20
2.454802788014772
 30
0.0
 10
1543.730750482123
 20
4.693770343878641
 30
0.0
 10
1543.730750482123
 20
7.455358884854911
 30
0.0
  0
SPLINE
  5
53
330
1F
100
AcDbEntity
  8
drill holes 1800
 62
   250
370
     9
100
AcDbSpline
210
0.0
220
0.0
230
1.0
 70
    11
 71
     3
 72
    17
 73
    13
 74
     0
 42
0.0000000001
 43
0.0000000001
 40
0.0
 40
0.0
 40
0.0
 40
0.0
 40
1.0
 40
1.0
 40
1.0
 40
2.0
 40
2.0
 40
2.0
 40
3.0
 40
3.0
 40
3.0
 40
4.0
 40
4.0
 40
4.0
 40
4.0
 10
942.5137014787813
 20
-289.8012599644421
 30
0.0
 10
942.5126679501358
 20
-287.0403604425628
 30
0.0
 10
940.275078432466
 20
-284.801392886699
 30
0.0
 10
937.5131453819412
 20
-284.801392886699
 30
0.0
 10
934.7515568409649
 20
-284.8017373962475
 30
0.0
 10
932.5132783041981
 20
-287.0403604425628
 30
0.0
 10
932.5132783041981
 20
-289.8019489835391
 30
0.0
 10
932.5129337946496
 20
-292.5635375245154
 30
0.0
 10
934.7519013505134
 20
-294.8014715517337
 30
0.0
 10
937.5128008723926
 20
-294.8011270421852
 30
0.0
 10
940.2747339229174
 20
-294.8018160612822
 30
0.0
 10
942.5137014787813
 20
-292.5631930149668
 30
0.0
 10
942.5137014787813
 20
-289.8012599644421
 30
0.0
  0
SPLINE
  5
54
330
1F
100
AcDbEntity
  8
drill holes 1800
 62
   250
370
     9
100
AcDbSpline
210
0.0
220
0.0
230
1.0
 70
    11
 71
     3
 72
    17
 73
    13
 74
     0
 42
0.0000000001
 43
0.0000000001
 40
0.0
 40
0.0
 40
0.0
 40
0.0
 40
1.0
 40
1.0
 40
1.0
 40
2.0
 40
2.0
 40
2.0
 40
3.0
 40
3.0
 40
3.0
 40
4.0
 40
4.0
 40
4.0
 40
4.0
 10
942.5130124596843
 20
-145.9268377998898
 30
0.0
 10
942.5130124596843
 20
-148.687737321769
 30
0.0
 10
940.2743894133689
 20
-150.9263603680844
 30
0.0
 10
937.5134898914897
 20
-150.9267048776329
 30
0.0
 10
934.7519013505134
 20
-150.9267048776329
 30
0.0
 10
932.5125892851011
 20
-148.687737321769
 30
0.0
 10
932.5129337946496
 20
-145.9268377998898
 30
0.0
 10
932.5125892851011
 20
-143.1655937684621
 30
0.0
 10
934.7519013505134
 20
-140.9266262125982
 30
0.0
 10
937.5128008723926
 20
-140.9269707221467
 30
0.0
 10
940.2740449038204
 20
-140.9266262125982
 30
0.0
 10
942.5130124596843
 20
-143.164904749365
 30
0.0
 10
942.5130124596843
 20
-145.9268377998898
 30
0.0
  0
SPLINE
  5
55
330
1F
100
AcDbEntity
  8
drill holes 1800
 62
   250
370
     9
100
AcDbSpline
210
0.0
220
0.0
230
1.0
 70
    11
 71
     3
 72
    17
 73
    13
 74
     0
 42
0.0000000001
 43
0.0000000001
 40
0.0
 40
0.0
 40
0.0
 40
0.0
 40
1.0
 40
1.0
 40
1.0
 40
2.0
 40
2.0
 40
2.0
 40
3.0
 40
3.0
 40
3.0
 40
4.0
 40
4.0
 40
4.0
 40
4.0
 10
942.5126679501358
 20
7.057450356308554
 30
0.0
 10
942.5126679501358
 20
9.819038897284823
 30
0.0
 10
940.2743894133689
 20
12.05731743405164
 30
0.0
 10
937.5134898914897
 20
12.05731743405164
 30
0.0
 10
934.7519013505134
 20
12.05766194360017
 30
0.0
 10
932.5125892851011
 20
9.819038897284823
 30
0.0
 10
932.5125892851011
 20
7.05779486585708
 30
0.0
 10
932.5132783041981
 20
4.295861815332285
 30
0.0
 10
934.7515568409649
 20
2.057583278565466
 30
0.0
 10
937.5131453819412
 20
2.057583278565466
 30
0.0
 10
940.2740449038204
 20
2.05723876901694
 30
0.0
 10
942.5130124596843
 20
4.295861815332285
 30
0.0
 10
942.5126679501358
 20
7.057450356308554
 30
0.0
  0
POLYLINE
  5
56
330
1F
100
AcDbEntity
  8
drill holes 1800
 62
   250
370
     9
100
AcDb2dPolyline
 66
     1
 10
0.0
 20
0.0
 30
0.0
  0
VERTEX
  5
57
330
56
100
AcDbEntity
  8
drill holes 1800
 62
   250
370
     9
100
AcDbVertex
100
AcDb2dVertex
 10
1836.488419137232
 20
-403.2210380393857
 30
0.0
  0
VERTEX
  5
58
330
56
100
AcDbEntity
  8
drill holes 1800
 62
   250
370
     9
100
AcDbVertex
100
AcDb2dVertex
 10
637.488392310246
 20
-403.2210380393857
 30
0.0
  0
VERTEX
  5
59
330
56
100
AcDbEntity
  8
drill holes 1800
 62
   250
370
     9
100
AcDbVertex
100
AcDb2dVertex
 10
637.488392310246
 20
-803.2209118000628
 30
0.0
  0
VERTEX
  5
5A
330
56
100
AcDbEntity
  8
drill holes 1800
 62
   250
370
     9
100
AcDbVertex
100
AcDb2dVertex
 10
1786.59275671481
 20
-803.2209118000628
 30
0.0
  0
VERTEX
  5
5B
330
56
100
AcDbEntity
  8
drill holes 1800
 62
   250
370
     9
100
AcDbVertex
100
AcDb2dVertex
 10
1836.488419137232
 20
-403.2210380393857
 30
0.0
  0
SEQEND
  5
5C
330
56
100
AcDbEntity
  8
drill holes 1800
370
     9
  0
POLYLINE
  5
5D
330
1F
100
AcDbEntity
  8
drill holes 1800
 62
   250
370
     9
100
AcDb2dPolyline
 66
     1
 10
0.0
 20
0.0
 30
0.0
  0
VERTEX
  5
5E
330
5D
100
AcDbEntity
  8
drill holes 1800
 62
   250
370
     9
100
AcDbVertex
100
AcDb2dVertex
 10
1836.488419137232
 20
-331.2144082830818
 30
0.0
  0
VERTEX
  5
5F
330
5D
100
AcDbEntity
  8
drill holes 1800
 62
   250
370
     9
100
AcDbVertex
100
AcDb2dVertex
 10
637.488392310246
 20
-331.2144082830818
 30
0.0
  0
VERTEX
  5
60
330
5D
100
AcDbEntity
  8
drill holes 1800
 62
   250
370
     9
100
AcDbVertex
100
AcDb2dVertex
 10
637.488392310246
 20
68.78563773236957
 30
0.0
  0
VERTEX
  5
61
330
5D
100
AcDbEntity
  8
drill holes 1800
 62
   250
370
     9
100
AcDbVertex
100
AcDb2dVertex
 10
1786.59275671481
 20
68.78563773236957
 30
0.0
  0
VERTEX
  5
62
330
5D
100
AcDbEntity
  8
drill holes 1800
 62
   250
370
     9
100
AcDbVertex
100
AcDb2dVertex
 10
1836.488419137232
 20
-331.2144082830818
 30
0.0
  0
SEQEND
  5
63
330
5D
100
AcDbEntity
  8
drill holes 1800
370
     9
  0
INSERT
  5
65
330
1F
100
AcDbEntity
  8
drill holes 1800
100
AcDbBlockReference
  2
block 2
 10
0.0
 20
0.0
 30
0.0
  0
ENDSEC
  0
SECTION
  2
OBJECTS
  0
DICTIONARY
  5
C
330
0
100
AcDbDictionary
281
     1
  3
ACAD_GROUP
350
D
  3
ACAD_LAYOUT
350
1A
  3
ACAD_MLINESTYLE
350
17
  3
ACAD_PLOTSETTINGS
350
19
  3
ACAD_PLOTSTYLENAME
350
E
  3
ACAD_TABLESTYLE
350
68
  3
ACAD_VISUALSTYLE
350
2A
  0
DICTIONARY
  5
D
102
{ACAD_REACTORS
330
C
102
}
330
C
100
AcDbDictionary
281
     1
  0
DICTIONARY
  5
1A
102
{ACAD_REACTORS
330
C
102
}
330
C
100
AcDbDictionary
281
     1
  3
Layout1
350
1E
  3
Layout2
350
26
  3
Model
350
22
  0
DICTIONARY
  5
17
102
{ACAD_REACTORS
330
C
102
}
330
C
100
AcDbDictionary
281
     1
  3
Standard
350
18
  0
DICTIONARY
  5
19
102
{ACAD_REACTORS
330
C
102
}
330
C
100
AcDbDictionary
281
     1
  0
ACDBDICTIONARYWDFLT
  5
E
102
{ACAD_REACTORS
330
C
102
}
330
C
100
AcDbDictionary
281
     1
  3
Normal
350
F
100
AcDbDictionaryWithDefault
340
F
  0
DICTIONARY
  5
68
102
{ACAD_REACTORS
330
C
102
}
330
C
100
AcDbDictionary
281
     1
  0
DICTIONARY
  5
2A
102
{ACAD_REACTORS
330
C
102
}
330
C
100
AcDbDictionary
281
     1
  3
2dWireframe
350
2F
  3
3D Hidden
350
31
  3
3dWireframe
350
30
  3
Basic
350
32
  3
Brighten
350
36
  3
ColorChange
350
3A
  3
Conceptual
350
34
  3
Dim
350
35
  3
Facepattern
350
39
  3
Flat
350
2B
  3
FlatWithEdges
350
2C
  3
Gouraud
350
2D
  3
GouraudWithEdges
350
2E
  3
Linepattern
350
38
  3
Realistic
350
33
  3
Thicken
350
37
  0
LAYOUT
  5
1E
102
{ACAD_REACTORS
330
1A
102
}
330
1A
100
AcDbPlotSettings
  1

  2
none_device
  4

  6

 40
0.0
 41
0.0
 42
0.0
 43
0.0
 44
0.0
 45
0.0
 46
0.0
 47
0.0
 48
0.0
 49
0.0
140
0.0
141
0.0
142
1.0
143
1.0
 70
   688
 72
     0
 73
     0
 74
     5
  7

 75
    16
 76
     0
 77
     2
 78
   300
147
1.0
148
0.0
149
0.0
100
AcDbLayout
  1
Layout1
 70
     1
 71
     1
 10
0.0
 20
0.0
 11
12.0
 21
9.0
 12
0.0
 22
0.0
 32
0.0
 14
1.000000000000000E+20
 24
1.000000000000000E+20
 34
1.000000000000000E+20
 15
-1.000000000000000E+20
 25
-1.000000000000000E+20
 35
-1.000000000000000E+20
146
0.0
 13
0.0
 23
0.0
 33
0.0
 16
1.0
 26
0.0
 36
0.0
 17
0.0
 27
1.0
 37
0.0
 76
     0
330
1B
  0
LAYOUT
  5
26
102
{ACAD_REACTORS
330
1A
102
}
330
1A
100
AcDbPlotSettings
  1

  2
none_device
  4

  6

 40
0.0
 41
0.0
 42
0.0
 43
0.0
 44
0.0
 45
0.0
 46
0.0
 47
0.0
 48
0.0
 49
0.0
140
0.0
141
0.0
142
1.0
143
1.0
 70
   688
 72
     0
 73
     0
 74
     5
  7

 75
    16
 76
     0
 77
     2
 78
   300
147
1.0
148
0.0
149
0.0
100
AcDbLayout
  1
Layout2
 70
     1
 71
     2
 10
0.0
 20
0.0
 11
0.0
 21
0.0
 12
0.0
 22
0.0
 32
0.0
 14
0.0
 24
0.0
 34
0.0
 15
0.0
 25
0.0
 35
0.0
146
0.0
 13
0.0
 23
0.0
 33
0.0
 16
1.0
 26
0.0
 36
0.0
 17
0.0
 27
1.0
 37
0.0
 76
     0
330
23
  0
LAYOUT
  5
22
102
{ACAD_REACTORS
330
1A
102
}
330
1A
100
AcDbPlotSettings
  1

  2
none_device
  4

  6

 40
0.0
 41
0.0
 42
0.0
 43
0.0
 44
0.0
 45
0.0
 46
0.0
 47
0.0
 48
0.0
 49
0.0
140
0.0
141
0.0
142
1.0
143
1.0
 70
  1712
 72
     0
 73
     0
 74
     0
  7

 75
     0
 76
     0
 77
     2
 78
   300
147
1.0
148
0.0
149
0.0
100
AcDbLayout
  1
Model
 70
     1
 71
     0
 10
0.0
 20
0.0
 11
12.0
 21
9.0
 12
0.0
 22
0.0
 32
0.0
 14
1.000000000000000E+20
 24
1.000000000000000E+20
 34
1.000000000000000E+20
 15
-1.000000000000000E+20
 25
-1.000000000000000E+20
 35
-1.000000000000000E+20
146
0.0
 13
0.0
 23
0.0
 33
0.0
 16
1.0
 26
0.0
 36
0.0
 17
0.0
 27
1.0
 37
0.0
 76
     0
330
1F
331
29
  0
MLINESTYLE
  5
18
102
{ACAD_REACTORS
330
17
102
}
330
17
100
AcDbMlineStyle
  2
Standard
 70
     0
  3

 62
   256
 51
90.0
 52
90.0
 71
     2
 49
0.5
 62
   256
  6
BYLAYER
 49
-0.5
 62
   256
  6
BYLAYER
  0
ACDBPLACEHOLDER
  5
F
102
{ACAD_REACTORS
330
E
102
}
330
E
  0
VISUALSTYLE
  5
2F
102
{ACAD_REACTORS
330
2A
102
}
330
2A
100
AcDbVisualStyle
  2
2dWireframe
 70
     4
 71
     0
 72
     2
 73
     0
 90
        0
 40
-0.6
 41
-30.0
 62
     5
 63
     7
421
 16777215
 74
     1
 91
        4
 64
     7
 65
   257
 75
     1
175
     1
 42
1.0
 92
        0
 66
   257
 43
1.0
 76
     1
 77
     6
 78
     2
 67
     7
 79
     5
170
     0
171
     0
290
     0
174
     0
 93
        1
 44
0.0
173
     0
291
     0
 45
0.0
1001
ACAD
1000
AcDbSavedByObjectVersion
1070
     0
  0
VISUALSTYLE
  5
31
102
{ACAD_REACTORS
330
2A
102
}
330
2A
100
AcDbVisualStyle
  2
3D Hidden
 70
     6
 71
     1
 72
     2
 73
     2
 90
        0
 40
-0.6
 41
-30.0
 62
     5
 63
     7
421
 16777215
 74
     2
 91
        2
 64
     7
 65
   257
 75
     2
175
     1
 42
40.0
 92
        0
 66
   257
 43
1.0
 76
     1
 77
     6
 78
     2
 67
     7
 79
     3
170
     0
171
     0
290
     0
174
     0
 93
        1
 44
0.0
173
     0
291
     0
 45
0.0
1001
ACAD
1000
AcDbSavedByObjectVersion
1070
     0
  0
VISUALSTYLE
  5
30
102
{ACAD_REACTORS
330
2A
102
}
330
2A
100
AcDbVisualStyle
  2
3dWireframe
 70
     5
 71
     0
 72
     2
 73
     0
 90
        0
 40
-0.6
 41
-30.0
 62
     5
 63
     7
421
 16777215
 74
     1
 91
        4
 64
     7
 65
   257
 75
     1
175
     1
 42
1.0
 92
        0
 66
   257
 43
1.0
 76
     1
 77
     6
 78
     2
 67
     7
 79
     5
170
     0
171
     0
290
     0
174
     0
 93
        1
 44
0.0
173
     0
291
     0
 45
0.0
1001
ACAD
1000
AcDbSavedByObjectVersion
1070
     0
  0
VISUALSTYLE
  5
32
102
{ACAD_REACTORS
330
2A
102
}
330
2A
100
AcDbVisualStyle
  2
Basic
 70
     7
 71
     1
 72
     0
 73
     1
 90
        0
 40
-0.6
 41
-30.0
 62
     5
 63
     7
421
 16777215
 74
     0
 91
        4
 64
     7
 65
   257
 75
     1
175
     1
 42
1.0
 92
        8
 66
     7
 43
1.0
 76
     1
 77
     6
 78
     2
 67
     7
 79
     5
170
     0
171
     0
290
     0
174
     0
 93
        1
 44
0.0
173
     0
291
     1
 45
0.0
1001
ACAD
1000
AcDbSavedByObjectVersion
1070
     0
  0
VISUALSTYLE
  5
36
102
{ACAD_REACTORS
330
2A
102
}
330
2A
100
AcDbVisualStyle
  2
Brighten
 70
    12
 71
     2
 72
     2
 73
     0
 90
        0
 40
-0.6
 41
-30.0
 62
     5
 63
     7
421
 16777215
 74
     1
 91
        4
 64
     7
 65
   257
 75
     1
175
     1
 42
1.0
 92
        8
 66
     7
 43
1.0
 76
     1
 77
     6
 78
     2
 67
     7
 79
     5
170
     0
171
     0
290
     0
174
     0
 93
        1
 44
50.0
173
     0
291
     1
 45
0.0
1001
ACAD
1000
AcDbSavedByObjectVersion
1070
     0
  0
VISUALSTYLE
  5
3A
102
{ACAD_REACTORS
330
2A
102
}
330
2A
100
AcDbVisualStyle
  2
ColorChange
 70
    16
 71
     2
 72
     2
 73
     3
 90
        0
 40
-0.6
 41
-30.0
 62
     5
 63
     8
421
  8421504
 74
     1
 91
        4
 64
     7
 65
   257
 75
     1
175
     1
 42
1.0
 92
        8
 66
     8
424
  8421504
 43
1.0
 76
     1
 77
     6
 78
     2
 67
     7
 79
     5
170
     0
171
     0
290
     0
174
     0
 93
        1
 44
0.0
173
     0
291
     1
 45
0.0
1001
ACAD
1000
AcDbSavedByObjectVersion
1070
     0
  0
VISUALSTYLE
  5
34
102
{ACAD_REACTORS
330
2A
102
}
330
2A
100
AcDbVisualStyle
  2
Conceptual
 70
     9
 71
     3
 72
     2
 73
     0
 90
        0
 40
-0.6
 41
-30.0
 62
     5
 63
     7
421
 16777215
 74
     2
 91
        2
 64
     7
 65
   257
 75
     1
175
     1
 42
40.0
 92
        8
 66
     7
 43
1.0
 76
     1
 77
     6
 78
     2
 67
     7
 79
     3
170
     0
171
     0
290
     0
174
     0
 93
        1
 44
0.0
173
     0
291
     0
 45
0.0
1001
ACAD
1000
AcDbSavedByObjectVersion
1070
     0
  0
VISUALSTYLE
  5
35
102
{ACAD_REACTORS
330
2A
102
}
330
2A
100
AcDbVisualStyle
  2
Dim
 70
    11
 71
     2
 72
     2
 73
     0
 90
        0
 40
-0.6
 41
-30.0
 62
     5
 63
     7
421
 16777215
 74
     1
 91
        4
 64
     7
 65
   257
 75
     1
175
     1
 42
1.0
 92
        8
 66
     7
 43
1.0
 76
     1
 77
     6
 78
     2
 67
     7
 79
     5
170
     0
171
     0
290
     0
174
     0
 93
        1
 44
-50.0
173
     0
291
     1
 45
0.0
1001
ACAD
1000
AcDbSavedByObjectVersion
1070
     0
  0
VISUALSTYLE
  5
39
102
{ACAD_REACTORS
330
2A
102
}
330
2A
100
AcDbVisualStyle
  2
Facepattern
 70
    15
 71
     2
 72
     2
 73
     0
 90
        0
 40
-0.6
 41
-30.0
 62
     5
 63
     7
421
 16777215
 74
     1
 91
        4
 64
     7
 65
   257
 75
     1
175
     1
 42
1.0
 92
        8
 66
     7
 43
1.0
 76
     1
 77
     6
 78
     2
 67
     7
 79
     5
170
     0
171
     0
290
     0
174
     0
 93
        1
 44
0.0
173
     0
291
     1
 45
0.0
1001
ACAD
1000
AcDbSavedByObjectVersion
1070
     0
  0
VISUALSTYLE
  5
2B
102
{ACAD_REACTORS
330
2A
102
}
330
2A
100
AcDbVisualStyle
  2
Flat
 70
     0
 71
     2
 72
     1
 73
     1
 90
        2
 40
-0.6
 41
30.0
 62
     5
 63
     7
421
 16777215
 74
     0
 91
        4
 64
     7
 65
   257
 75
     1
175
     1
 42
1.0
 92
        8
 66
     7
 43
1.0
 76
     1
 77
     6
 78
     2
 67
     7
 79
     5
170
     0
171
     0
290
     0
174
     0
 93
       13
 44
0.0
173
     0
291
     1
 45
0.0
1001
ACAD
1000
AcDbSavedByObjectVersion
1070
     0
  0
VISUALSTYLE
  5
2C
102
{ACAD_REACTORS
330
2A
102
}
330
2A
100
AcDbVisualStyle
  2
FlatWithEdges
 70
     1
 71
     2
 72
     1
 73
     1
 90
        2
 40
-0.6
 41
30.0
 62
     5
 63
     7
421
 16777215
 74
     1
 91
        4
 64
     7
 65
   257
 75
     1
175
     1
 42
1.0
 92
        0
 66
   257
 43
1.0
 76
     1
 77
     6
 78
     2
 67
     7
 79
     5
170
     0
171
     0
290
     0
174
     0
 93
       13
 44
0.0
173
     0
291
     1
 45
0.0
1001
ACAD
1000
AcDbSavedByObjectVersion
1070
     0
  0
VISUALSTYLE
  5
2D
102
{ACAD_REACTORS
330
2A
102
}
330
2A
100
AcDbVisualStyle
  2
Gouraud
 70
     2
 71
     2
 72
     2
 73
     1
 90
        2
 40
-0.6
 41
30.0
 62
     5
 63
     7
421
 16777215
 74
     0
 91
        4
 64
     7
 65
   257
 75
     1
175
     1
 42
1.0
 92
        0
 66
     7
 43
1.0
 76
     1
 77
     6
 78
     2
 67
     7
 79
     5
170
     0
171
     0
290
     0
174
     0
 93
       13
 44
0.0
173
     0
291
     1
 45
0.0
1001
ACAD
1000
AcDbSavedByObjectVersion
1070
     0
  0
VISUALSTYLE
  5
2E
102
{ACAD_REACTORS
330
2A
102
}
330
2A
100
AcDbVisualStyle
  2
GouraudWithEdges
 70
     3
 71
     2
 72
     2
 73
     1
 90
        2
 40
-0.6
 41
30.0
 62
     5
 63
     7
421
 16777215
 74
     1
 91
        4
 64
     7
 65
   257
 75
     1
175
     1
 42
1.0
 92
        0
 66
   257
 43
1.0
 76
     1
 77
     6
 78
     2
 67
     7
 79
     5
170
     0
171
     0
290
     0
174
     0
 93
       13
 44
0.0
173
     0
291
     1
 45
0.0
1001
ACAD
1000
AcDbSavedByObjectVersion
1070
     0
  0
VISUALSTYLE
  5
38
102
{ACAD_REACTORS
330
2A
102
}
330
2A
100
AcDbVisualStyle
  2
Linepattern
 70
    14
 71
     2
 72
     2
 73
     0
 90
        0
 40
-0.6
 41
-30.0
 62
     5
 63
     7
421
 16777215
 74
     1
 91
        4
 64
     7
 65
   257
 75
     7
175
     7
 42
1.0
 92
        8
 66
     7
 43
1.0
 76
     1
 77
     6
 78
     2
 67
     7
 79
     5
170
     0
171
     0
290
     0
174
     0
 93
        1
 44
0.0
173
     0
291
     1
 45
0.0
1001
ACAD
1000
AcDbSavedByObjectVersion
1070
     0
  0
VISUALSTYLE
  5
33
102
{ACAD_REACTORS
330
2A
102
}
330
2A
100
AcDbVisualStyle
  2
Realistic
 70
     8
 71
     2
 72
     2
 73
     0
 90
        0
 40
-0.6
 41
-30.0
 62
     5
 63
     7
421
 16777215
 74
     1
 91
        0
 64
     7
 65
   257
 75
     1
175
     1
 42
1.0
 92
        8
 66
     8
424
  7895160
 43
1.0
 76
     1
 77
     6
 78
     2
 67
     7
 79
     5
170
     0
171
     0
290
     0
174
     0
 93
       13
 44
0.0
173
     0
291
     0
 45
0.0
1001
ACAD
1000
AcDbSavedByObjectVersion
1070
     0
  0
VISUALSTYLE
  5
37
102
{ACAD_REACTORS
330
2A
102
}
330
2A
100
AcDbVisualStyle
  2
Thicken
 70
    13
 71
     2
 72
     2
 73
     0
 90
        0
 40
-0.6
 41
-30.0
 62
     5
 63
     7
421
 16777215
 74
     1
 91
        4
 64
     7
 65
   257
 75
     1
175
     1
 42
1.0
 92
       12
 66
     7
 43
1.0
 76
     1
 77
     6
 78
     2
 67
     7
 79
     5
170
     0
171
     0
290
     0
174
     0
 93
        1
 44
0.0
173
     0
291
     1
 45
0.0
1001
ACAD
1000
AcDbSavedByObjectVersion
1070
     0
  0
ENDSEC
  0
EOF
