  0
SECTION
  2
HEADER
  9
$ACADVER
  1
AC1018
  9
$ACADMAINTVER
 70
     0
  9
$DWGCODEPAGE
  3
ANSI_1252
  9
$INSBASE
 10
0.0
 20
0.0
 30
0.0
  9
$EXTMIN
 10
1.000000000000000E+20
 20
1.000000000000000E+20
 30
1.000000000000000E+20
  9
$EXTMAX
 10
-1.000000000000000E+20
 20
-1.000000000000000E+20
 30
-1.000000000000000E+20
  9
$LIMMIN
 10
0.0
 20
0.0
  9
$LIMMAX
 10
12.0
 20
9.0
  9
$ORTHOMODE
 70
     0
  9
$REGENMODE
 70
     1
  9
$FILLMODE
 70
     1
  9
$QTEXTMODE
 70
     0
  9
$MIRRTEXT
 70
     1
  9
$LTSCALE
 40
1.0
  9
$ATTMODE
 70
     1
  9
$TEXTSIZE
 40
0.2
  9
$TRACEWID
 40
0.05
  9
$TEXTSTYLE
  7
Standard
  9
$CLAYER
  8
0
  9
$CELTYPE
  6
ByLayer
  9
$CECOLOR
 62
   256
  9
$CELTSCALE
 40
1.0
  9
$DISPSILH
 70
     0
  9
$DIMSCALE
 40
1.0
  9
$DIMASZ
 40
0.18
  9
$DIMEXO
 40
0.0625
  9
$DIMDLI
 40
0.38
  9
$DIMRND
 40
0.0
  9
$DIMDLE
 40
0.0
  9
$DIMEXE
 40
0.18
  9
$DIMTP
 40
0.0
  9
$DIMTM
 40
0.0
  9
$DIMTXT
 40
0.18
  9
$DIMCEN
 40
0.09
  9
$DIMTSZ
 40
0.0
  9
$DIMTOL
 70
     0
  9
$DIMLIM
 70
     0
  9
$DIMTIH
 70
     1
  9
$DIMTOH
 70
     1
  9
$DIMSE1
 70
     0
  9
$DIMSE2
 70
     0
  9
$DIMTAD
 70
     0
  9
$DIMZIN
 70
     0
  9
$DIMBLK
  1

  9
$DIMASO
 70
     1
  9
$DIMSHO
 70
     1
  9
$DIMPOST
  1

  9
$DIMAPOST
  1

  9
$DIMALT
 70
     0
  9
$DIMALTD
 70
     2
  9
$DIMALTF
 40
25.4
  9
$DIMLFAC
 40
1.0
  9
$DIMTOFL
 70
     0
  9
$DIMTVP
 40
0.0
  9
$DIMTIX
 70
     0
  9
$DIMSOXD
 70
     0
  9
$DIMSAH
 70
     0
  9
$DIMBLK1
  1

  9
$DIMBLK2
  1

  9
$DIMSTYLE
  2
Standard
  9
$DIMCLRD
 70
     0
  9
$DIMCLRE
 70
     0
  9
$DIMCLRT
 70
     0
  9
$DIMTFAC
 40
1.0
  9
$DIMGAP
 40
0.09
  9
$DIMJUST
 70
     0
  9
$DIMSD1
 70
     0
  9
$DIMSD2
 70
     0
  9
$DIMTOLJ
 70
     1
  9
$DIMTZIN
 70
     0
  9
$DIMALTZ
 70
     0
  9
$DIMALTTZ
 70
     0
  9
$DIMUPT
 70
     0
  9
$DIMDEC
 70
     4
  9
$DIMTDEC
 70
     4
  9
$DIMALTU
 70
     2
  9
$DIMALTTD
 70
     2
  9
$DIMTXSTY
  7
Standard
  9
$DIMAUNIT
 70
     0
  9
$DIMADEC
 70
     0
  9
$DIMALTRND
 40
0.0
  9
$DIMAZIN
 70
     0
  9
$DIMDSEP
 70
    46
  9
$DIMATFIT
 70
     3
  9
$DIMFRAC
 70
     0
  9
$DIMLDRBLK
  1

  9
$DIMLUNIT
 70
     2
  9
$DIMLWD
 70
    -2
  9
$DIMLWE
 70
    -2
  9
$DIMTMOVE
 70
     0
  9
$LUNITS
 70
     2
  9
$LUPREC
 70
     4
  9
$SKETCHINC
 40
0.1
  9
$FILLETRAD
 40
0.5
  9
$AUNITS
 70
     0
  9
$AUPREC
 70
     0
  9
$MENU
  1
.
  9
$ELEVATION
 40
0.0
  9
$PELEVATION
 40
0.0
  9
$THICKNESS
 40
0.0
  9
$LIMCHECK
 70
     0
  9
$CHAMFERA
 40
0.5
  9
$CHAMFERB
 40
0.5
  9
$CHAMFERC
 40
1.0
  9
$CHAMFERD
 40
0.0
  9
$SKPOLY
 70
     0
  9
$TDCREATE
 40
2456236.522792766
  9
$TDUCREATE
 40
2456235.981126099
  9
$TDUPDATE
 40
2456236.522792778
  9
$TDUUPDATE
 40
2456235.981126111
  9
$TDINDWG
 40
0.0000000116
  9
$TDUSRTIMER
 40
0.0000000116
  9
$USRTIMER
 70
     1
  9
$ANGBASE
 50
0.0
  9
$ANGDIR
 70
     0
  9
$PDMODE
 70
     0
  9
$PDSIZE
 40
0.0
  9
$PLINEWID
 40
0.0
  9
$SPLFRAME
 70
     0
  9
$SPLINETYPE
 70
     6
  9
$SPLINESEGS
 70
     8
  9
$HANDSEED
  5
D2
  9
$SURFTAB1
 70
     6
  9
$SURFTAB2
 70
     6
  9
$SURFTYPE
 70
     6
  9
$SURFU
 70
     6
  9
$SURFV
 70
     6
  9
$UCSBASE
  2

  9
$UCSNAME
  2

  9
$UCSORG
 10
0.0
 20
0.0
 30
0.0
  9
$UCSXDIR
 10
1.0
 20
0.0
 30
0.0
  9
$UCSYDIR
 10
0.0
 20
1.0
 30
0.0
  9
$UCSORTHOREF
  2

  9
$UCSORTHOVIEW
 70
     0
  9
$UCSORGTOP
 10
0.0
 20
0.0
 30
0.0
  9
$UCSORGBOTTOM
 10
0.0
 20
0.0
 30
0.0
  9
$UCSORGLEFT
 10
0.0
 20
0.0
 30
0.0
  9
$UCSORGRIGHT
 10
0.0
 20
0.0
 30
0.0
  9
$UCSORGFRONT
 10
0.0
 20
0.0
 30
0.0
  9
$UCSORGBACK
 10
0.0
 20
0.0
 30
0.0
  9
$PUCSBASE
  2

  9
$PUCSNAME
  2

  9
$PUCSORG
 10
0.0
 20
0.0
 30
0.0
  9
$PUCSXDIR
 10
1.0
 20
0.0
 30
0.0
  9
$PUCSYDIR
 10
0.0
 20
1.0
 30
0.0
  9
$PUCSORTHOREF
  2

  9
$PUCSORTHOVIEW
 70
     0
  9
$PUCSORGTOP
 10
0.0
 20
0.0
 30
0.0
  9
$PUCSORGBOTTOM
 10
0.0
 20
0.0
 30
0.0
  9
$PUCSORGLEFT
 10
0.0
 20
0.0
 30
0.0
  9
$PUCSORGRIGHT
 10
0.0
 20
0.0
 30
0.0
  9
$PUCSORGFRONT
 10
0.0
 20
0.0
 30
0.0
  9
$PUCSORGBACK
 10
0.0
 20
0.0
 30
0.0
  9
$USERI1
 70
     0
  9
$USERI2
 70
     0
  9
$USERI3
 70
     0
  9
$USERI4
 70
     0
  9
$USERI5
 70
     0
  9
$USERR1
 40
0.0
  9
$USERR2
 40
0.0
  9
$USERR3
 40
0.0
  9
$USERR4
 40
0.0
  9
$USERR5
 40
0.0
  9
$WORLDVIEW
 70
     1
  9
$SHADEDGE
 70
     3
  9
$SHADEDIF
 70
    70
  9
$TILEMODE
 70
     1
  9
$MAXACTVP
 70
    64
  9
$PINSBASE
 10
0.0
 20
0.0
 30
0.0
  9
$PLIMCHECK
 70
     0
  9
$PEXTMIN
 10
1.000000000000000E+20
 20
1.000000000000000E+20
 30
1.000000000000000E+20
  9
$PEXTMAX
 10
-1.000000000000000E+20
 20
-1.000000000000000E+20
 30
-1.000000000000000E+20
  9
$PLIMMIN
 10
0.0
 20
0.0
  9
$PLIMMAX
 10
12.0
 20
9.0
  9
$UNITMODE
 70
     0
  9
$VISRETAIN
 70
     1
  9
$PLINEGEN
 70
     0
  9
$PSLTSCALE
 70
     1
  9
$TREEDEPTH
 70
  3020
  9
$CMLSTYLE
  2
Standard
  9
$CMLJUST
 70
     0
  9
$CMLSCALE
 40
1.0
  9
$PROXYGRAPHICS
 70
     1
  9
$MEASUREMENT
 70
     0
  9
$CELWEIGHT
370
    -1
  9
$ENDCAPS
280
     0
  9
$JOINSTYLE
280
     0
  9
$LWDISPLAY
290
     1
  9
$INSUNITS
 70
     1
  9
$HYPERLINKBASE
  1

  9
$STYLESHEET
  1

  9
$XEDIT
290
     1
  9
$CEPSNTYPE
380
     0
  9
$PSTYLEMODE
290
     1
  9
$FINGERPRINTGUID
  2
{F56C4925-CCA0-449E-A7BA-7417B7D2267D}
  9
$VERSIONGUID
  2
{FAEB1C32-E019-11D5-929B-00C0DF256EC4}
  9
$EXTNAMES
290
     1
  9
$PSVPSCALE
 40
0.0
  9
$OLESTARTUP
290
     0
  9
$SORTENTS
280
   127
  9
$INDEXCTL
280
     0
  9
$HIDETEXT
280
     1
  9
$XCLIPFRAME
290
     0
  9
$HALOGAP
280
     0
  9
$OBSCOLOR
 70
   257
  9
$OBSLTYPE
280
     0
  9
$INTERSECTIONDISPLAY
280
     0
  9
$INTERSECTIONCOLOR
 70
   257
  9
$DIMASSOC
280
     2
  9
$PROJECTNAME
  1

  0
ENDSEC
  0
SECTION
  2
CLASSES
  0
CLASS
  1
ACDBDICTIONARYWDFLT
  2
AcDbDictionaryWithDefault
  3
ObjectDBX Classes
 90
        0
 91
        3
280
     0
281
     0
  0
CLASS
  1
VISUALSTYLE
  2
AcDbVisualStyle
  3
ObjectDBX Classes
 90
     4095
 91
        3
280
     0
281
     0
  0
ENDSEC
  0
SECTION
  2
TABLES
  0
TABLE
  2
VPORT
  5
8
330
0
100
AcDbSymbolTable
 70
     1
  0
VPORT
  5
29
330
8
100
AcDbSymbolTableRecord
100
AcDbViewportTableRecord
  2
*Active
 70
     0
 10
0.0
 20
0.0
 11
1.0
 21
1.0
 12
0.0
 22
0.0
 13
0.0
 23
0.0
 14
0.5
 24
0.5
 15
0.5
 25
0.5
 16
0.0
 26
0.0
 36
1.0
 17
1236.988577978513
 27
-604.4941099562984
 37
0.0
 40
1200.000310301129
 41
2.0
 42
50.0
 43
0.0
 44
0.0
 50
0.0
 51
0.0
 71
     0
 72
   100
 73
     1
 74
     3
 75
     0
 76
     0
 77
     0
 78
     0
281
     0
 65
     1
110
0.0
120
0.0
130
0.0
111
1.0
121
0.0
131
0.0
112
0.0
122
1.0
132
0.0
 79
     0
146
0.0
  0
ENDTAB
  0
TABLE
  2
LTYPE
  5
5
330
0
100
AcDbSymbolTable
 70
     1
  0
LTYPE
  5
14
330
5
100
AcDbSymbolTableRecord
100
AcDbLinetypeTableRecord
  2
ByBlock
 70
     0
  3

 72
    65
 73
     0
 40
0.0
  0
LTYPE
  5
15
330
5
100
AcDbSymbolTableRecord
100
AcDbLinetypeTableRecord
  2
ByLayer
 70
     0
  3

 72
    65
 73
     0
 40
0.0
  0
LTYPE
  5
16
330
5
100
AcDbSymbolTableRecord
100
AcDbLinetypeTableRecord
  2
Continuous
 70
     0
  3
Solid line
 72
    65
 73
     0
 40
0.0
  0
ENDTAB
  0
TABLE
  2
LAYER
  5
2
330
0
100
AcDbSymbolTable
 70
     8
  0
LAYER
  5
10
330
2
100
AcDbSymbolTableRecord
100
AcDbLayerTableRecord
  2
0
 70
     0
 62
     7
  6
Continuous
370
    -3
390
F
  0
LAYER
  5
3B
330
2
100
AcDbSymbolTableRecord
100
AcDbLayerTableRecord
  2
full strips
 70
     0
 62
     7
  6
Continuous
370
    -3
390
F
  0
LAYER
  5
58
330
2
100
AcDbSymbolTableRecord
100
AcDbLayerTableRecord
  2
sides
 70
     0
 62
     7
  6
Continuous
370
    -3
390
F
  0
LAYER
  5
59
330
2
100
AcDbSymbolTableRecord
100
AcDbLayerTableRecord
  2
drill holes 1800
 70
     0
 62
     7
  6
Continuous
370
    -3
390
F
  0
LAYER
  5
5A
330
2
100
AcDbSymbolTableRecord
100
AcDbLayerTableRecord
  2
drill holes 1200
 70
     0
 62
     7
  6
Continuous
370
    -3
390
F
  0
LAYER
  5
69
330
2
100
AcDbSymbolTableRecord
100
AcDbLayerTableRecord
  2
full outline and jig
 70
     0
 62
     7
  6
Continuous
370
    -3
390
F
  0
LAYER
  5
6A
330
2
100
AcDbSymbolTableRecord
100
AcDbLayerTableRecord
  2
1200 outline
 70
     0
 62
     7
  6
Continuous
370
    -3
390
F
  0
LAYER
  5
CC
330
2
100
AcDbSymbolTableRecord
100
AcDbLayerTableRecord
  2
1800 outline
 70
     0
 62
     7
  6
Continuous
370
    -3
390
F
  0
ENDTAB
  0
TABLE
  2
STYLE
  5
3
330
0
100
AcDbSymbolTable
 70
     1
  0
STYLE
  5
11
330
3
100
AcDbSymbolTableRecord
100
AcDbTextStyleTableRecord
  2
Standard
 70
     0
 40
0.0
 41
1.0
 50
0.0
 71
     0
 42
0.2
  3
txt
  4

  0
ENDTAB
  0
TABLE
  2
VIEW
  5
6
330
0
100
AcDbSymbolTable
 70
     0
  0
ENDTAB
  0
TABLE
  2
UCS
  5
7
330
0
100
AcDbSymbolTable
 70
     0
  0
ENDTAB
  0
TABLE
  2
APPID
  5
9
330
0
100
AcDbSymbolTable
 70
     1
  0
APPID
  5
12
330
9
100
AcDbSymbolTableRecord
100
AcDbRegAppTableRecord
  2
ACAD
 70
     0
  0
ENDTAB
  0
TABLE
  2
DIMSTYLE
  5
A
330
0
100
AcDbSymbolTable
 70
     1
100
AcDbDimStyleTable
  0
DIMSTYLE
105
27
330
A
100
AcDbSymbolTableRecord
100
AcDbDimStyleTableRecord
  2
Standard
 70
     0
340
11
  0
ENDTAB
  0
TABLE
  2
BLOCK_RECORD
  5
1
330
0
100
AcDbSymbolTable
 70
     5
  0
BLOCK_RECORD
  5
1F
330
1
100
AcDbSymbolTableRecord
100
AcDbBlockTableRecord
  2
*Model_Space
340
22
  0
BLOCK_RECORD
  5
1B
330
1
100
AcDbSymbolTableRecord
100
AcDbBlockTableRecord
  2
*Paper_Space
340
1E
  0
BLOCK_RECORD
  5
23
330
1
100
AcDbSymbolTableRecord
100
AcDbBlockTableRecord
  2
*Paper_Space0
340
26
  0
BLOCK_RECORD
  5
5B
330
1
100
AcDbSymbolTableRecord
100
AcDbBlockTableRecord
  2
block 2
340
0
102
{BLKREFS
331
5C
102
}
  0
BLOCK_RECORD
  5
AC
330
1
100
AcDbSymbolTableRecord
100
AcDbBlockTableRecord
  2
block 3
340
0
102
{BLKREFS
331
AD
102
}
  0
BLOCK_RECORD
  5
B0
330
1
100
AcDbSymbolTableRecord
100
AcDbBlockTableRecord
  2
block 4
340
0
102
{BLKREFS
331
B1
102
}
  0
BLOCK_RECORD
  5
CD
330
1
100
AcDbSymbolTableRecord
100
AcDbBlockTableRecord
  2
block 5
340
0
102
{BLKREFS
331
CE
102
}
  0
ENDTAB
  0
ENDSEC
  0
SECTION
  2
BLOCKS
  0
BLOCK
  5
20
330
1F
100
AcDbEntity
  8
0
100
AcDbBlockBegin
  2
*Model_Space
 70
     0
 71
     0
 10
0.0
 20
0.0
 30
0.0
  3
*Model_Space
  1

  0
ENDBLK
  5
21
330
1F
100
AcDbEntity
  8
0
100
AcDbBlockEnd
  0
BLOCK
  5
1C
330
1B
100
AcDbEntity
 67
     1
  8
0
100
AcDbBlockBegin
  2
*Paper_Space
 70
     0
 71
     0
 10
0.0
 20
0.0
 30
0.0
  3
*Paper_Space
  1

  0
ENDBLK
  5
1D
330
1B
100
AcDbEntity
 67
     1
  8
0
100
AcDbBlockEnd
  0
BLOCK
  5
24
330
23
100
AcDbEntity
  8
0
100
AcDbBlockBegin
  2
*Paper_Space0
 70
     0
 71
     0
 10
0.0
 20
0.0
 30
0.0
  3
*Paper_Space0
  1

  0
ENDBLK
  5
25
330
23
100
AcDbEntity
  8
0
100
AcDbBlockEnd
  0
BLOCK
  5
5D
330
5B
100
AcDbEntity
  8
0
100
AcDbBlockBegin
  2
block 2
 70
     0
 71
     0
 10
0.0
 20
0.0
 30
0.0
  3
block 2
  1

  0
SPLINE
  5
5F
330
5B
100
AcDbEntity
  8
drill holes 1200
 62
   250
370
    25
100
AcDbSpline
210
0.0
220
0.0
230
1.0
 70
    11
 71
     3
 72
    17
 73
    13
 74
     0
 42
0.0000000001
 43
0.0000000001
 40
0.0
 40
0.0
 40
0.0
 40
0.0
 40
1.0
 40
1.0
 40
1.0
 40
2.0
 40
2.0
 40
2.0
 40
3.0
 40
3.0
 40
3.0
 40
4.0
 40
4.0
 40
4.0
 40
4.0
 10
1011.601646339982
 20
-321.6864799543006
 30
0.0
 10
1011.601646339982
 20
-324.4477239857284
 30
0.0
 10
1013.840269386297
 20
-326.6863470320437
 30
0.0
 10
1016.601857927273
 20
-326.6863470320437
 30
0.0
 10
1019.363446468249
 20
-326.6863470320437
 30
0.0
 10
1021.602069514565
 20
-324.4477239857284
 30
0.0
 10
1021.602069514565
 20
-321.6864799543006
 30
0.0
 10
1021.602069514565
 20
-318.9248914133244
 30
0.0
 10
1019.363446468249
 20
-316.686268367009
 30
0.0
 10
1016.601857927273
 20
-316.686268367009
 30
0.0
 10
1013.840269386297
 20
-316.686268367009
 30
0.0
 10
1011.601646339982
 20
-318.9248914133244
 30
0.0
 10
1011.601646339982
 20
-321.6864799543006
 30
0.0
  0
SPLINE
  5
60
330
5B
100
AcDbEntity
  8
drill holes 1200
 62
   250
370
    25
100
AcDbSpline
210
0.0
220
0.0
230
1.0
 70
    11
 71
     3
 72
    17
 73
    13
 74
     0
 42
0.0000000001
 43
0.0000000001
 40
0.0
 40
0.0
 40
0.0
 40
0.0
 40
1.0
 40
1.0
 40
1.0
 40
2.0
 40
2.0
 40
2.0
 40
3.0
 40
3.0
 40
3.0
 40
4.0
 40
4.0
 40
4.0
 40
4.0
 10
411.6014050620302
 20
-321.6857909352036
 30
0.0
 10
411.6014050620302
 20
-318.9245469037758
 30
0.0
 10
413.8400281083456
 20
-316.6859238574605
 30
0.0
 10
416.6016166493218
 20
-316.6859238574605
 30
0.0
 10
419.3632051902981
 20
-316.6859238574605
 30
0.0
 10
421.6018282366135
 20
-318.9245469037758
 30
0.0
 10
421.6018282366135
 20
-321.6857909352036
 30
0.0
 10
421.6018282366135
 20
-324.4473794761798
 30
0.0
 10
419.3632051902981
 20
-326.6860025224952
 30
0.0
 10
416.6016166493218
 20
-326.6860025224952
 30
0.0
 10
413.8400281083456
 20
-326.6860025224952
 30
0.0
 10
411.6014050620302
 20
-324.4473794761798
 30
0.0
 10
411.6014050620302
 20
-321.6857909352036
 30
0.0
  0
SPLINE
  5
61
330
5B
100
AcDbEntity
  8
drill holes 1200
 62
   250
370
    25
100
AcDbSpline
210
0.0
220
0.0
230
1.0
 70
    11
 71
     3
 72
    17
 73
    13
 74
     0
 42
0.0000000001
 43
0.0000000001
 40
0.0
 40
0.0
 40
0.0
 40
0.0
 40
1.0
 40
1.0
 40
1.0
 40
2.0
 40
2.0
 40
2.0
 40
3.0
 40
3.0
 40
3.0
 40
4.0
 40
4.0
 40
4.0
 40
4.0
 10
1011.601646339982
 20
-438.2798799902565
 30
0.0
 10
1011.601646339982
 20
-435.5186359588287
 30
0.0
 10
1013.840269386297
 20
-433.2803574220619
 30
0.0
 10
1016.601513417725
 20
-433.2803574220619
 30
0.0
 10
1019.363101958701
 20
-433.2803574220619
 30
0.0
 10
1021.601725005016
 20
-435.5186359588287
 30
0.0
 10
1021.601725005016
 20
-438.2798799902565
 30
0.0
 10
1021.601725005016
 20
-441.0414685312327
 30
0.0
 10
1019.363101958701
 20
-443.280091577548
 30
0.0
 10
1016.601513417725
 20
-443.280091577548
 30
0.0
 10
1013.840269386297
 20
-443.280091577548
 30
0.0
 10
1011.601646339982
 20
-441.0414685312327
 30
0.0
 10
1011.601646339982
 20
-438.2798799902565
 30
0.0
  0
SPLINE
  5
62
330
5B
100
AcDbEntity
  8
drill holes 1200
 62
   250
370
    25
100
AcDbSpline
210
0.0
220
0.0
230
1.0
 70
    11
 71
     3
 72
    17
 73
    13
 74
     0
 42
0.0000000001
 43
0.0000000001
 40
0.0
 40
0.0
 40
0.0
 40
0.0
 40
1.0
 40
1.0
 40
1.0
 40
2.0
 40
2.0
 40
2.0
 40
3.0
 40
3.0
 40
3.0
 40
4.0
 40
4.0
 40
4.0
 40
4.0
 10
1011.601646339982
 20
-205.0922186444735
 30
0.0
 10
1011.601646339982
 20
-207.8538071854497
 30
0.0
 10
1013.840269386297
 20
-210.0920857222166
 30
0.0
 10
1016.601513417725
 20
-210.0920857222166
 30
0.0
 10
1019.363101958701
 20
-210.0920857222166
 30
0.0
 10
1021.601725005016
 20
-207.8538071854497
 30
0.0
 10
1021.601725005016
 20
-205.0922186444735
 30
0.0
 10
1021.601725005016
 20
-202.3306301034972
 30
0.0
 10
1019.363101958701
 20
-200.0920070571819
 30
0.0
 10
1016.601513417725
 20
-200.0920070571819
 30
0.0
 10
1013.840269386297
 20
-200.0920070571819
 30
0.0
 10
1011.601646339982
 20
-202.3306301034972
 30
0.0
 10
1011.601646339982
 20
-205.0922186444735
 30
0.0
  0
SPLINE
  5
63
330
5B
100
AcDbEntity
  8
drill holes 1200
 62
   250
370
    25
100
AcDbSpline
210
0.0
220
0.0
230
1.0
 70
    11
 71
     3
 72
    17
 73
    13
 74
     0
 42
0.0000000001
 43
0.0000000001
 40
0.0
 40
0.0
 40
0.0
 40
0.0
 40
1.0
 40
1.0
 40
1.0
 40
2.0
 40
2.0
 40
2.0
 40
3.0
 40
3.0
 40
3.0
 40
4.0
 40
4.0
 40
4.0
 40
4.0
 10
1011.601646339982
 20
-546.237803682885
 30
0.0
 10
1011.601646339982
 20
-543.4765596514573
 30
0.0
 10
1013.840269386297
 20
-541.237936605142
 30
0.0
 10
1016.601857927273
 20
-541.237936605142
 30
0.0
 10
1019.363101958701
 20
-541.237936605142
 30
0.0
 10
1021.601725005016
 20
-543.4765596514573
 30
0.0
 10
1021.601725005016
 20
-546.237803682885
 30
0.0
 10
1021.601725005016
 20
-548.9990477143127
 30
0.0
 10
1019.363101958701
 20
-551.2376707606281
 30
0.0
 10
1016.601857927273
 20
-551.2376707606281
 30
0.0
 10
1013.840269386297
 20
-551.2376707606281
 30
0.0
 10
1011.601646339982
 20
-548.9990477143127
 30
0.0
 10
1011.601646339982
 20
-546.237803682885
 30
0.0
  0
SPLINE
  5
64
330
5B
100
AcDbEntity
  8
drill holes 1200
 62
   250
370
    25
100
AcDbSpline
210
0.0
220
0.0
230
1.0
 70
    11
 71
     3
 72
    17
 73
    13
 74
     0
 42
0.0000000001
 43
0.0000000001
 40
0.0
 40
0.0
 40
0.0
 40
0.0
 40
1.0
 40
1.0
 40
1.0
 40
2.0
 40
2.0
 40
2.0
 40
3.0
 40
3.0
 40
3.0
 40
4.0
 40
4.0
 40
4.0
 40
4.0
 10
1011.601646339982
 20
-97.13429495184491
 30
0.0
 10
1011.601646339982
 20
-99.89553898327264
 30
0.0
 10
1013.840269386297
 20
-102.134162029588
 30
0.0
 10
1016.601857927273
 20
-102.134162029588
 30
0.0
 10
1019.363101958701
 20
-102.134162029588
 30
0.0
 10
1021.601725005016
 20
-99.89553898327264
 30
0.0
 10
1021.601725005016
 20
-97.13429495184491
 30
0.0
 10
1021.601725005016
 20
-94.37270641086863
 30
0.0
 10
1019.363101958701
 20
-92.13408336455329
 30
0.0
 10
1016.601857927273
 20
-92.13408336455329
 30
0.0
 10
1013.840269386297
 20
-92.13408336455329
 30
0.0
 10
1011.601646339982
 20
-94.37270641086863
 30
0.0
 10
1011.601646339982
 20
-97.13429495184491
 30
0.0
  0
SPLINE
  5
65
330
5B
100
AcDbEntity
  8
drill holes 1200
 62
   250
370
    25
100
AcDbSpline
210
0.0
220
0.0
230
1.0
 70
    11
 71
     3
 72
    17
 73
    13
 74
     0
 42
0.0000000001
 43
0.0000000001
 40
0.0
 40
0.0
 40
0.0
 40
0.0
 40
1.0
 40
1.0
 40
1.0
 40
2.0
 40
2.0
 40
2.0
 40
3.0
 40
3.0
 40
3.0
 40
4.0
 40
4.0
 40
4.0
 40
4.0
 10
411.6017495715788
 20
-522.181735438031
 30
0.0
 10
411.6017495715788
 20
-519.4201468970547
 30
0.0
 10
413.8403726178941
 20
-517.1815238507394
 30
0.0
 10
416.6019611588704
 20
-517.1815238507394
 30
0.0
 10
419.3632051902981
 20
-517.1815238507394
 30
0.0
 10
421.6018282366135
 20
-519.4201468970547
 30
0.0
 10
421.6018282366135
 20
-522.181735438031
 30
0.0
 10
421.6018282366135
 20
-524.9433239790072
 30
0.0
 10
419.3632051902981
 20
-527.1819470253226
 30
0.0
 10
416.6019611588704
 20
-527.1819470253226
 30
0.0
 10
413.8403726178941
 20
-527.1819470253226
 30
0.0
 10
411.6017495715788
 20
-524.9433239790072
 30
0.0
 10
411.6017495715788
 20
-522.181735438031
 30
0.0
  0
SPLINE
  5
66
330
5B
100
AcDbEntity
  8
drill holes 1200
 62
   250
370
    25
100
AcDbSpline
210
0.0
220
0.0
230
1.0
 70
    11
 71
     3
 72
    17
 73
    13
 74
     0
 42
0.0000000001
 43
0.0000000001
 40
0.0
 40
0.0
 40
0.0
 40
0.0
 40
1.0
 40
1.0
 40
1.0
 40
2.0
 40
2.0
 40
2.0
 40
3.0
 40
3.0
 40
3.0
 40
4.0
 40
4.0
 40
4.0
 40
4.0
 10
411.6017495715788
 20
-121.1900186871504
 30
0.0
 10
411.6017495715788
 20
-123.9516072281267
 30
0.0
 10
413.8403726178941
 20
-126.190230274442
 30
0.0
 10
416.6019611588704
 20
-126.190230274442
 30
0.0
 10
419.3632051902981
 20
-126.190230274442
 30
0.0
 10
421.6018282366135
 20
-123.9516072281267
 30
0.0
 10
421.6018282366135
 20
-121.1900186871504
 30
0.0
 10
421.6018282366135
 20
-118.4287746557227
 30
0.0
 10
419.3632051902981
 20
-116.1901516094073
 30
0.0
 10
416.6019611588704
 20
-116.1901516094073
 30
0.0
 10
413.8403726178941
 20
-116.1901516094073
 30
0.0
 10
411.6017495715788
 20
-118.4287746557227
 30
0.0
 10
411.6017495715788
 20
-121.1900186871504
 30
0.0
  0
SPLINE
  5
67
330
5B
100
AcDbEntity
  8
drill holes 1200
 62
   250
370
    25
100
AcDbSpline
210
0.0
220
0.0
230
1.0
 70
    11
 71
     3
 72
    17
 73
    13
 74
     0
 42
0.0000000001
 43
0.0000000001
 40
0.0
 40
0.0
 40
0.0
 40
0.0
 40
1.0
 40
1.0
 40
1.0
 40
2.0
 40
2.0
 40
2.0
 40
3.0
 40
3.0
 40
3.0
 40
4.0
 40
4.0
 40
4.0
 40
4.0
 10
411.6017495715788
 20
-426.3832762605917
 30
0.0
 10
411.6017495715788
 20
-423.6220322291639
 30
0.0
 10
413.8403726178941
 20
-421.3834091828486
 30
0.0
 10
416.6016166493218
 20
-421.3834091828486
 30
0.0
 10
419.3632051902981
 20
-421.3834091828486
 30
0.0
 10
421.6018282366135
 20
-423.6220322291639
 30
0.0
 10
421.6018282366135
 20
-426.3832762605917
 30
0.0
 10
421.6018282366135
 20
-429.144864801568
 30
0.0
 10
419.3632051902981
 20
-431.3834878478833
 30
0.0
 10
416.6016166493218
 20
-431.3834878478833
 30
0.0
 10
413.8403726178941
 20
-431.3834878478833
 30
0.0
 10
411.6017495715788
 20
-429.144864801568
 30
0.0
 10
411.6017495715788
 20
-426.3832762605917
 30
0.0
  0
SPLINE
  5
68
330
5B
100
AcDbEntity
  8
drill holes 1200
 62
   250
370
    25
100
AcDbSpline
210
0.0
220
0.0
230
1.0
 70
    11
 71
     3
 72
    17
 73
    13
 74
     0
 42
0.0000000001
 43
0.0000000001
 40
0.0
 40
0.0
 40
0.0
 40
0.0
 40
1.0
 40
1.0
 40
1.0
 40
2.0
 40
2.0
 40
2.0
 40
3.0
 40
3.0
 40
3.0
 40
4.0
 40
4.0
 40
4.0
 40
4.0
 10
411.6017495715788
 20
-216.9891668836867
 30
0.0
 10
411.6017495715788
 20
-219.7504109151145
 30
0.0
 10
413.8403726178941
 20
-221.9890339614298
 30
0.0
 10
416.6016166493218
 20
-221.9890339614298
 30
0.0
 10
419.3632051902981
 20
-221.9890339614298
 30
0.0
 10
421.6018282366135
 20
-219.7504109151145
 30
0.0
 10
421.6018282366135
 20
-216.9891668836867
 30
0.0
 10
421.6018282366135
 20
-214.227922852259
 30
0.0
 10
419.3632051902981
 20
-211.9892998059437
 30
0.0
 10
416.6016166493218
 20
-211.9892998059437
 30
0.0
 10
413.8403726178941
 20
-211.9892998059437
 30
0.0
 10
411.6017495715788
 20
-214.227922852259
 30
0.0
 10
411.6017495715788
 20
-216.9891668836867
 30
0.0
  0
ENDBLK
  5
5E
330
5B
100
AcDbEntity
  8
0
100
AcDbBlockEnd
  0
BLOCK
  5
AE
330
AC
100
AcDbEntity
  8
0
100
AcDbBlockBegin
  2
block 3
 70
     0
 71
     0
 10
0.0
 20
0.0
 30
0.0
  3
block 3
  1

  0
INSERT
  5
B1
330
AC
100
AcDbEntity
  8
1200 outline
100
AcDbBlockReference
  2
block 4
 10
0.0
 20
0.0
 30
0.0
  0
POLYLINE
  5
BE
330
AC
100
AcDbEntity
  8
1200 outline
 62
   152
370
    25
100
AcDb2dPolyline
 66
     1
 10
0.0
 20
0.0
 30
0.0
  0
VERTEX
  5
BF
330
BE
100
AcDbEntity
  8
1200 outline
 62
   152
370
    25
100
AcDbVertex
100
AcDb2dVertex
 10
1278.454608512852
 20
-1090.804736055424
 30
0.0
  0
VERTEX
  5
C0
330
BE
100
AcDbEntity
  8
1200 outline
 62
   152
370
    25
100
AcDbVertex
100
AcDb2dVertex
 10
1268.655723424156
 20
-869.9052135412043
 30
0.0
  0
VERTEX
  5
C1
330
BE
100
AcDbEntity
  8
1200 outline
 62
   152
370
    25
100
AcDbVertex
100
AcDb2dVertex
 10
1268.660891067384
 20
-869.9052135412043
 30
0.0
  0
VERTEX
  5
C2
330
BE
100
AcDbEntity
  8
1200 outline
 62
   152
370
    25
100
AcDbVertex
100
AcDb2dVertex
 10
1278.456675570143
 20
-649.0863062613396
 30
0.0
  0
VERTEX
  5
C3
330
BE
100
AcDbEntity
  8
1200 outline
 62
   152
370
    25
100
AcDbVertex
100
AcDb2dVertex
 10
1278.454608512852
 20
-649.0966415477953
 30
0.0
  0
VERTEX
  5
C4
330
BE
100
AcDbEntity
  8
1200 outline
 62
   152
370
    25
100
AcDbVertex
100
AcDb2dVertex
 10
129.3094197267872
 20
-598.1891545813555
 30
0.0
  0
VERTEX
  5
C5
330
BE
100
AcDbEntity
  8
1200 outline
 62
   152
370
    25
100
AcDbVertex
100
AcDb2dVertex
 10
129.3094197267872
 20
-598.278038044875
 30
0.0
  0
VERTEX
  5
C6
330
BE
100
AcDbEntity
  8
1200 outline
 62
   152
370
    25
100
AcDbVertex
100
AcDb2dVertex
 10
114.6386528576251
 20
-870.2380097650795
 30
0.0
  0
VERTEX
  5
C7
330
BE
100
AcDbEntity
  8
1200 outline
 62
   152
370
    25
100
AcDbVertex
100
AcDb2dVertex
 10
129.3023572810425
 20
-1141.751497110396
 30
0.0
  0
VERTEX
  5
C8
330
BE
100
AcDbEntity
  8
1200 outline
 62
   152
370
    25
100
AcDbVertex
100
AcDb2dVertex
 10
129.309247472013
 20
-1141.751497110396
 30
0.0
  0
VERTEX
  5
C9
330
BE
100
AcDbEntity
  8
1200 outline
 62
   152
370
    25
100
AcDbVertex
100
AcDb2dVertex
 10
1278.447718321881
 20
-1090.826095647432
 30
0.0
  0
VERTEX
  5
CA
330
BE
100
AcDbEntity
  8
1200 outline
 62
   152
370
    25
100
AcDbVertex
100
AcDb2dVertex
 10
1278.454608512852
 20
-1090.804736055424
 30
0.0
  0
SEQEND
  5
CB
330
BE
100
AcDbEntity
  8
1200 outline
370
    25
  0
ENDBLK
  5
AF
330
AC
100
AcDbEntity
  8
0
100
AcDbBlockEnd
  0
BLOCK
  5
B2
330
B0
100
AcDbEntity
  8
0
100
AcDbBlockBegin
  2
block 4
 70
     0
 71
     0
 10
0.0
 20
0.0
 30
0.0
  3
block 4
  1

  0
SPLINE
  5
B4
330
B0
100
AcDbEntity
  8
1200 outline
 62
   152
370
    25
100
AcDbSpline
210
0.0
220
0.0
230
1.0
 70
    11
 71
     3
 72
    17
 73
    13
 74
     0
 42
0.0000000001
 43
0.0000000001
 40
0.0
 40
0.0
 40
0.0
 40
0.0
 40
1.0
 40
1.0
 40
1.0
 40
2.0
 40
2.0
 40
2.0
 40
3.0
 40
3.0
 40
3.0
 40
4.0
 40
4.0
 40
4.0
 40
4.0
 10
427.0381889123377
 20
-870.1277667095515
 30
0.0
 10
427.0381889123377
 20
-867.3668671876723
 30
0.0
 10
424.7995658660224
 20
-865.1282441413568
 30
0.0
 10
422.0379773250461
 20
-865.1282441413568
 30
0.0
 10
419.2763887840698
 20
-865.1282441413568
 30
0.0
 10
417.0377657377545
 20
-867.3668671876723
 30
0.0
 10
417.0377657377545
 20
-870.1277667095515
 30
0.0
 10
417.0377657377545
 20
-872.8893552505277
 30
0.0
 10
419.2763887840698
 20
-875.127978296843
 30
0.0
 10
422.0379773250461
 20
-875.127978296843
 30
0.0
 10
424.7995658660224
 20
-875.127978296843
 30
0.0
 10
427.0381889123377
 20
-872.8893552505277
 30
0.0
 10
427.0381889123377
 20
-870.1277667095515
 30
0.0
  0
SPLINE
  5
B5
330
B0
100
AcDbEntity
  8
1200 outline
 62
   152
370
    25
100
AcDbSpline
210
0.0
220
0.0
230
1.0
 70
    11
 71
     3
 72
    17
 73
    13
 74
     0
 42
0.0000000001
 43
0.0000000001
 40
0.0
 40
0.0
 40
0.0
 40
0.0
 40
1.0
 40
1.0
 40
1.0
 40
2.0
 40
2.0
 40
2.0
 40
3.0
 40
3.0
 40
3.0
 40
4.0
 40
4.0
 40
4.0
 40
4.0
 10
1027.038774699838
 20
-870.1284557286485
 30
0.0
 10
1027.038774699838
 20
-872.8893552505277
 30
0.0
 10
1024.799807143974
 20
-875.127978296843
 30
0.0
 10
1022.038218602997
 20
-875.127978296843
 30
0.0
 10
1019.27697457157
 20
-875.127978296843
 30
0.0
 10
1017.038007015706
 20
-872.8893552505277
 30
0.0
 10
1017.038007015706
 20
-870.1284557286485
 30
0.0
 10
1017.038007015706
 20
-867.3668671876723
 30
0.0
 10
1019.27697457157
 20
-865.1282441413568
 30
0.0
 10
1022.038218602997
 20
-865.1282441413568
 30
0.0
 10
1024.799807143974
 20
-865.1282441413568
 30
0.0
 10
1027.038774699838
 20
-867.3668671876723
 30
0.0
 10
1027.038774699838
 20
-870.1284557286485
 30
0.0
  0
SPLINE
  5
B6
330
B0
100
AcDbEntity
  8
1200 outline
 62
   152
370
    25
100
AcDbSpline
210
0.0
220
0.0
230
1.0
 70
    11
 71
     3
 72
    17
 73
    13
 74
     0
 42
0.0000000001
 43
0.0000000001
 40
0.0
 40
0.0
 40
0.0
 40
0.0
 40
1.0
 40
1.0
 40
1.0
 40
2.0
 40
2.0
 40
2.0
 40
3.0
 40
3.0
 40
3.0
 40
4.0
 40
4.0
 40
4.0
 40
4.0
 10
427.0381889123377
 20
-753.5340221640471
 30
0.0
 10
427.0381889123377
 20
-756.2956107050234
 30
0.0
 10
424.7995658660224
 20
-758.5342337513387
 30
0.0
 10
422.0383218345946
 20
-758.5342337513387
 30
0.0
 10
419.2767332936183
 20
-758.5342337513387
 30
0.0
 10
417.038110247303
 20
-756.2956107050234
 30
0.0
 10
417.038110247303
 20
-753.5340221640471
 30
0.0
 10
417.038110247303
 20
-750.7731226421679
 30
0.0
 10
419.2767332936183
 20
-748.5344995958525
 30
0.0
 10
422.0383218345946
 20
-748.5344995958525
 30
0.0
 10
424.7995658660224
 20
-748.5344995958525
 30
0.0
 10
427.0381889123377
 20
-750.7731226421679
 30
0.0
 10
427.0381889123377
 20
-753.5340221640471
 30
0.0
  0
SPLINE
  5
B7
330
B0
100
AcDbEntity
  8
1200 outline
 62
   152
370
    25
100
AcDbSpline
210
0.0
220
0.0
230
1.0
 70
    11
 71
     3
 72
    17
 73
    13
 74
     0
 42
0.0000000001
 43
0.0000000001
 40
0.0
 40
0.0
 40
0.0
 40
0.0
 40
1.0
 40
1.0
 40
1.0
 40
2.0
 40
2.0
 40
2.0
 40
3.0
 40
3.0
 40
3.0
 40
4.0
 40
4.0
 40
4.0
 40
4.0
 10
427.0381889123377
 20
-986.7222002741528
 30
0.0
 10
427.0381889123377
 20
-983.9606117331765
 30
0.0
 10
424.7995658660224
 20
-981.7219886868612
 30
0.0
 10
422.0383218345946
 20
-981.7219886868612
 30
0.0
 10
419.2767332936183
 20
-981.7219886868612
 30
0.0
 10
417.038110247303
 20
-983.9606117331765
 30
0.0
 10
417.038110247303
 20
-986.7222002741528
 30
0.0
 10
417.038110247303
 20
-989.4837888151291
 30
0.0
 10
419.2767332936183
 20
-991.7224118614445
 30
0.0
 10
422.0383218345946
 20
-991.7224118614445
 30
0.0
 10
424.7995658660224
 20
-991.7224118614445
 30
0.0
 10
427.0381889123377
 20
-989.4837888151291
 30
0.0
 10
427.0381889123377
 20
-986.7222002741528
 30
0.0
  0
SPLINE
  5
B8
330
B0
100
AcDbEntity
  8
1200 outline
 62
   152
370
    25
100
AcDbSpline
210
0.0
220
0.0
230
1.0
 70
    11
 71
     3
 72
    17
 73
    13
 74
     0
 42
0.0000000001
 43
0.0000000001
 40
0.0
 40
0.0
 40
0.0
 40
0.0
 40
1.0
 40
1.0
 40
1.0
 40
2.0
 40
2.0
 40
2.0
 40
3.0
 40
3.0
 40
3.0
 40
4.0
 40
4.0
 40
4.0
 40
4.0
 10
427.0381889123377
 20
-645.576442980967
 30
0.0
 10
427.0381889123377
 20
-648.3380315219433
 30
0.0
 10
424.7995658660224
 20
-650.5766545682586
 30
0.0
 10
422.0379773250461
 20
-650.5766545682586
 30
0.0
 10
419.2767332936183
 20
-650.5766545682586
 30
0.0
 10
417.038110247303
 20
-648.3380315219433
 30
0.0
 10
417.038110247303
 20
-645.576442980967
 30
0.0
 10
417.038110247303
 20
-642.8148544399908
 30
0.0
 10
419.2767332936183
 20
-640.5762313936755
 30
0.0
 10
422.0379773250461
 20
-640.5762313936755
 30
0.0
 10
424.7995658660224
 20
-640.5762313936755
 30
0.0
 10
427.0381889123377
 20
-642.8148544399908
 30
0.0
 10
427.0381889123377
 20
-645.576442980967
 30
0.0
  0
SPLINE
  5
B9
330
B0
100
AcDbEntity
  8
1200 outline
 62
   152
370
    25
100
AcDbSpline
210
0.0
220
0.0
230
1.0
 70
    11
 71
     3
 72
    17
 73
    13
 74
     0
 42
0.0000000001
 43
0.0000000001
 40
0.0
 40
0.0
 40
0.0
 40
0.0
 40
1.0
 40
1.0
 40
1.0
 40
2.0
 40
2.0
 40
2.0
 40
3.0
 40
3.0
 40
3.0
 40
4.0
 40
4.0
 40
4.0
 40
4.0
 10
427.0381889123377
 20
-1094.679779457233
 30
0.0
 10
427.0381889123377
 20
-1091.918879935354
 30
0.0
 10
424.7995658660224
 20
-1089.680256889038
 30
0.0
 10
422.0379773250461
 20
-1089.680256889038
 30
0.0
 10
419.2767332936183
 20
-1089.680256889038
 30
0.0
 10
417.038110247303
 20
-1091.918879935354
 30
0.0
 10
417.038110247303
 20
-1094.679779457233
 30
0.0
 10
417.038110247303
 20
-1097.441367998209
 30
0.0
 10
419.2767332936183
 20
-1099.679991044525
 30
0.0
 10
422.0379773250461
 20
-1099.679991044525
 30
0.0
 10
424.7995658660224
 20
-1099.679991044525
 30
0.0
 10
427.0381889123377
 20
-1097.441367998209
 30
0.0
 10
427.0381889123377
 20
-1094.679779457233
 30
0.0
  0
SPLINE
  5
BA
330
B0
100
AcDbEntity
  8
1200 outline
 62
   152
370
    25
100
AcDbSpline
210
0.0
220
0.0
230
1.0
 70
    11
 71
     3
 72
    17
 73
    13
 74
     0
 42
0.0000000001
 43
0.0000000001
 40
0.0
 40
0.0
 40
0.0
 40
0.0
 40
1.0
 40
1.0
 40
1.0
 40
2.0
 40
2.0
 40
2.0
 40
3.0
 40
3.0
 40
3.0
 40
4.0
 40
4.0
 40
4.0
 40
4.0
 10
1027.038085680741
 20
-669.6328557353696
 30
0.0
 10
1027.038085680741
 20
-672.3937552572488
 30
0.0
 10
1024.799462634425
 20
-674.6323783035641
 30
0.0
 10
1022.037874093449
 20
-674.6323783035641
 30
0.0
 10
1019.27697457157
 20
-674.6323783035641
 30
0.0
 10
1017.038007015706
 20
-672.3937552572488
 30
0.0
 10
1017.038007015706
 20
-669.6328557353696
 30
0.0
 10
1017.038007015706
 20
-666.8712671943933
 30
0.0
 10
1019.27697457157
 20
-664.6326441480779
 30
0.0
 10
1022.037874093449
 20
-664.6326441480779
 30
0.0
 10
1024.799462634425
 20
-664.6326441480779
 30
0.0
 10
1027.038085680741
 20
-666.8712671943933
 30
0.0
 10
1027.038085680741
 20
-669.6328557353696
 30
0.0
  0
SPLINE
  5
BB
330
B0
100
AcDbEntity
  8
1200 outline
 62
   152
370
    25
100
AcDbSpline
210
0.0
220
0.0
230
1.0
 70
    11
 71
     3
 72
    17
 73
    13
 74
     0
 42
0.0000000001
 43
0.0000000001
 40
0.0
 40
0.0
 40
0.0
 40
0.0
 40
1.0
 40
1.0
 40
1.0
 40
2.0
 40
2.0
 40
2.0
 40
3.0
 40
3.0
 40
3.0
 40
4.0
 40
4.0
 40
4.0
 40
4.0
 10
1027.038085680741
 20
-1070.624055721927
 30
0.0
 10
1027.038085680741
 20
-1067.862467180951
 30
0.0
 10
1024.799462634425
 20
-1065.623844134636
 30
0.0
 10
1022.037874093449
 20
-1065.623844134636
 30
0.0
 10
1019.27697457157
 20
-1065.623844134636
 30
0.0
 10
1017.038007015706
 20
-1067.862467180951
 30
0.0
 10
1017.038007015706
 20
-1070.624055721927
 30
0.0
 10
1017.038007015706
 20
-1073.385644262904
 30
0.0
 10
1019.27697457157
 20
-1075.624267309219
 30
0.0
 10
1022.037874093449
 20
-1075.624267309219
 30
0.0
 10
1024.799462634425
 20
-1075.624267309219
 30
0.0
 10
1027.038085680741
 20
-1073.385644262904
 30
0.0
 10
1027.038085680741
 20
-1070.624055721927
 30
0.0
  0
SPLINE
  5
BC
330
B0
100
AcDbEntity
  8
1200 outline
 62
   152
370
    25
100
AcDbSpline
210
0.0
220
0.0
230
1.0
 70
    11
 71
     3
 72
    17
 73
    13
 74
     0
 42
0.0000000001
 43
0.0000000001
 40
0.0
 40
0.0
 40
0.0
 40
0.0
 40
1.0
 40
1.0
 40
1.0
 40
2.0
 40
2.0
 40
2.0
 40
3.0
 40
3.0
 40
3.0
 40
4.0
 40
4.0
 40
4.0
 40
4.0
 10
1027.038085680741
 20
-765.4306258937119
 30
0.0
 10
1027.038085680741
 20
-768.1922144346881
 30
0.0
 10
1024.799462634425
 20
-770.4308374810034
 30
0.0
 10
1022.038218602997
 20
-770.4308374810034
 30
0.0
 10
1019.27697457157
 20
-770.4308374810034
 30
0.0
 10
1017.038007015706
 20
-768.1922144346881
 30
0.0
 10
1017.038007015706
 20
-765.4306258937119
 30
0.0
 10
1017.038007015706
 20
-762.6697263718326
 30
0.0
 10
1019.27697457157
 20
-760.4311033255173
 30
0.0
 10
1022.038218602997
 20
-760.4311033255173
 30
0.0
 10
1024.799462634425
 20
-760.4311033255173
 30
0.0
 10
1027.038085680741
 20
-762.6697263718326
 30
0.0
 10
1027.038085680741
 20
-765.4306258937119
 30
0.0
  0
SPLINE
  5
BD
330
B0
100
AcDbEntity
  8
1200 outline
 62
   152
370
    25
100
AcDbSpline
210
0.0
220
0.0
230
1.0
 70
    11
 71
     3
 72
    17
 73
    13
 74
     0
 42
0.0000000001
 43
0.0000000001
 40
0.0
 40
0.0
 40
0.0
 40
0.0
 40
1.0
 40
1.0
 40
1.0
 40
2.0
 40
2.0
 40
2.0
 40
3.0
 40
3.0
 40
3.0
 40
4.0
 40
4.0
 40
4.0
 40
4.0
 10
1027.038085680741
 20
-974.824907525391
 30
0.0
 10
1027.038085680741
 20
-972.0640080035118
 30
0.0
 10
1024.799462634425
 20
-969.8253849571964
 30
0.0
 10
1022.038218602997
 20
-969.8253849571964
 30
0.0
 10
1019.27697457157
 20
-969.8253849571964
 30
0.0
 10
1017.038007015706
 20
-972.0640080035118
 30
0.0
 10
1017.038007015706
 20
-974.824907525391
 30
0.0
 10
1017.038007015706
 20
-977.5864960663673
 30
0.0
 10
1019.27697457157
 20
-979.8251191126826
 30
0.0
 10
1022.038218602997
 20
-979.8251191126826
 30
0.0
 10
1024.799462634425
 20
-979.8251191126826
 30
0.0
 10
1027.038085680741
 20
-977.5864960663673
 30
0.0
 10
1027.038085680741
 20
-974.824907525391
 30
0.0
  0
ENDBLK
  5
B3
330
B0
100
AcDbEntity
  8
0
100
AcDbBlockEnd
  0
BLOCK
  5
CF
330
CD
100
AcDbEntity
  8
0
100
AcDbBlockBegin
  2
block 5
 70
     0
 71
     0
 10
0.0
 20
0.0
 30
0.0
  3
block 5
  1

  0
ENDBLK
  5
D0
330
CD
100
AcDbEntity
  8
0
100
AcDbBlockEnd
  0
ENDSEC
  0
SECTION
  2
ENTITIES
  0
POLYLINE
  5
3C
330
1F
100
AcDbEntity
  8
full strips
 62
   250
370
    25
100
AcDb2dPolyline
 66
     1
 10
0.0
 20
0.0
 30
0.0
  0
VERTEX
  5
3D
330
3C
100
AcDbEntity
  8
full strips
 62
   250
370
    25
100
AcDbVertex
100
AcDb2dVertex
 10
998.1826549153849
 20
-49.82951658910513
 30
0.0
  0
VERTEX
  5
3E
330
3C
100
AcDbEntity
  8
full strips
 62
   250
370
    25
100
AcDbVertex
100
AcDb2dVertex
 10
1023.182679323197
 20
-49.82951658910513
 30
0.0
  0
VERTEX
  5
3F
330
3C
100
AcDbEntity
  8
full strips
 62
   250
370
    25
100
AcDbVertex
100
AcDb2dVertex
 10
1023.182679323197
 20
-332.2989243418385
 30
0.0
  0
VERTEX
  5
40
330
3C
100
AcDbEntity
  8
full strips
 62
   250
370
    25
100
AcDbVertex
100
AcDb2dVertex
 10
998.1826549153849
 20
-332.2989243418385
 30
0.0
  0
VERTEX
  5
41
330
3C
100
AcDbEntity
  8
full strips
 62
   250
370
    25
100
AcDbVertex
100
AcDb2dVertex
 10
998.1826549153849
 20
-49.82951658910513
 30
0.0
  0
SEQEND
  5
42
330
3C
100
AcDbEntity
  8
full strips
370
    25
  0
POLYLINE
  5
43
330
1F
100
AcDbEntity
  8
full strips
 62
   250
370
    25
100
AcDb2dPolyline
 66
     1
 10
0.0
 20
0.0
 30
0.0
  0
VERTEX
  5
44
330
43
100
AcDbEntity
  8
full strips
 62
   250
370
    25
100
AcDbVertex
100
AcDb2dVertex
 10
397.5381807816918
 20
-78.06896428169804
 30
0.0
  0
VERTEX
  5
45
330
43
100
AcDbEntity
  8
full strips
 62
   250
370
    25
100
AcDbVertex
100
AcDb2dVertex
 10
422.5378606799558
 20
-78.06896428169804
 30
0.0
  0
VERTEX
  5
46
330
43
100
AcDbEntity
  8
full strips
 62
   250
370
    25
100
AcDbVertex
100
AcDb2dVertex
 10
422.5378606799558
 20
-262.6475341140256
 30
0.0
  0
VERTEX
  5
47
330
43
100
AcDbEntity
  8
full strips
 62
   250
370
    25
100
AcDbVertex
100
AcDb2dVertex
 10
397.5381807816918
 20
-262.6475341140256
 30
0.0
  0
VERTEX
  5
48
330
43
100
AcDbEntity
  8
full strips
 62
   250
370
    25
100
AcDbVertex
100
AcDb2dVertex
 10
397.5381807816918
 20
-78.06896428169804
 30
0.0
  0
SEQEND
  5
49
330
43
100
AcDbEntity
  8
full strips
370
    25
  0
POLYLINE
  5
4A
330
1F
100
AcDbEntity
  8
full strips
 62
   250
370
    25
100
AcDb2dPolyline
 66
     1
 10
0.0
 20
0.0
 30
0.0
  0
VERTEX
  5
4B
330
4A
100
AcDbEntity
  8
full strips
 62
   250
370
    25
100
AcDbVertex
100
AcDb2dVertex
 10
998.1826549153849
 20
-380.6980372854679
 30
0.0
  0
VERTEX
  5
4C
330
4A
100
AcDbEntity
  8
full strips
 62
   250
370
    25
100
AcDbVertex
100
AcDb2dVertex
 10
1023.182679323197
 20
-380.6980372854679
 30
0.0
  0
VERTEX
  5
4D
330
4A
100
AcDbEntity
  8
full strips
 62
   250
370
    25
100
AcDbVertex
100
AcDb2dVertex
 10
1023.182679323197
 20
-593.5126097149031
 30
0.0
  0
VERTEX
  5
4E
330
4A
100
AcDbEntity
  8
full strips
 62
   250
370
    25
100
AcDbVertex
100
AcDb2dVertex
 10
998.1826549153849
 20
-593.5126097149031
 30
0.0
  0
VERTEX
  5
4F
330
4A
100
AcDbEntity
  8
full strips
 62
   250
370
    25
100
AcDbVertex
100
AcDb2dVertex
 10
998.1826549153849
 20
-380.6980372854679
 30
0.0
  0
SEQEND
  5
50
330
4A
100
AcDbEntity
  8
full strips
370
    25
  0
POLYLINE
  5
51
330
1F
100
AcDbEntity
  8
full strips
 62
   250
370
    25
100
AcDb2dPolyline
 66
     1
 10
0.0
 20
0.0
 30
0.0
  0
VERTEX
  5
52
330
51
100
AcDbEntity
  8
full strips
 62
   250
370
    25
100
AcDbVertex
100
AcDb2dVertex
 10
397.5381807816918
 20
-299.277167351396
 30
0.0
  0
VERTEX
  5
53
330
51
100
AcDbEntity
  8
full strips
 62
   250
370
    25
100
AcDbVertex
100
AcDb2dVertex
 10
422.5378606799558
 20
-299.277167351396
 30
0.0
  0
VERTEX
  5
54
330
51
100
AcDbEntity
  8
full strips
 62
   250
370
    25
100
AcDbVertex
100
AcDb2dVertex
 10
422.5378606799558
 20
-565.394429383391
 30
0.0
  0
VERTEX
  5
55
330
51
100
AcDbEntity
  8
full strips
 62
   250
370
    25
100
AcDbVertex
100
AcDb2dVertex
 10
397.5381807816918
 20
-565.394429383391
 30
0.0
  0
VERTEX
  5
56
330
51
100
AcDbEntity
  8
full strips
 62
   250
370
    25
100
AcDbVertex
100
AcDb2dVertex
 10
397.5381807816918
 20
-299.277167351396
 30
0.0
  0
SEQEND
  5
57
330
51
100
AcDbEntity
  8
full strips
370
    25
  0
INSERT
  5
5C
330
1F
100
AcDbEntity
  8
drill holes 1200
100
AcDbBlockReference
  2
block 2
 10
0.0
 20
0.0
 30
0.0
  0
POLYLINE
  5
6B
330
1F
100
AcDbEntity
  8
1200 outline
 62
   250
370
    25
100
AcDb2dPolyline
 66
     1
 10
0.0
 20
0.0
 30
0.0
  0
VERTEX
  5
6C
330
6B
100
AcDbEntity
  8
1200 outline
 62
   250
370
    25
100
AcDbVertex
100
AcDb2dVertex
 10
124.3469319350591
 20
-321.5758923892241
 30
0.0
  0
VERTEX
  5
6D
330
6B
100
AcDbEntity
  8
1200 outline
 62
   250
370
    25
100
AcDbVertex
100
AcDb2dVertex
 10
114.6693142074438
 20
-540.08693020352
 30
0.0
  0
VERTEX
  5
6E
330
6B
100
AcDbEntity
  8
1200 outline
 62
   250
370
    25
100
AcDbVertex
100
AcDb2dVertex
 10
1309.473214733396
 20
-593.0084199906369
 30
0.0
  0
VERTEX
  5
6F
330
6B
100
AcDbEntity
  8
1200 outline
 62
   250
370
    25
100
AcDbVertex
100
AcDb2dVertex
 10
1324.001182394694
 20
-321.5762368987726
 30
0.0
  0
VERTEX
  5
70
330
6B
100
AcDbEntity
  8
1200 outline
 62
   250
370
    25
100
AcDbVertex
100
AcDb2dVertex
 10
1309.469080618813
 20
-50.06257729868228
 30
0.0
  0
VERTEX
  5
71
330
6B
100
AcDbEntity
  8
1200 outline
 62
   250
370
    25
100
AcDbVertex
100
AcDb2dVertex
 10
114.6386528576251
 20
-103.065371339251
 30
0.0
  0
VERTEX
  5
72
330
6B
100
AcDbEntity
  8
1200 outline
 62
   250
370
    25
100
AcDbVertex
100
AcDb2dVertex
 10
124.3469319350591
 20
-321.5758923892241
 30
0.0
  0
SEQEND
  5
73
330
6B
100
AcDbEntity
  8
1200 outline
370
    25
  0
POLYLINE
  5
74
330
1F
100
AcDbEntity
  8
1200 outline
 62
   250
370
    25
100
AcDb2dPolyline
 66
     1
 10
0.0
 20
0.0
 30
0.0
  0
VERTEX
  5
75
330
74
100
AcDbEntity
  8
1200 outline
 62
   250
370
    25
100
AcDbVertex
100
AcDb2dVertex
 10
397.5380085269176
 20
-96.54346107612456
 30
0.0
  0
VERTEX
  5
76
330
74
100
AcDbEntity
  8
1200 outline
 62
   250
370
    25
100
AcDbVertex
100
AcDb2dVertex
 10
397.5380085269176
 20
-71.54343666831205
 30
0.0
  0
VERTEX
  5
77
330
74
100
AcDbEntity
  8
1200 outline
 62
   250
370
    25
100
AcDbVertex
100
AcDb2dVertex
 10
422.5380329347301
 20
-71.54343666831205
 30
0.0
  0
VERTEX
  5
78
330
74
100
AcDbEntity
  8
1200 outline
 62
   250
370
    25
100
AcDbVertex
100
AcDb2dVertex
 10
422.5380329347301
 20
-95.33664412764153
 30
0.0
  0
VERTEX
  5
79
330
74
100
AcDbEntity
  8
1200 outline
 62
   250
370
    25
100
AcDbVertex
100
AcDb2dVertex
 10
397.5380085269176
 20
-96.54346107612456
 30
0.0
  0
SEQEND
  5
7A
330
74
100
AcDbEntity
  8
1200 outline
370
    25
  0
POLYLINE
  5
7B
330
1F
100
AcDbEntity
  8
1200 outline
 62
   250
370
    25
100
AcDb2dPolyline
 66
     1
 10
0.0
 20
0.0
 30
0.0
  0
VERTEX
  5
7C
330
7B
100
AcDbEntity
  8
1200 outline
 62
   250
370
    25
100
AcDbVertex
100
AcDb2dVertex
 10
998.1826549153849
 20
-69.85516762576538
 30
0.0
  0
VERTEX
  5
7D
330
7B
100
AcDbEntity
  8
1200 outline
 62
   250
370
    25
100
AcDbVertex
100
AcDb2dVertex
 10
998.1826549153849
 20
-44.85514321795289
 30
0.0
  0
VERTEX
  5
7E
330
7B
100
AcDbEntity
  8
1200 outline
 62
   250
370
    25
100
AcDbVertex
100
AcDb2dVertex
 10
1023.182679323197
 20
-44.85514321795289
 30
0.0
  0
VERTEX
  5
7F
330
7B
100
AcDbEntity
  8
1200 outline
 62
   250
370
    25
100
AcDbVertex
100
AcDb2dVertex
 10
1023.182679323197
 20
-68.64835067728237
 30
0.0
  0
VERTEX
  5
80
330
7B
100
AcDbEntity
  8
1200 outline
 62
   250
370
    25
100
AcDbVertex
100
AcDb2dVertex
 10
998.1826549153849
 20
-69.85516762576538
 30
0.0
  0
SEQEND
  5
81
330
7B
100
AcDbEntity
  8
1200 outline
370
    25
  0
POLYLINE
  5
82
330
1F
100
AcDbEntity
  8
1200 outline
 62
   250
370
    25
100
AcDb2dPolyline
 66
     1
 10
0.0
 20
0.0
 30
0.0
  0
VERTEX
  5
83
330
82
100
AcDbEntity
  8
1200 outline
 62
   250
370
    25
100
AcDbVertex
100
AcDb2dVertex
 10
397.5381807816918
 20
-546.6103907596148
 30
0.0
  0
VERTEX
  5
84
330
82
100
AcDbEntity
  8
1200 outline
 62
   250
370
    25
100
AcDbVertex
100
AcDb2dVertex
 10
397.5381807816918
 20
-571.6104151674273
 30
0.0
  0
VERTEX
  5
85
330
82
100
AcDbEntity
  8
1200 outline
 62
   250
370
    25
100
AcDbVertex
100
AcDb2dVertex
 10
422.5382051895044
 20
-571.6104151674273
 30
0.0
  0
VERTEX
  5
86
330
82
100
AcDbEntity
  8
1200 outline
 62
   250
370
    25
100
AcDbVertex
100
AcDb2dVertex
 10
422.5382051895044
 20
-547.8172077080978
 30
0.0
  0
VERTEX
  5
87
330
82
100
AcDbEntity
  8
1200 outline
 62
   250
370
    25
100
AcDbVertex
100
AcDb2dVertex
 10
397.5381807816918
 20
-546.6103907596148
 30
0.0
  0
SEQEND
  5
88
330
82
100
AcDbEntity
  8
1200 outline
370
    25
  0
POLYLINE
  5
89
330
1F
100
AcDbEntity
  8
1200 outline
 62
   250
370
    25
100
AcDb2dPolyline
 66
     1
 10
0.0
 20
0.0
 30
0.0
  0
VERTEX
  5
8A
330
89
100
AcDbEntity
  8
1200 outline
 62
   250
370
    25
100
AcDbVertex
100
AcDb2dVertex
 10
998.1828271701592
 20
-573.298684209974
 30
0.0
  0
VERTEX
  5
8B
330
89
100
AcDbEntity
  8
1200 outline
 62
   250
370
    25
100
AcDbVertex
100
AcDb2dVertex
 10
998.1828271701592
 20
-598.2987086177865
 30
0.0
  0
VERTEX
  5
8C
330
89
100
AcDbEntity
  8
1200 outline
 62
   250
370
    25
100
AcDbVertex
100
AcDb2dVertex
 10
1023.182851577972
 20
-598.2987086177865
 30
0.0
  0
VERTEX
  5
8D
330
89
100
AcDbEntity
  8
1200 outline
 62
   250
370
    25
100
AcDbVertex
100
AcDb2dVertex
 10
1023.182851577972
 20
-574.505501158457
 30
0.0
  0
VERTEX
  5
8E
330
89
100
AcDbEntity
  8
1200 outline
 62
   250
370
    25
100
AcDbVertex
100
AcDb2dVertex
 10
998.1828271701592
 20
-573.298684209974
 30
0.0
  0
SEQEND
  5
8F
330
89
100
AcDbEntity
  8
1200 outline
370
    25
  0
POLYLINE
  5
90
330
1F
100
AcDbEntity
  8
1200 outline
 62
   250
370
    25
100
AcDb2dPolyline
 66
     1
 10
0.0
 20
0.0
 30
0.0
  0
VERTEX
  5
91
330
90
100
AcDbEntity
  8
1200 outline
 62
   250
370
    25
100
AcDbVertex
100
AcDb2dVertex
 10
1041.21775418848
 20
-1095.267857256565
 30
0.0
  0
VERTEX
  5
92
330
90
100
AcDbEntity
  8
1200 outline
 62
   250
370
    25
100
AcDbVertex
100
AcDb2dVertex
 10
1041.21775418848
 20
-1120.267881664377
 30
0.0
  0
VERTEX
  5
93
330
90
100
AcDbEntity
  8
1200 outline
 62
   250
370
    25
100
AcDbVertex
100
AcDb2dVertex
 10
1016.217729780668
 20
-1120.267881664377
 30
0.0
  0
VERTEX
  5
94
330
90
100
AcDbEntity
  8
1200 outline
 62
   250
370
    25
100
AcDbVertex
100
AcDb2dVertex
 10
1016.217729780668
 20
-1096.474674205048
 30
0.0
  0
VERTEX
  5
95
330
90
100
AcDbEntity
  8
1200 outline
 62
   250
370
    25
100
AcDbVertex
100
AcDb2dVertex
 10
1041.21775418848
 20
-1095.267857256565
 30
0.0
  0
SEQEND
  5
96
330
90
100
AcDbEntity
  8
1200 outline
370
    25
  0
POLYLINE
  5
97
330
1F
100
AcDbEntity
  8
1200 outline
 62
   250
370
    25
100
AcDb2dPolyline
 66
     1
 10
0.0
 20
0.0
 30
0.0
  0
VERTEX
  5
98
330
97
100
AcDbEntity
  8
1200 outline
 62
   250
370
    25
100
AcDbVertex
100
AcDb2dVertex
 10
440.573107800013
 20
-1121.956322961699
 30
0.0
  0
VERTEX
  5
99
330
97
100
AcDbEntity
  8
1200 outline
 62
   250
370
    25
100
AcDbVertex
100
AcDb2dVertex
 10
440.573107800013
 20
-1146.956002859962
 30
0.0
  0
VERTEX
  5
9A
330
97
100
AcDbEntity
  8
1200 outline
 62
   250
370
    25
100
AcDbVertex
100
AcDb2dVertex
 10
415.5730833922005
 20
-1146.956002859962
 30
0.0
  0
VERTEX
  5
9B
330
97
100
AcDbEntity
  8
1200 outline
 62
   250
370
    25
100
AcDbVertex
100
AcDb2dVertex
 10
415.5730833922005
 20
-1123.162795400633
 30
0.0
  0
VERTEX
  5
9C
330
97
100
AcDbEntity
  8
1200 outline
 62
   250
370
    25
100
AcDbVertex
100
AcDb2dVertex
 10
440.573107800013
 20
-1121.956322961699
 30
0.0
  0
SEQEND
  5
9D
330
97
100
AcDbEntity
  8
1200 outline
370
    25
  0
POLYLINE
  5
9E
330
1F
100
AcDbEntity
  8
1200 outline
 62
   250
370
    25
100
AcDb2dPolyline
 66
     1
 10
0.0
 20
0.0
 30
0.0
  0
VERTEX
  5
9F
330
9E
100
AcDbEntity
  8
1200 outline
 62
   250
370
    25
100
AcDbVertex
100
AcDb2dVertex
 10
1041.21775418848
 20
-645.2009275730748
 30
0.0
  0
VERTEX
  5
A0
330
9E
100
AcDbEntity
  8
1200 outline
 62
   250
370
    25
100
AcDbVertex
100
AcDb2dVertex
 10
1041.21775418848
 20
-620.2009031652623
 30
0.0
  0
VERTEX
  5
A1
330
9E
100
AcDbEntity
  8
1200 outline
 62
   250
370
    25
100
AcDbVertex
100
AcDb2dVertex
 10
1016.217729780668
 20
-620.2009031652623
 30
0.0
  0
VERTEX
  5
A2
330
9E
100
AcDbEntity
  8
1200 outline
 62
   250
370
    25
100
AcDbVertex
100
AcDb2dVertex
 10
1016.217729780668
 20
-643.9941106245918
 30
0.0
  0
VERTEX
  5
A3
330
9E
100
AcDbEntity
  8
1200 outline
 62
   250
370
    25
100
AcDbVertex
100
AcDb2dVertex
 10
1041.21775418848
 20
-645.2009275730748
 30
0.0
  0
SEQEND
  5
A4
330
9E
100
AcDbEntity
  8
1200 outline
370
    25
  0
POLYLINE
  5
A5
330
1F
100
AcDbEntity
  8
1200 outline
 62
   250
370
    25
100
AcDb2dPolyline
 66
     1
 10
0.0
 20
0.0
 30
0.0
  0
VERTEX
  5
A6
330
A5
100
AcDbEntity
  8
1200 outline
 62
   250
370
    25
100
AcDbVertex
100
AcDb2dVertex
 10
440.5729355452387
 20
-618.5128063774899
 30
0.0
  0
VERTEX
  5
A7
330
A5
100
AcDbEntity
  8
1200 outline
 62
   250
370
    25
100
AcDbVertex
100
AcDb2dVertex
 10
440.5729355452387
 20
-593.5124374601288
 30
0.0
  0
VERTEX
  5
A8
330
A5
100
AcDbEntity
  8
1200 outline
 62
   250
370
    25
100
AcDbVertex
100
AcDb2dVertex
 10
415.5729111374262
 20
-593.5124374601288
 30
0.0
  0
VERTEX
  5
A9
330
A5
100
AcDbEntity
  8
1200 outline
 62
   250
370
    25
100
AcDbVertex
100
AcDb2dVertex
 10
415.5729111374262
 20
-617.3056449194584
 30
0.0
  0
VERTEX
  5
AA
330
A5
100
AcDbEntity
  8
1200 outline
 62
   250
370
    25
100
AcDbVertex
100
AcDb2dVertex
 10
440.5729355452387
 20
-618.5128063774899
 30
0.0
  0
SEQEND
  5
AB
330
A5
100
AcDbEntity
  8
1200 outline
370
    25
  0
INSERT
  5
AD
330
1F
100
AcDbEntity
  8
1200 outline
100
AcDbBlockReference
  2
block 3
 10
0.0
 20
0.0
 30
0.0
  0
INSERT
  5
CE
330
1F
100
AcDbEntity
  8
1800 outline
100
AcDbBlockReference
  2
block 5
 10
0.0
 20
0.0
 30
0.0
  0
ENDSEC
  0
SECTION
  2
OBJECTS
  0
DICTIONARY
  5
C
330
0
100
AcDbDictionary
281
     1
  3
ACAD_GROUP
350
D
  3
ACAD_LAYOUT
350
1A
  3
ACAD_MLINESTYLE
350
17
  3
ACAD_PLOTSETTINGS
350
19
  3
ACAD_PLOTSTYLENAME
350
E
  3
ACAD_TABLESTYLE
350
D1
  3
ACAD_VISUALSTYLE
350
2A
  0
DICTIONARY
  5
D
102
{ACAD_REACTORS
330
C
102
}
330
C
100
AcDbDictionary
281
     1
  0
DICTIONARY
  5
1A
102
{ACAD_REACTORS
330
C
102
}
330
C
100
AcDbDictionary
281
     1
  3
Layout1
350
1E
  3
Layout2
350
26
  3
Model
350
22
  0
DICTIONARY
  5
17
102
{ACAD_REACTORS
330
C
102
}
330
C
100
AcDbDictionary
281
     1
  3
Standard
350
18
  0
DICTIONARY
  5
19
102
{ACAD_REACTORS
330
C
102
}
330
C
100
AcDbDictionary
281
     1
  0
ACDBDICTIONARYWDFLT
  5
E
102
{ACAD_REACTORS
330
C
102
}
330
C
100
AcDbDictionary
281
     1
  3
Normal
350
F
100
AcDbDictionaryWithDefault
340
F
  0
DICTIONARY
  5
D1
102
{ACAD_REACTORS
330
C
102
}
330
C
100
AcDbDictionary
281
     1
  0
DICTIONARY
  5
2A
102
{ACAD_REACTORS
330
C
102
}
330
C
100
AcDbDictionary
281
     1
  3
2dWireframe
350
2F
  3
3D Hidden
350
31
  3
3dWireframe
350
30
  3
Basic
350
32
  3
Brighten
350
36
  3
ColorChange
350
3A
  3
Conceptual
350
34
  3
Dim
350
35
  3
Facepattern
350
39
  3
Flat
350
2B
  3
FlatWithEdges
350
2C
  3
Gouraud
350
2D
  3
GouraudWithEdges
350
2E
  3
Linepattern
350
38
  3
Realistic
350
33
  3
Thicken
350
37
  0
LAYOUT
  5
1E
102
{ACAD_REACTORS
330
1A
102
}
330
1A
100
AcDbPlotSettings
  1

  2
none_device
  4

  6

 40
0.0
 41
0.0
 42
0.0
 43
0.0
 44
0.0
 45
0.0
 46
0.0
 47
0.0
 48
0.0
 49
0.0
140
0.0
141
0.0
142
1.0
143
1.0
 70
   688
 72
     0
 73
     0
 74
     5
  7

 75
    16
 76
     0
 77
     2
 78
   300
147
1.0
148
0.0
149
0.0
100
AcDbLayout
  1
Layout1
 70
     1
 71
     1
 10
0.0
 20
0.0
 11
12.0
 21
9.0
 12
0.0
 22
0.0
 32
0.0
 14
1.000000000000000E+20
 24
1.000000000000000E+20
 34
1.000000000000000E+20
 15
-1.000000000000000E+20
 25
-1.000000000000000E+20
 35
-1.000000000000000E+20
146
0.0
 13
0.0
 23
0.0
 33
0.0
 16
1.0
 26
0.0
 36
0.0
 17
0.0
 27
1.0
 37
0.0
 76
     0
330
1B
  0
LAYOUT
  5
26
102
{ACAD_REACTORS
330
1A
102
}
330
1A
100
AcDbPlotSettings
  1

  2
none_device
  4

  6

 40
0.0
 41
0.0
 42
0.0
 43
0.0
 44
0.0
 45
0.0
 46
0.0
 47
0.0
 48
0.0
 49
0.0
140
0.0
141
0.0
142
1.0
143
1.0
 70
   688
 72
     0
 73
     0
 74
     5
  7

 75
    16
 76
     0
 77
     2
 78
   300
147
1.0
148
0.0
149
0.0
100
AcDbLayout
  1
Layout2
 70
     1
 71
     2
 10
0.0
 20
0.0
 11
0.0
 21
0.0
 12
0.0
 22
0.0
 32
0.0
 14
0.0
 24
0.0
 34
0.0
 15
0.0
 25
0.0
 35
0.0
146
0.0
 13
0.0
 23
0.0
 33
0.0
 16
1.0
 26
0.0
 36
0.0
 17
0.0
 27
1.0
 37
0.0
 76
     0
330
23
  0
LAYOUT
  5
22
102
{ACAD_REACTORS
330
1A
102
}
330
1A
100
AcDbPlotSettings
  1

  2
none_device
  4

  6

 40
0.0
 41
0.0
 42
0.0
 43
0.0
 44
0.0
 45
0.0
 46
0.0
 47
0.0
 48
0.0
 49
0.0
140
0.0
141
0.0
142
1.0
143
1.0
 70
  1712
 72
     0
 73
     0
 74
     0
  7

 75
     0
 76
     0
 77
     2
 78
   300
147
1.0
148
0.0
149
0.0
100
AcDbLayout
  1
Model
 70
     1
 71
     0
 10
0.0
 20
0.0
 11
12.0
 21
9.0
 12
0.0
 22
0.0
 32
0.0
 14
1.000000000000000E+20
 24
1.000000000000000E+20
 34
1.000000000000000E+20
 15
-1.000000000000000E+20
 25
-1.000000000000000E+20
 35
-1.000000000000000E+20
146
0.0
 13
0.0
 23
0.0
 33
0.0
 16
1.0
 26
0.0
 36
0.0
 17
0.0
 27
1.0
 37
0.0
 76
     0
330
1F
331
29
  0
MLINESTYLE
  5
18
102
{ACAD_REACTORS
330
17
102
}
330
17
100
AcDbMlineStyle
  2
Standard
 70
     0
  3

 62
   256
 51
90.0
 52
90.0
 71
     2
 49
0.5
 62
   256
  6
BYLAYER
 49
-0.5
 62
   256
  6
BYLAYER
  0
ACDBPLACEHOLDER
  5
F
102
{ACAD_REACTORS
330
E
102
}
330
E
  0
VISUALSTYLE
  5
2F
102
{ACAD_REACTORS
330
2A
102
}
330
2A
100
AcDbVisualStyle
  2
2dWireframe
 70
     4
 71
     0
 72
     2
 73
     0
 90
        0
 40
-0.6
 41
-30.0
 62
     5
 63
     7
421
 16777215
 74
     1
 91
        4
 64
     7
 65
   257
 75
     1
175
     1
 42
1.0
 92
        0
 66
   257
 43
1.0
 76
     1
 77
     6
 78
     2
 67
     7
 79
     5
170
     0
171
     0
290
     0
174
     0
 93
        1
 44
0.0
173
     0
291
     0
 45
0.0
1001
ACAD
1000
AcDbSavedByObjectVersion
1070
     0
  0
VISUALSTYLE
  5
31
102
{ACAD_REACTORS
330
2A
102
}
330
2A
100
AcDbVisualStyle
  2
3D Hidden
 70
     6
 71
     1
 72
     2
 73
     2
 90
        0
 40
-0.6
 41
-30.0
 62
     5
 63
     7
421
 16777215
 74
     2
 91
        2
 64
     7
 65
   257
 75
     2
175
     1
 42
40.0
 92
        0
 66
   257
 43
1.0
 76
     1
 77
     6
 78
     2
 67
     7
 79
     3
170
     0
171
     0
290
     0
174
     0
 93
        1
 44
0.0
173
     0
291
     0
 45
0.0
1001
ACAD
1000
AcDbSavedByObjectVersion
1070
     0
  0
VISUALSTYLE
  5
30
102
{ACAD_REACTORS
330
2A
102
}
330
2A
100
AcDbVisualStyle
  2
3dWireframe
 70
     5
 71
     0
 72
     2
 73
     0
 90
        0
 40
-0.6
 41
-30.0
 62
     5
 63
     7
421
 16777215
 74
     1
 91
        4
 64
     7
 65
   257
 75
     1
175
     1
 42
1.0
 92
        0
 66
   257
 43
1.0
 76
     1
 77
     6
 78
     2
 67
     7
 79
     5
170
     0
171
     0
290
     0
174
     0
 93
        1
 44
0.0
173
     0
291
     0
 45
0.0
1001
ACAD
1000
AcDbSavedByObjectVersion
1070
     0
  0
VISUALSTYLE
  5
32
102
{ACAD_REACTORS
330
2A
102
}
330
2A
100
AcDbVisualStyle
  2
Basic
 70
     7
 71
     1
 72
     0
 73
     1
 90
        0
 40
-0.6
 41
-30.0
 62
     5
 63
     7
421
 16777215
 74
     0
 91
        4
 64
     7
 65
   257
 75
     1
175
     1
 42
1.0
 92
        8
 66
     7
 43
1.0
 76
     1
 77
     6
 78
     2
 67
     7
 79
     5
170
     0
171
     0
290
     0
174
     0
 93
        1
 44
0.0
173
     0
291
     1
 45
0.0
1001
ACAD
1000
AcDbSavedByObjectVersion
1070
     0
  0
VISUALSTYLE
  5
36
102
{ACAD_REACTORS
330
2A
102
}
330
2A
100
AcDbVisualStyle
  2
Brighten
 70
    12
 71
     2
 72
     2
 73
     0
 90
        0
 40
-0.6
 41
-30.0
 62
     5
 63
     7
421
 16777215
 74
     1
 91
        4
 64
     7
 65
   257
 75
     1
175
     1
 42
1.0
 92
        8
 66
     7
 43
1.0
 76
     1
 77
     6
 78
     2
 67
     7
 79
     5
170
     0
171
     0
290
     0
174
     0
 93
        1
 44
50.0
173
     0
291
     1
 45
0.0
1001
ACAD
1000
AcDbSavedByObjectVersion
1070
     0
  0
VISUALSTYLE
  5
3A
102
{ACAD_REACTORS
330
2A
102
}
330
2A
100
AcDbVisualStyle
  2
ColorChange
 70
    16
 71
     2
 72
     2
 73
     3
 90
        0
 40
-0.6
 41
-30.0
 62
     5
 63
     8
421
  8421504
 74
     1
 91
        4
 64
     7
 65
   257
 75
     1
175
     1
 42
1.0
 92
        8
 66
     8
424
  8421504
 43
1.0
 76
     1
 77
     6
 78
     2
 67
     7
 79
     5
170
     0
171
     0
290
     0
174
     0
 93
        1
 44
0.0
173
     0
291
     1
 45
0.0
1001
ACAD
1000
AcDbSavedByObjectVersion
1070
     0
  0
VISUALSTYLE
  5
34
102
{ACAD_REACTORS
330
2A
102
}
330
2A
100
AcDbVisualStyle
  2
Conceptual
 70
     9
 71
     3
 72
     2
 73
     0
 90
        0
 40
-0.6
 41
-30.0
 62
     5
 63
     7
421
 16777215
 74
     2
 91
        2
 64
     7
 65
   257
 75
     1
175
     1
 42
40.0
 92
        8
 66
     7
 43
1.0
 76
     1
 77
     6
 78
     2
 67
     7
 79
     3
170
     0
171
     0
290
     0
174
     0
 93
        1
 44
0.0
173
     0
291
     0
 45
0.0
1001
ACAD
1000
AcDbSavedByObjectVersion
1070
     0
  0
VISUALSTYLE
  5
35
102
{ACAD_REACTORS
330
2A
102
}
330
2A
100
AcDbVisualStyle
  2
Dim
 70
    11
 71
     2
 72
     2
 73
     0
 90
        0
 40
-0.6
 41
-30.0
 62
     5
 63
     7
421
 16777215
 74
     1
 91
        4
 64
     7
 65
   257
 75
     1
175
     1
 42
1.0
 92
        8
 66
     7
 43
1.0
 76
     1
 77
     6
 78
     2
 67
     7
 79
     5
170
     0
171
     0
290
     0
174
     0
 93
        1
 44
-50.0
173
     0
291
     1
 45
0.0
1001
ACAD
1000
AcDbSavedByObjectVersion
1070
     0
  0
VISUALSTYLE
  5
39
102
{ACAD_REACTORS
330
2A
102
}
330
2A
100
AcDbVisualStyle
  2
Facepattern
 70
    15
 71
     2
 72
     2
 73
     0
 90
        0
 40
-0.6
 41
-30.0
 62
     5
 63
     7
421
 16777215
 74
     1
 91
        4
 64
     7
 65
   257
 75
     1
175
     1
 42
1.0
 92
        8
 66
     7
 43
1.0
 76
     1
 77
     6
 78
     2
 67
     7
 79
     5
170
     0
171
     0
290
     0
174
     0
 93
        1
 44
0.0
173
     0
291
     1
 45
0.0
1001
ACAD
1000
AcDbSavedByObjectVersion
1070
     0
  0
VISUALSTYLE
  5
2B
102
{ACAD_REACTORS
330
2A
102
}
330
2A
100
AcDbVisualStyle
  2
Flat
 70
     0
 71
     2
 72
     1
 73
     1
 90
        2
 40
-0.6
 41
30.0
 62
     5
 63
     7
421
 16777215
 74
     0
 91
        4
 64
     7
 65
   257
 75
     1
175
     1
 42
1.0
 92
        8
 66
     7
 43
1.0
 76
     1
 77
     6
 78
     2
 67
     7
 79
     5
170
     0
171
     0
290
     0
174
     0
 93
       13
 44
0.0
173
     0
291
     1
 45
0.0
1001
ACAD
1000
AcDbSavedByObjectVersion
1070
     0
  0
VISUALSTYLE
  5
2C
102
{ACAD_REACTORS
330
2A
102
}
330
2A
100
AcDbVisualStyle
  2
FlatWithEdges
 70
     1
 71
     2
 72
     1
 73
     1
 90
        2
 40
-0.6
 41
30.0
 62
     5
 63
     7
421
 16777215
 74
     1
 91
        4
 64
     7
 65
   257
 75
     1
175
     1
 42
1.0
 92
        0
 66
   257
 43
1.0
 76
     1
 77
     6
 78
     2
 67
     7
 79
     5
170
     0
171
     0
290
     0
174
     0
 93
       13
 44
0.0
173
     0
291
     1
 45
0.0
1001
ACAD
1000
AcDbSavedByObjectVersion
1070
     0
  0
VISUALSTYLE
  5
2D
102
{ACAD_REACTORS
330
2A
102
}
330
2A
100
AcDbVisualStyle
  2
Gouraud
 70
     2
 71
     2
 72
     2
 73
     1
 90
        2
 40
-0.6
 41
30.0
 62
     5
 63
     7
421
 16777215
 74
     0
 91
        4
 64
     7
 65
   257
 75
     1
175
     1
 42
1.0
 92
        0
 66
     7
 43
1.0
 76
     1
 77
     6
 78
     2
 67
     7
 79
     5
170
     0
171
     0
290
     0
174
     0
 93
       13
 44
0.0
173
     0
291
     1
 45
0.0
1001
ACAD
1000
AcDbSavedByObjectVersion
1070
     0
  0
VISUALSTYLE
  5
2E
102
{ACAD_REACTORS
330
2A
102
}
330
2A
100
AcDbVisualStyle
  2
GouraudWithEdges
 70
     3
 71
     2
 72
     2
 73
     1
 90
        2
 40
-0.6
 41
30.0
 62
     5
 63
     7
421
 16777215
 74
     1
 91
        4
 64
     7
 65
   257
 75
     1
175
     1
 42
1.0
 92
        0
 66
   257
 43
1.0
 76
     1
 77
     6
 78
     2
 67
     7
 79
     5
170
     0
171
     0
290
     0
174
     0
 93
       13
 44
0.0
173
     0
291
     1
 45
0.0
1001
ACAD
1000
AcDbSavedByObjectVersion
1070
     0
  0
VISUALSTYLE
  5
38
102
{ACAD_REACTORS
330
2A
102
}
330
2A
100
AcDbVisualStyle
  2
Linepattern
 70
    14
 71
     2
 72
     2
 73
     0
 90
        0
 40
-0.6
 41
-30.0
 62
     5
 63
     7
421
 16777215
 74
     1
 91
        4
 64
     7
 65
   257
 75
     7
175
     7
 42
1.0
 92
        8
 66
     7
 43
1.0
 76
     1
 77
     6
 78
     2
 67
     7
 79
     5
170
     0
171
     0
290
     0
174
     0
 93
        1
 44
0.0
173
     0
291
     1
 45
0.0
1001
ACAD
1000
AcDbSavedByObjectVersion
1070
     0
  0
VISUALSTYLE
  5
33
102
{ACAD_REACTORS
330
2A
102
}
330
2A
100
AcDbVisualStyle
  2
Realistic
 70
     8
 71
     2
 72
     2
 73
     0
 90
        0
 40
-0.6
 41
-30.0
 62
     5
 63
     7
421
 16777215
 74
     1
 91
        0
 64
     7
 65
   257
 75
     1
175
     1
 42
1.0
 92
        8
 66
     8
424
  7895160
 43
1.0
 76
     1
 77
     6
 78
     2
 67
     7
 79
     5
170
     0
171
     0
290
     0
174
     0
 93
       13
 44
0.0
173
     0
291
     0
 45
0.0
1001
ACAD
1000
AcDbSavedByObjectVersion
1070
     0
  0
VISUALSTYLE
  5
37
102
{ACAD_REACTORS
330
2A
102
}
330
2A
100
AcDbVisualStyle
  2
Thicken
 70
    13
 71
     2
 72
     2
 73
     0
 90
        0
 40
-0.6
 41
-30.0
 62
     5
 63
     7
421
 16777215
 74
     1
 91
        4
 64
     7
 65
   257
 75
     1
175
     1
 42
1.0
 92
       12
 66
     7
 43
1.0
 76
     1
 77
     6
 78
     2
 67
     7
 79
     5
170
     0
171
     0
290
     0
174
     0
 93
        1
 44
0.0
173
     0
291
     1
 45
0.0
1001
ACAD
1000
AcDbSavedByObjectVersion
1070
     0
  0
ENDSEC
  0
EOF
